{"glyphs":{"0":{"ha":833,"x_min":103,"x_max":733,"o":"m 350 -17 q 213 26 268 -17 q 131 144 158 68 q 103 319 103 219 q 118 477 103 396 q 165 635 133 558 q 242 772 196 711 q 349 869 288 833 q 486 906 410 906 q 623 863 568 906 q 706 743 678 819 q 733 567 733 667 q 718 409 733 490 q 672 252 703 328 q 594 116 640 176 q 488 19 549 56 q 350 -17 426 -17 m 353 19 q 474 54 419 19 q 569 147 528 89 q 638 275 610 204 q 681 419 667 346 q 694 558 694 493 q 643 784 694 699 q 483 869 592 869 q 363 835 417 869 q 267 742 308 800 q 198 612 226 683 q 156 467 169 540 q 142 328 142 393 q 193 104 142 189 q 353 19 244 19 m 414 372 q 367 392 385 372 q 350 444 350 411 q 374 513 350 485 q 428 542 399 542 q 474 522 457 542 q 492 469 492 503 q 467 401 492 431 q 414 372 443 372 z "},"1":{"ha":833,"x_min":75,"x_max":650,"o":"m 75 0 l 83 36 l 350 36 l 506 808 l 308 808 l 314 836 q 435 857 376 843 q 528 889 493 871 l 561 889 l 389 36 l 650 36 l 644 0 l 75 0 z "},"2":{"ha":833,"x_min":72,"x_max":683,"o":"m 72 0 l 75 28 q 334 251 226 156 q 510 423 442 347 q 612 564 579 499 q 644 697 644 629 q 602 823 644 776 q 464 869 560 869 q 321 831 388 869 q 203 736 254 792 l 175 763 q 307 864 232 822 q 475 906 382 906 q 629 850 575 906 q 683 700 683 794 q 648 552 683 624 q 543 403 613 481 q 371 235 474 325 q 133 31 268 144 q 221 35 188 35 q 297 36 254 36 l 675 36 l 669 0 l 72 0 z "},"3":{"ha":833,"x_min":56,"x_max":703,"o":"m 347 -17 q 213 6 268 -17 q 119 63 157 29 q 56 128 81 96 l 86 150 q 142 91 108 121 q 228 40 176 61 q 350 19 279 19 q 485 46 424 19 q 585 122 547 72 q 622 244 622 172 q 590 349 622 304 q 488 419 557 393 q 306 447 418 444 l 311 483 q 511 514 433 483 q 626 597 589 544 q 664 711 664 649 q 612 829 664 789 q 478 869 560 869 q 334 839 397 869 q 222 764 271 808 l 197 792 q 319 871 246 836 q 481 906 392 906 q 594 885 544 906 q 674 822 644 864 q 703 719 703 781 q 641 555 703 622 q 451 465 579 488 l 451 461 q 608 392 554 444 q 661 253 661 339 q 619 106 661 165 q 507 15 578 46 q 347 -17 436 -17 z "},"4":{"ha":833,"x_min":43,"x_max":733,"o":"m 471 0 l 608 693 q 623 756 615 725 q 639 817 631 786 l 635 817 q 583 762 608 789 q 529 707 557 735 l 118 310 l 733 310 l 724 274 l 43 274 l 47 294 l 667 889 l 688 889 l 510 0 l 471 0 z "},"5":{"ha":833,"x_min":50,"x_max":742,"o":"m 349 -17 q 214 6 272 -17 q 115 63 156 29 q 50 128 75 96 l 81 153 q 141 90 104 121 q 230 40 178 60 q 350 19 282 19 q 493 52 425 19 q 604 149 561 85 q 647 308 647 214 q 594 465 647 413 q 444 517 540 517 q 356 507 396 517 q 281 481 317 497 q 208 447 244 465 l 178 469 l 281 889 l 742 889 l 736 853 l 311 853 l 224 493 q 324 535 272 517 q 447 553 376 553 q 571 529 517 553 q 656 453 625 506 q 686 317 686 401 q 659 174 686 236 q 585 70 632 113 q 478 6 539 28 q 349 -17 417 -17 z "},"6":{"ha":833,"x_min":103,"x_max":756,"o":"m 378 -17 q 236 22 299 -17 q 138 133 174 61 q 103 306 103 206 q 140 574 103 461 q 241 761 178 688 q 381 870 304 835 q 536 906 458 906 q 623 893 582 906 q 698 855 664 881 q 756 792 732 829 l 725 769 q 638 848 686 826 q 533 869 590 869 q 397 836 465 869 q 270 735 328 803 q 177 563 213 668 q 142 314 142 458 q 210 96 142 172 q 381 19 279 19 q 520 58 458 19 q 617 162 582 97 q 653 303 653 226 q 624 424 653 378 q 551 490 596 469 q 458 511 507 511 q 284 462 365 511 q 135 325 203 413 l 131 367 q 215 456 165 415 q 327 522 265 497 q 461 547 389 547 q 573 523 521 547 q 658 447 625 499 q 692 311 692 396 q 668 181 692 240 q 601 76 644 121 q 501 8 558 32 q 378 -17 444 -17 z "},"7":{"ha":833,"x_min":175,"x_max":792,"o":"m 243 0 q 323 262 279 146 q 424 476 367 378 q 556 667 481 575 q 733 857 632 760 l 742 853 l 175 853 l 182 889 l 792 889 l 786 863 q 629 698 697 776 q 510 542 561 619 q 419 381 458 464 q 350 204 381 297 q 293 0 319 111 l 243 0 z "},"8":{"ha":833,"x_min":108,"x_max":731,"o":"m 378 -17 q 246 9 307 -17 q 147 86 185 35 q 108 214 108 138 q 140 340 108 286 q 226 431 172 393 q 342 494 279 468 l 342 500 q 272 586 296 544 q 247 683 247 628 q 283 805 247 756 q 377 880 318 854 q 506 906 436 906 q 618 883 567 906 q 700 815 669 860 q 731 703 731 769 q 680 544 731 610 q 542 433 629 479 l 542 428 q 596 387 564 413 q 653 322 628 361 q 678 231 678 283 q 638 97 678 151 q 531 13 599 42 q 378 -17 463 -17 m 508 450 q 639 552 586 488 q 692 700 692 617 q 665 793 692 756 q 596 850 639 831 q 503 869 553 869 q 397 849 446 869 q 317 787 347 828 q 286 686 286 746 q 318 586 286 629 q 401 510 350 543 q 508 450 451 476 m 378 19 q 507 42 447 19 q 603 110 567 65 q 639 222 639 156 q 615 308 639 271 q 551 374 590 344 q 464 429 511 404 q 372 478 417 454 q 209 371 271 431 q 147 217 147 311 q 180 108 147 151 q 265 42 213 64 q 378 19 318 19 z "},"9":{"ha":833,"x_min":81,"x_max":733,"o":"m 300 -17 q 213 -3 254 -17 q 138 35 172 10 q 81 97 104 60 l 111 119 q 199 42 151 64 q 303 19 247 19 q 440 53 371 19 q 566 153 508 86 q 659 326 624 221 q 694 575 694 432 q 626 793 694 717 q 456 869 558 869 q 316 831 378 869 q 219 727 254 792 q 183 586 183 663 q 212 466 183 513 q 285 399 240 419 q 378 378 331 378 q 553 427 472 378 q 701 564 633 476 l 706 522 q 622 433 671 474 q 510 367 572 392 q 375 342 447 342 q 264 366 317 342 q 178 442 211 390 q 144 578 144 494 q 168 708 144 649 q 235 813 192 768 q 335 881 278 857 q 458 906 392 906 q 600 867 538 906 q 698 756 663 828 q 733 583 733 683 q 696 315 733 428 q 595 128 658 201 q 455 19 532 54 q 300 -17 378 -17 z "}," ":{"ha":833,"x_min":0,"x_max":0,"o":""},"A":{"ha":833,"x_min":-11,"x_max":678,"o":"m -11 0 l 508 917 l 550 917 l 678 0 l 636 0 l 564 550 q 544 711 554 628 q 524 871 535 794 l 517 871 q 430 713 471 789 q 344 556 389 638 l 33 0 l -11 0 m 208 331 l 219 367 l 608 367 l 607 331 l 208 331 z "},"B":{"ha":833,"x_min":75,"x_max":739,"o":"m 75 0 l 258 917 l 475 917 q 624 893 565 917 q 710 825 682 869 q 739 719 739 781 q 705 601 739 650 q 622 524 671 551 q 531 489 574 496 l 531 483 q 615 449 575 474 q 681 385 656 425 q 706 286 706 344 q 660 126 706 189 q 531 31 614 63 q 339 0 449 0 l 75 0 m 217 506 l 381 506 q 618 565 539 506 q 697 717 697 625 q 643 838 697 794 q 453 881 589 881 l 292 881 l 217 506 m 122 36 l 314 36 q 497 60 418 36 q 620 139 576 85 q 664 282 664 193 q 597 416 664 363 q 406 469 529 469 l 211 469 l 122 36 z "},"C":{"ha":833,"x_min":117,"x_max":789,"o":"m 422 -17 q 251 31 319 -17 q 150 159 183 78 q 117 342 117 240 q 137 506 117 422 q 195 665 157 589 q 290 802 233 742 q 418 898 346 863 q 578 933 490 933 q 707 896 656 933 q 789 806 758 858 l 756 783 q 685 865 729 833 q 575 897 640 897 q 429 864 494 897 q 313 773 364 831 q 228 644 263 715 q 176 497 193 574 q 158 350 158 421 q 186 182 158 257 q 273 63 214 107 q 425 19 332 19 q 544 44 490 19 q 650 111 599 68 l 675 83 q 597 29 636 51 q 515 -5 558 7 q 422 -17 472 -17 z "},"D":{"ha":833,"x_min":42,"x_max":764,"o":"m 42 0 l 225 917 l 389 917 q 672 819 579 917 q 764 561 764 722 q 732 342 764 444 q 637 164 700 240 q 479 44 574 88 q 258 0 385 0 l 42 0 m 89 36 l 261 36 q 514 106 411 36 q 669 294 617 175 q 722 558 722 413 q 640 792 722 703 q 386 881 557 881 l 258 881 l 89 36 z "},"E":{"ha":833,"x_min":108,"x_max":828,"o":"m 108 0 l 292 917 l 828 917 l 819 881 l 325 881 l 250 506 l 664 506 l 656 469 l 244 469 l 156 36 l 664 36 l 656 0 l 108 0 z "},"F":{"ha":833,"x_min":136,"x_max":847,"o":"m 136 0 l 319 917 l 847 917 l 839 881 l 353 881 l 275 489 l 681 489 l 672 453 l 269 453 l 178 0 l 136 0 z "},"G":{"ha":833,"x_min":103,"x_max":789,"o":"m 422 -17 q 243 30 314 -17 q 138 157 172 76 q 103 342 103 238 q 133 547 103 443 q 224 739 164 651 q 374 880 285 826 q 578 933 463 933 q 707 894 656 933 q 789 806 758 856 l 756 783 q 685 865 729 832 q 575 897 640 897 q 424 864 492 897 q 303 773 356 831 q 216 644 251 715 q 163 497 181 574 q 144 350 144 421 q 172 185 144 260 q 262 65 200 110 q 425 19 324 19 q 542 42 492 19 q 625 94 592 64 l 686 403 l 467 403 l 475 439 l 736 439 l 661 75 q 555 8 614 33 q 422 -17 496 -17 z "},"H":{"ha":833,"x_min":42,"x_max":803,"o":"m 42 0 l 225 917 l 267 917 l 183 506 l 678 506 l 761 917 l 803 917 l 619 0 l 578 0 l 672 469 l 178 469 l 83 0 l 42 0 z "},"I":{"ha":833,"x_min":69,"x_max":775,"o":"m 69 0 l 78 36 l 314 36 l 483 881 l 244 881 l 253 917 l 775 917 l 767 881 l 525 881 l 356 36 l 597 36 l 589 0 l 69 0 z "},"J":{"ha":833,"x_min":50,"x_max":717,"o":"m 275 -17 q 137 23 196 -17 q 50 114 78 63 l 81 136 q 163 50 114 81 q 281 19 211 19 q 458 90 393 19 q 550 297 524 160 l 667 881 l 264 881 l 272 917 l 717 917 l 592 293 q 531 121 571 190 q 428 17 492 51 q 275 -17 365 -17 z "},"K":{"ha":833,"x_min":89,"x_max":833,"o":"m 833 917 l 197 328 l 131 0 l 89 0 l 272 917 l 314 917 l 208 392 l 214 392 l 781 917 l 833 917 m 403 533 l 433 558 l 706 0 l 661 0 l 403 533 z "},"L":{"ha":833,"x_min":175,"x_max":714,"o":"m 175 0 l 358 917 l 400 917 l 225 36 l 714 36 l 706 0 l 175 0 z "},"M":{"ha":833,"x_min":42,"x_max":803,"o":"m 42 0 l 225 917 l 286 917 l 369 435 l 388 304 l 393 304 l 463 436 l 743 917 l 803 917 l 619 0 l 578 0 l 718 697 q 727 740 722 718 q 737 783 732 761 q 747 826 742 804 q 758 869 753 849 l 753 869 q 729 822 742 846 q 703 772 717 797 q 672 717 689 746 l 401 251 l 360 251 l 283 718 q 277 753 281 735 q 271 792 274 772 q 265 831 268 811 q 258 869 261 851 l 253 869 q 243 813 249 842 q 233 754 238 783 q 222 697 228 725 l 83 0 l 42 0 z "},"N":{"ha":833,"x_min":50,"x_max":800,"o":"m 50 0 l 233 917 l 278 917 l 525 239 l 589 58 l 594 58 q 605 122 600 90 q 615 184 610 153 q 627 247 621 215 q 639 308 633 278 l 758 917 l 800 917 l 617 0 l 572 0 l 325 678 l 261 858 l 256 858 q 242 774 249 815 q 227 692 235 733 q 211 608 219 651 l 92 0 l 50 0 z "},"O":{"ha":833,"x_min":69,"x_max":778,"o":"m 356 -17 q 200 28 264 -17 q 103 153 136 74 q 69 336 69 233 q 88 502 69 418 q 140 663 106 586 q 226 801 175 740 q 343 898 276 863 q 492 933 410 933 q 647 888 583 933 q 744 763 711 843 q 778 581 778 683 q 760 415 778 499 q 707 253 742 331 q 622 115 672 176 q 504 19 571 54 q 356 -17 438 -17 m 358 19 q 492 53 432 19 q 597 145 551 88 q 674 275 643 203 q 720 425 704 347 q 736 575 736 503 q 709 742 736 669 q 627 856 682 815 q 489 897 572 897 q 356 863 415 897 q 250 772 296 829 q 174 642 204 714 q 127 492 143 569 q 111 342 111 414 q 138 174 111 247 q 220 60 165 101 q 358 19 275 19 z "},"P":{"ha":833,"x_min":97,"x_max":781,"o":"m 97 0 l 281 917 l 514 917 q 657 894 597 917 q 749 826 717 872 q 781 708 781 781 q 754 577 781 633 q 678 483 728 521 q 557 427 628 446 q 397 408 486 408 l 219 408 l 139 0 l 97 0 m 228 444 l 389 444 q 651 510 563 444 q 739 706 739 576 q 676 840 739 800 q 489 881 613 881 l 314 881 l 228 444 z "},"Q":{"ha":833,"x_min":69,"x_max":778,"o":"m 356 -17 q 200 28 264 -17 q 103 153 136 74 q 69 336 69 233 q 88 502 69 418 q 140 663 106 586 q 226 801 175 740 q 343 898 276 863 q 492 933 410 933 q 647 888 583 933 q 744 763 711 843 q 778 581 778 683 q 760 415 778 499 q 707 253 742 331 q 622 115 672 176 q 504 19 571 54 q 356 -17 438 -17 m 358 17 q 492 51 432 17 q 597 142 551 85 q 674 273 643 200 q 720 424 704 346 q 736 575 736 501 q 709 742 736 669 q 627 856 682 815 q 489 897 572 897 q 356 863 415 897 q 250 772 296 829 q 174 642 204 714 q 127 492 143 569 q 111 342 111 414 q 138 173 111 246 q 220 58 165 100 q 358 17 275 17 m 543 -208 q 389 -156 454 -208 q 311 8 324 -104 l 353 0 q 416 -125 364 -81 q 546 -169 468 -169 q 608 -165 581 -169 q 658 -150 636 -160 l 669 -186 q 610 -202 643 -196 q 543 -208 578 -208 z "},"R":{"ha":833,"x_min":69,"x_max":739,"o":"m 69 0 l 253 917 l 475 917 q 616 897 557 917 q 707 833 675 876 q 739 719 739 789 q 713 599 739 653 q 641 508 688 546 q 531 451 594 471 q 394 431 468 431 l 197 431 l 111 0 l 69 0 m 206 467 l 375 467 q 613 533 529 467 q 697 717 697 600 q 635 844 697 807 q 450 881 574 881 l 286 881 l 206 467 m 392 433 l 431 450 l 617 0 l 569 0 l 392 433 z "},"S":{"ha":833,"x_min":67,"x_max":722,"o":"m 356 -17 q 185 24 258 -17 q 67 136 113 64 l 100 158 q 208 56 144 92 q 361 19 272 19 q 487 47 431 19 q 576 126 543 75 q 608 244 608 176 q 576 351 608 307 q 489 425 543 394 l 367 497 q 267 581 311 531 q 222 703 222 631 q 254 817 222 764 q 344 901 286 869 q 478 933 401 933 q 624 897 561 933 q 722 811 688 861 l 692 786 q 601 865 657 832 q 469 897 544 897 q 361 869 407 897 q 290 798 315 842 q 264 708 264 754 q 301 601 264 642 q 386 533 339 561 l 506 464 q 581 408 549 439 q 632 339 614 378 q 650 250 650 300 q 611 110 650 169 q 506 17 572 50 q 356 -17 439 -17 z "},"T":{"ha":833,"x_min":158,"x_max":858,"o":"m 308 0 l 483 878 l 158 878 l 167 917 l 858 917 l 850 878 l 525 878 l 350 0 l 308 0 z "},"U":{"ha":833,"x_min":103,"x_max":803,"o":"m 361 -17 q 172 53 240 -17 q 103 250 103 124 q 106 304 103 278 q 114 364 108 331 l 225 917 l 267 917 l 158 375 q 147 314 150 342 q 144 261 144 286 q 201 83 144 147 q 367 19 257 19 q 481 50 426 19 q 579 149 536 81 q 644 331 622 218 l 761 917 l 803 917 l 683 319 q 609 121 658 194 q 495 15 560 47 q 361 -17 431 -17 z "},"V":{"ha":833,"x_min":208,"x_max":857,"o":"m 308 0 l 208 917 l 247 917 l 306 363 q 322 208 314 286 q 339 53 331 131 l 344 53 q 399 156 371 103 q 456 260 428 208 q 511 361 485 313 l 814 917 l 857 917 l 356 0 l 308 0 z "},"W":{"ha":833,"x_min":107,"x_max":874,"o":"m 107 0 l 149 917 l 189 917 l 154 194 q 150 108 153 146 q 146 49 147 69 q 144 28 144 28 l 150 28 q 167 67 157 44 q 187 115 176 90 q 207 163 197 140 q 222 197 217 185 l 433 649 l 482 649 l 528 292 q 539 206 533 256 q 550 109 544 156 q 557 36 556 63 l 565 36 q 575 74 569 51 q 588 120 581 96 q 601 167 594 144 q 611 204 607 189 l 835 917 l 874 917 l 588 0 l 525 0 l 471 439 q 460 526 465 479 q 453 601 456 574 l 446 601 q 416 525 436 572 q 376 438 396 478 l 171 0 l 107 0 z "},"X":{"ha":833,"x_min":25,"x_max":806,"o":"m 25 0 l 397 478 l 211 917 l 256 917 l 376 631 q 403 564 390 600 q 425 504 417 528 l 431 504 q 482 573 453 535 q 525 629 511 611 l 756 917 l 806 917 l 447 472 l 644 0 l 600 0 l 475 297 q 458 340 468 314 q 437 393 447 365 q 418 439 426 421 l 413 439 q 358 365 385 400 q 306 297 331 329 l 74 0 l 25 0 z "},"Y":{"ha":833,"x_min":175,"x_max":847,"o":"m 311 0 l 381 342 l 175 917 l 217 917 l 328 603 q 369 481 349 544 q 403 372 390 417 l 408 372 q 452 438 425 399 q 510 521 479 478 q 569 603 540 564 l 803 917 l 847 917 l 419 336 l 353 0 l 311 0 z "},"Z":{"ha":833,"x_min":33,"x_max":800,"o":"m 85 19 l 71 36 l 675 36 l 667 0 l 33 0 l 39 24 l 751 903 l 765 881 l 192 881 l 200 917 l 800 917 l 794 892 l 85 19 z "},"a":{"ha":833,"x_min":92,"x_max":747,"o":"m 328 -17 q 157 47 222 -17 q 92 236 92 111 q 119 403 92 324 q 197 546 147 483 q 315 644 247 608 q 464 681 383 681 q 596 650 539 681 q 683 569 653 619 l 689 569 l 714 664 l 747 664 l 614 0 l 581 0 l 597 108 l 592 108 q 467 19 536 54 q 328 -17 399 -17 m 331 19 q 469 59 397 19 q 608 169 542 99 l 681 517 q 579 615 635 586 q 461 644 524 644 q 330 610 390 644 q 225 519 269 576 q 156 391 181 463 q 131 244 131 319 q 185 75 131 131 q 331 19 239 19 z "},"b":{"ha":833,"x_min":72,"x_max":728,"o":"m 356 -17 q 226 15 283 -17 q 133 94 169 47 l 128 94 l 106 0 l 72 0 l 272 1003 l 311 1003 l 250 703 l 217 553 l 222 553 q 347 641 276 601 q 492 681 417 681 q 663 612 599 681 q 728 414 728 543 q 701 247 728 325 q 625 109 675 168 q 507 17 575 50 q 356 -17 439 -17 m 358 19 q 492 51 432 19 q 597 136 553 82 q 665 260 640 190 q 689 406 689 329 q 635 585 689 525 q 489 644 581 644 q 351 603 426 644 q 211 500 276 563 l 139 142 q 243 47 188 74 q 358 19 299 19 z "},"c":{"ha":833,"x_min":100,"x_max":742,"o":"m 397 -17 q 243 17 310 -17 q 138 115 176 50 q 100 278 100 181 q 133 442 100 368 q 223 569 167 515 q 350 651 279 622 q 497 681 421 681 q 645 647 583 681 q 742 564 707 613 l 711 539 q 619 618 672 592 q 483 644 565 644 q 360 617 421 644 q 249 540 299 589 q 169 426 199 490 q 139 286 139 361 q 211 86 139 153 q 400 19 283 19 q 531 49 465 19 q 647 125 596 78 l 672 97 q 543 15 618 47 q 397 -17 468 -17 z "},"d":{"ha":833,"x_min":92,"x_max":817,"o":"m 328 -17 q 157 47 222 -17 q 92 236 92 111 q 119 403 92 324 q 197 546 147 483 q 315 644 247 608 q 464 681 383 681 q 596 650 539 681 q 683 569 653 619 l 689 569 l 717 703 l 778 1003 l 817 1003 l 614 0 l 581 0 l 597 108 l 592 108 q 467 19 536 54 q 328 -17 399 -17 m 331 19 q 469 59 397 19 q 608 169 542 99 l 681 517 q 579 615 635 586 q 461 644 524 644 q 330 610 390 644 q 225 519 269 576 q 156 391 181 463 q 131 244 131 319 q 185 75 131 131 q 331 19 239 19 z "},"e":{"ha":833,"x_min":106,"x_max":717,"o":"m 378 -17 q 231 17 292 -17 q 138 115 169 51 q 106 264 106 178 q 135 430 106 354 q 217 562 165 506 q 337 649 269 618 q 478 681 404 681 q 656 608 594 681 q 717 429 717 536 q 712 373 717 399 q 703 336 707 347 l 139 336 l 147 372 l 706 372 l 669 364 q 676 399 674 381 q 678 433 678 417 q 623 587 678 529 q 472 644 568 644 q 353 615 411 644 q 247 535 294 586 q 172 415 200 483 q 144 267 144 346 q 172 138 144 194 q 253 51 200 82 q 381 19 306 19 q 519 48 454 19 q 631 119 583 76 l 653 89 q 537 17 610 50 q 378 -17 464 -17 z "},"f":{"ha":833,"x_min":189,"x_max":864,"o":"m 264 0 l 419 775 q 519 965 447 910 q 689 1019 590 1019 q 783 1002 738 1019 q 864 953 829 985 l 839 925 q 769 968 807 953 q 686 983 731 983 q 542 934 601 983 q 458 769 482 885 l 303 0 l 264 0 m 189 628 l 194 658 l 397 664 l 756 664 l 747 628 l 189 628 z "},"g":{"ha":833,"x_min":36,"x_max":747,"o":"m 272 -325 q 138 -303 197 -325 q 36 -247 78 -281 l 61 -217 q 161 -270 103 -251 q 278 -289 219 -289 q 413 -262 353 -289 q 511 -184 472 -236 q 564 -58 550 -132 l 597 117 l 592 117 q 467 27 536 63 q 328 -8 399 -8 q 157 56 222 -8 q 92 242 92 119 q 119 407 92 328 q 197 548 147 486 q 315 645 247 610 q 464 681 383 681 q 596 650 539 681 q 683 569 653 619 l 689 569 l 714 664 l 747 664 l 600 -72 q 538 -212 583 -156 q 424 -297 492 -268 q 272 -325 356 -325 m 331 28 q 469 67 397 28 q 608 178 542 107 l 681 517 q 579 615 635 586 q 461 644 524 644 q 330 611 390 644 q 225 522 269 578 q 156 394 181 465 q 131 250 131 324 q 185 83 131 138 q 331 28 239 28 z "},"h":{"ha":833,"x_min":72,"x_max":719,"o":"m 72 0 l 272 1003 l 311 1003 l 225 575 l 211 511 l 217 511 q 315 594 264 556 q 423 657 365 633 q 550 681 481 681 q 681 635 642 681 q 719 519 719 589 q 716 459 719 486 q 706 403 713 432 l 625 0 l 586 0 l 667 400 q 677 458 674 432 q 681 514 681 485 q 646 610 681 576 q 544 644 611 644 q 373 592 457 644 q 203 450 289 540 l 111 0 l 72 0 z "},"i":{"ha":833,"x_min":172,"x_max":656,"o":"m 488 -17 q 379 19 422 -17 q 336 131 336 54 q 338 163 336 146 q 344 197 340 179 l 436 628 l 172 628 l 181 664 l 481 664 l 381 186 q 376 160 378 172 q 375 136 375 147 q 409 47 375 74 q 494 19 443 19 q 567 31 532 19 q 642 61 603 43 l 656 31 q 575 -3 614 10 q 488 -17 536 -17 m 475 833 q 440 847 453 833 q 428 881 428 860 q 437 914 428 899 q 460 938 446 929 q 489 947 474 947 q 524 934 513 947 q 536 900 536 921 q 517 853 536 874 q 475 833 499 833 z "},"j":{"ha":833,"x_min":-19,"x_max":633,"o":"m 150 -325 q 53 -306 99 -325 q -19 -267 8 -287 l 3 -236 q 70 -274 32 -258 q 158 -289 108 -289 q 320 -228 267 -289 q 392 -75 374 -167 l 533 628 l 200 628 l 208 664 l 581 664 l 433 -67 q 345 -258 408 -192 q 150 -325 282 -325 m 572 833 q 538 847 550 833 q 525 881 525 860 q 534 914 525 899 q 557 938 543 929 q 586 947 571 947 q 622 934 610 947 q 633 900 633 921 q 615 853 633 874 q 572 833 596 833 z "},"k":{"ha":833,"x_min":100,"x_max":786,"o":"m 100 0 l 300 1003 l 339 1003 l 189 244 l 194 244 l 731 664 l 786 664 l 447 394 l 178 189 l 139 0 l 100 0 m 426 389 l 458 411 l 689 0 l 644 0 l 426 389 z "},"l":{"ha":833,"x_min":211,"x_max":618,"o":"m 450 -17 q 339 20 383 -17 q 294 133 294 57 q 297 164 294 149 q 303 197 299 179 l 458 967 l 211 967 l 219 1003 l 503 1003 l 344 208 q 338 172 340 190 q 336 139 336 154 q 368 48 336 76 q 456 19 400 19 q 528 30 492 19 q 603 61 564 40 l 618 28 q 537 -5 579 7 q 450 -17 494 -17 z "},"m":{"ha":833,"x_min":22,"x_max":767,"o":"m 22 0 l 156 664 l 189 664 l 175 569 l 178 569 q 272 654 226 628 q 364 681 318 681 q 440 653 413 681 q 467 561 467 626 l 450 542 q 567 651 513 621 q 664 681 621 681 q 740 654 713 681 q 767 567 767 628 q 765 532 767 550 q 757 486 763 514 l 661 0 l 622 0 l 719 489 q 726 527 724 510 q 728 558 728 544 q 710 624 728 604 q 657 644 692 644 q 558 609 606 644 q 461 503 511 574 l 361 0 l 322 0 l 419 489 q 426 527 424 510 q 428 558 428 544 q 410 624 428 604 q 356 644 392 644 q 259 609 304 644 q 161 503 214 574 l 61 0 l 22 0 z "},"n":{"ha":833,"x_min":72,"x_max":719,"o":"m 72 0 l 206 664 l 239 664 l 214 511 l 219 511 q 315 594 265 556 q 423 657 365 633 q 550 681 481 681 q 681 635 642 681 q 719 519 719 589 q 716 459 719 486 q 706 403 713 432 l 625 0 l 586 0 l 667 400 q 677 458 674 432 q 681 514 681 485 q 646 610 681 576 q 544 644 611 644 q 373 592 457 644 q 203 450 289 540 l 111 0 l 72 0 z "},"o":{"ha":833,"x_min":78,"x_max":719,"o":"m 342 -17 q 199 20 258 -17 q 109 122 140 57 q 78 269 78 186 q 108 430 78 356 q 190 560 138 504 q 310 649 242 617 q 456 681 379 681 q 598 644 539 681 q 688 542 657 607 q 719 394 719 478 q 690 235 719 310 q 608 103 660 160 q 488 15 556 47 q 342 -17 419 -17 m 344 19 q 472 49 411 19 q 579 128 532 78 q 653 246 626 179 q 681 386 681 313 q 621 574 681 503 q 453 644 561 644 q 326 615 386 644 q 218 535 265 586 q 144 418 171 485 q 117 278 117 351 q 176 90 117 161 q 344 19 236 19 z "},"p":{"ha":833,"x_min":11,"x_max":728,"o":"m 11 -308 l 206 664 l 239 664 l 219 553 l 225 553 q 348 641 279 601 q 492 681 417 681 q 663 612 599 681 q 728 414 728 543 q 681 197 728 294 q 550 41 633 99 q 356 -17 467 -17 q 227 15 285 -17 q 133 94 169 47 l 128 94 l 97 -58 l 50 -308 l 11 -308 m 358 19 q 492 51 432 19 q 597 136 553 82 q 665 260 640 190 q 689 406 689 329 q 635 585 689 525 q 489 644 581 644 q 351 603 426 644 q 211 500 276 563 l 139 142 q 243 47 188 74 q 358 19 299 19 z "},"q":{"ha":833,"x_min":92,"x_max":747,"o":"m 514 -308 l 564 -58 q 575 -6 568 -36 q 589 56 582 25 q 600 108 596 88 l 594 108 q 469 19 539 54 q 328 -17 399 -17 q 157 47 222 -17 q 92 236 92 111 q 119 403 92 324 q 197 546 147 483 q 315 644 247 608 q 464 681 383 681 q 596 650 539 681 q 683 569 653 619 l 689 569 l 714 664 l 747 664 l 553 -308 l 514 -308 m 331 19 q 469 59 397 19 q 608 169 542 99 l 681 517 q 579 615 635 586 q 461 644 524 644 q 330 610 390 644 q 225 519 269 576 q 156 391 181 463 q 131 244 131 319 q 185 75 131 131 q 331 19 239 19 z "},"r":{"ha":833,"x_min":161,"x_max":750,"o":"m 161 0 l 294 664 l 328 664 l 292 464 l 297 464 q 385 567 336 518 q 492 649 435 617 q 614 681 550 681 q 691 671 658 681 q 750 642 724 661 l 728 608 q 674 635 701 628 q 610 642 646 642 q 440 571 524 642 q 278 389 356 500 l 200 0 l 161 0 z "},"s":{"ha":833,"x_min":94,"x_max":694,"o":"m 379 -17 q 272 -2 326 -17 q 170 40 217 13 q 94 106 124 68 l 122 131 q 239 47 168 75 q 389 19 310 19 q 541 54 479 19 q 603 167 603 89 q 575 238 603 210 q 499 285 547 265 q 390 326 451 306 q 241 406 285 363 q 197 514 197 450 q 227 608 197 571 q 307 663 257 644 q 419 681 357 681 q 585 647 514 681 q 694 572 656 613 l 669 544 q 567 613 628 582 q 417 644 506 644 q 284 610 332 644 q 236 517 236 575 q 288 421 236 454 q 421 360 339 388 q 535 315 485 339 q 613 258 585 292 q 642 169 642 224 q 606 60 642 101 q 511 1 571 19 q 379 -17 451 -17 z "},"t":{"ha":833,"x_min":122,"x_max":742,"o":"m 425 -17 q 287 34 332 -17 q 242 164 242 85 q 245 208 242 188 q 253 250 249 229 l 331 628 l 122 628 l 128 658 l 339 664 l 389 886 l 422 886 l 378 664 l 742 664 l 733 628 l 369 628 l 289 239 q 283 203 285 221 q 281 169 281 186 q 320 58 281 96 q 428 19 360 19 q 533 33 485 19 q 619 67 581 46 l 636 36 q 541 -3 594 11 q 425 -17 488 -17 z "},"u":{"ha":833,"x_min":97,"x_max":744,"o":"m 268 -17 q 136 30 175 -17 q 97 144 97 76 q 101 205 97 178 q 111 261 106 232 l 192 664 l 231 664 l 150 264 q 140 206 144 233 q 136 150 136 179 q 171 53 136 88 q 272 19 206 19 q 444 72 360 19 q 614 214 529 125 l 706 664 l 744 664 l 611 0 l 578 0 l 603 153 l 597 153 q 501 69 551 108 q 394 7 451 31 q 268 -17 338 -17 z "},"v":{"ha":833,"x_min":139,"x_max":786,"o":"m 314 0 l 139 664 l 178 664 l 292 228 q 317 132 304 181 q 342 39 329 83 l 347 39 q 403 131 372 83 q 467 231 433 179 l 742 664 l 786 664 l 361 0 l 314 0 z "},"w":{"ha":833,"x_min":64,"x_max":860,"o":"m 111 0 l 64 664 l 106 664 l 133 214 q 138 125 136 168 q 142 38 140 82 l 147 38 q 186 124 167 81 q 226 213 206 167 l 432 664 l 488 664 l 515 213 q 521 124 518 167 q 525 38 524 82 l 531 38 q 569 124 550 82 q 610 213 589 167 l 815 664 l 860 664 l 550 0 l 493 0 l 465 439 q 460 533 463 488 q 454 625 458 578 l 451 625 q 423 560 438 593 q 394 497 408 528 q 367 436 381 465 l 167 0 l 111 0 z "},"x":{"ha":833,"x_min":42,"x_max":736,"o":"m 42 0 l 376 347 l 193 664 l 239 664 l 339 483 q 371 425 353 460 q 400 368 389 390 l 406 368 q 456 426 425 390 q 508 483 488 461 l 682 664 l 736 664 l 421 340 l 625 0 l 578 0 l 467 193 q 431 256 451 219 q 397 315 411 293 l 390 315 q 359 281 378 301 q 321 239 340 260 q 289 204 301 218 l 96 0 l 42 0 z "},"y":{"ha":833,"x_min":-56,"x_max":786,"o":"m 33 -308 q -14 -303 7 -308 q -56 -289 -35 -299 l -39 -256 q -4 -268 -22 -264 q 36 -272 14 -272 q 117 -256 82 -272 q 185 -200 151 -239 q 261 -94 218 -161 l 317 -8 l 139 664 l 178 664 l 292 222 q 316 128 303 183 q 339 28 329 74 l 344 28 q 406 128 372 74 q 464 222 439 183 l 742 664 l 786 664 l 289 -114 q 212 -222 247 -179 q 135 -287 176 -265 q 33 -308 93 -308 z "},"z":{"ha":833,"x_min":61,"x_max":725,"o":"m 61 0 l 64 25 l 661 628 l 172 628 l 181 664 l 725 664 l 722 639 l 125 36 l 644 36 l 636 0 l 61 0 z "},"À":{"ha":833,"x_min":-11,"x_max":678,"o":"m -11 0 l 508 917 l 550 917 l 678 0 l 636 0 l 564 550 q 544 711 554 628 q 524 871 535 794 l 517 871 q 430 713 471 789 q 344 556 389 638 l 33 0 l -11 0 m 208 331 l 219 367 l 608 367 l 607 331 l 208 331 m 558 981 l 406 1150 l 439 1178 l 581 1000 l 558 981 z "},"Á":{"ha":833,"x_min":-11,"x_max":719,"o":"m -11 0 l 508 917 l 550 917 l 678 0 l 636 0 l 564 550 q 544 711 554 628 q 524 871 535 794 l 517 871 q 430 713 471 789 q 344 556 389 638 l 33 0 l -11 0 m 208 331 l 219 367 l 608 367 l 607 331 l 208 331 m 517 994 l 500 1017 l 694 1169 l 719 1133 l 517 994 z "},"Â":{"ha":833,"x_min":-11,"x_max":711,"o":"m -11 0 l 508 917 l 550 917 l 678 0 l 636 0 l 564 550 q 544 711 554 628 q 524 871 535 794 l 517 871 q 430 713 471 789 q 344 556 389 638 l 33 0 l -11 0 m 208 331 l 219 367 l 608 367 l 607 331 l 208 331 m 369 986 l 350 1008 l 539 1167 l 578 1167 l 711 1008 l 689 989 l 558 1128 l 553 1128 l 369 986 z "},"Ã":{"ha":833,"x_min":-11,"x_max":775,"o":"m -11 0 l 508 917 l 550 917 l 678 0 l 636 0 l 564 550 q 544 711 554 628 q 524 871 535 794 l 517 871 q 430 713 471 789 q 344 556 389 638 l 33 0 l -11 0 m 208 331 l 219 367 l 608 367 l 607 331 l 208 331 m 636 1003 q 578 1020 601 1003 q 536 1061 554 1038 q 498 1102 518 1085 q 450 1119 478 1119 q 392 1088 418 1119 q 350 1006 365 1057 l 319 1008 q 367 1113 331 1071 q 458 1156 404 1156 q 517 1138 494 1156 q 558 1097 540 1121 q 596 1056 576 1074 q 644 1039 615 1039 q 702 1070 676 1039 q 744 1153 728 1101 l 775 1150 q 728 1045 765 1088 q 636 1003 690 1003 z "},"Ä":{"ha":833,"x_min":-11,"x_max":697,"o":"m -11 0 l 508 917 l 550 917 l 678 0 l 636 0 l 564 550 q 544 711 554 628 q 524 871 535 794 l 517 871 q 430 713 471 789 q 344 556 389 638 l 33 0 l -11 0 m 208 331 l 219 367 l 608 367 l 607 331 l 208 331 m 422 1008 q 396 1018 406 1008 q 386 1044 386 1028 q 400 1083 386 1068 q 431 1097 414 1097 q 457 1088 447 1097 q 467 1058 467 1078 q 453 1023 467 1038 q 422 1008 439 1008 m 653 1008 q 626 1018 636 1008 q 617 1044 617 1028 q 631 1083 617 1068 q 661 1097 644 1097 q 688 1088 678 1097 q 697 1058 697 1078 q 683 1023 697 1038 q 653 1008 669 1008 z "},"Ā":{"ha":833,"x_min":-11,"x_max":703,"o":"m -11 0 l 508 917 l 550 917 l 678 0 l 636 0 l 564 550 q 544 711 554 628 q 524 871 535 794 l 517 871 q 430 713 471 789 q 344 556 389 638 l 33 0 l -11 0 m 208 331 l 219 367 l 608 367 l 607 331 l 208 331 m 375 1022 l 383 1058 l 703 1058 l 694 1022 l 375 1022 z "},"Ă":{"ha":833,"x_min":-11,"x_max":742,"o":"m -11 0 l 508 917 l 550 917 l 678 0 l 636 0 l 564 550 q 544 711 554 628 q 524 871 535 794 l 517 871 q 430 713 471 789 q 344 556 389 638 l 33 0 l -11 0 m 208 331 l 219 367 l 608 367 l 607 331 l 208 331 m 525 989 q 433 1015 467 989 q 386 1081 399 1042 q 375 1158 374 1121 l 411 1164 q 436 1067 408 1110 q 533 1025 464 1025 q 645 1067 603 1025 q 706 1164 688 1110 l 742 1158 q 703 1081 731 1121 q 631 1015 675 1042 q 525 989 588 989 z "},"Å":{"ha":833,"x_min":-11,"x_max":678,"o":"m -11 0 l 508 917 l 550 917 l 678 0 l 636 0 l 564 550 q 544 711 554 628 q 524 871 535 794 l 517 871 q 430 713 471 789 q 344 556 389 638 l 33 0 l -11 0 m 208 331 l 219 367 l 608 367 l 607 331 l 208 331 m 536 975 q 467 1001 497 975 q 436 1078 436 1026 q 453 1141 436 1113 q 499 1186 469 1169 q 564 1203 528 1203 q 634 1178 604 1203 q 664 1100 664 1153 q 647 1037 664 1065 q 601 992 631 1008 q 536 975 572 975 m 539 1006 q 603 1032 575 1006 q 631 1097 631 1058 q 613 1153 631 1133 q 561 1172 594 1172 q 497 1147 525 1172 q 469 1081 469 1121 q 488 1026 469 1046 q 539 1006 507 1006 z "},"Ǻ":{"ha":833,"x_min":-11,"x_max":706,"o":"m 519 1164 l 500 1186 l 686 1294 l 706 1261 l 519 1164 m -11 0 l 508 917 l 550 917 l 678 0 l 636 0 l 564 550 q 544 711 554 628 q 524 871 535 794 l 517 871 q 430 713 471 789 q 344 556 389 638 l 33 0 l -11 0 m 208 331 l 219 367 l 608 367 l 607 331 l 208 331 m 536 975 q 467 1001 497 975 q 436 1078 436 1026 q 453 1141 436 1113 q 499 1186 469 1169 q 564 1203 528 1203 q 634 1178 604 1203 q 664 1100 664 1153 q 647 1037 664 1065 q 601 992 631 1008 q 536 975 572 975 m 539 1006 q 603 1032 575 1006 q 631 1097 631 1058 q 613 1153 631 1133 q 561 1172 594 1172 q 497 1147 525 1172 q 469 1081 469 1121 q 488 1026 469 1046 q 539 1006 507 1006 z "},"Ǎ":{"ha":833,"x_min":-11,"x_max":742,"o":"m -11 0 l 508 917 l 550 917 l 678 0 l 636 0 l 564 550 q 544 711 554 628 q 524 871 535 794 l 517 871 q 430 713 471 789 q 344 556 389 638 l 33 0 l -11 0 m 208 331 l 219 367 l 608 367 l 607 331 l 208 331 m 514 986 l 381 1144 l 403 1164 l 533 1025 l 539 1025 l 722 1167 l 742 1144 l 553 986 l 514 986 z "},"Ą":{"ha":833,"x_min":-11,"x_max":700,"o":"m 597 -311 q 515 -288 553 -311 q 478 -211 478 -265 q 501 -127 478 -167 q 562 -56 525 -87 q 639 0 599 -24 l 636 0 l 564 550 q 544 711 554 628 q 524 871 535 794 l 517 871 q 430 713 471 789 q 344 556 389 638 l 33 0 l -11 0 l 508 917 l 550 917 l 678 0 q 599 -61 636 -28 q 540 -130 563 -94 q 517 -200 517 -165 q 542 -257 517 -239 q 606 -275 568 -275 q 648 -267 629 -275 q 683 -247 667 -260 l 700 -272 q 656 -300 682 -289 q 597 -311 631 -311 m 208 331 l 219 367 l 608 367 l 607 331 l 208 331 z "},"Ạ":{"ha":833,"x_min":-11,"x_max":678,"o":"m -11 0 l 508 917 l 550 917 l 678 0 l 636 0 l 564 550 q 544 711 554 628 q 524 871 535 794 l 517 871 q 430 713 471 789 q 344 556 389 638 l 33 0 l -11 0 m 208 331 l 219 367 l 608 367 l 607 331 l 208 331 z "},"Ả":{"ha":833,"x_min":-11,"x_max":678,"o":"m -11 0 l 508 917 l 550 917 l 678 0 l 636 0 l 564 550 q 544 711 554 628 q 524 871 535 794 l 517 871 q 430 713 471 789 q 344 556 389 638 l 33 0 l -11 0 m 208 331 l 219 367 l 608 367 l 607 331 l 208 331 m 472 978 l 467 1008 q 538 1040 508 1021 q 572 1089 568 1058 q 550 1140 579 1122 q 467 1158 521 1157 l 475 1194 q 550 1183 515 1193 q 603 1151 585 1172 q 617 1094 622 1129 q 564 1018 607 1043 q 472 978 521 993 z "},"Ấ":{"ha":833,"x_min":-11,"x_max":836,"o":"m -11 0 l 508 917 l 550 917 l 678 0 l 636 0 l 564 550 q 544 711 554 628 q 524 871 535 794 l 517 871 q 430 713 471 789 q 344 556 389 638 l 33 0 l -11 0 m 208 331 l 219 367 l 608 367 l 607 331 l 208 331 m 394 986 l 378 1008 l 533 1122 l 572 1122 l 683 1006 l 661 986 l 553 1081 l 547 1081 l 394 986 m 675 1072 l 656 1097 l 811 1219 l 836 1186 l 675 1072 z "},"Ầ":{"ha":833,"x_min":-11,"x_max":683,"o":"m -11 0 l 508 917 l 550 917 l 678 0 l 636 0 l 564 550 q 544 711 554 628 q 524 871 535 794 l 517 871 q 430 713 471 789 q 344 556 389 638 l 33 0 l -11 0 m 208 331 l 219 367 l 608 367 l 607 331 l 208 331 m 394 986 l 378 1008 l 533 1122 l 572 1122 l 683 1006 l 661 986 l 553 1081 l 547 1081 l 394 986 m 439 1089 l 321 1203 l 353 1229 l 464 1108 l 439 1089 z "},"Ẩ":{"ha":833,"x_min":-11,"x_max":797,"o":"m -11 0 l 508 917 l 550 917 l 678 0 l 636 0 l 564 550 q 544 711 554 628 q 524 871 535 794 l 517 871 q 430 713 471 789 q 344 556 389 638 l 33 0 l -11 0 m 208 331 l 219 367 l 608 367 l 607 331 l 208 331 m 394 986 l 378 1008 l 533 1122 l 572 1122 l 683 1006 l 661 986 l 553 1081 l 547 1081 l 394 986 m 674 1056 l 665 1086 q 723 1108 699 1094 q 751 1147 747 1122 q 734 1196 758 1182 q 660 1211 710 1210 l 665 1244 q 733 1234 703 1243 q 781 1206 764 1225 q 790 1153 797 1186 q 747 1088 785 1108 q 674 1056 710 1067 z "},"Ẫ":{"ha":833,"x_min":-11,"x_max":769,"o":"m -11 0 l 508 917 l 550 917 l 678 0 l 636 0 l 564 550 q 544 711 554 628 q 524 871 535 794 l 517 871 q 430 713 471 789 q 344 556 389 638 l 33 0 l -11 0 m 208 331 l 219 367 l 608 367 l 607 331 l 208 331 m 394 986 l 378 1008 l 533 1122 l 572 1122 l 683 1006 l 661 986 l 553 1081 l 547 1081 l 394 986 m 656 1167 q 596 1178 619 1167 q 554 1204 572 1189 q 518 1231 536 1219 q 472 1242 500 1242 q 427 1222 443 1242 q 400 1169 411 1201 l 369 1172 q 385 1219 374 1194 q 420 1260 397 1243 q 481 1278 443 1278 q 540 1267 517 1278 q 582 1240 564 1256 q 619 1214 600 1225 q 664 1203 638 1203 q 710 1223 693 1203 q 736 1275 726 1243 l 769 1272 q 751 1226 764 1250 q 716 1184 739 1201 q 656 1167 693 1167 z "},"Ậ":{"ha":833,"x_min":-11,"x_max":711,"o":"m -11 0 l 508 917 l 550 917 l 678 0 l 636 0 l 564 550 q 544 711 554 628 q 524 871 535 794 l 517 871 q 430 713 471 789 q 344 556 389 638 l 33 0 l -11 0 m 208 331 l 219 367 l 608 367 l 607 331 l 208 331 m 369 986 l 350 1008 l 539 1167 l 578 1167 l 711 1008 l 689 989 l 558 1128 l 553 1128 l 369 986 z "},"Ắ":{"ha":833,"x_min":-11,"x_max":742,"o":"m -11 0 l 508 917 l 550 917 l 678 0 l 636 0 l 564 550 q 544 711 554 628 q 524 871 535 794 l 517 871 q 430 713 471 789 q 344 556 389 638 l 33 0 l -11 0 m 208 331 l 219 367 l 608 367 l 607 331 l 208 331 m 525 989 q 433 1015 467 989 q 386 1081 399 1042 q 375 1158 374 1121 l 411 1164 q 436 1067 408 1110 q 533 1025 464 1025 q 645 1067 603 1025 q 706 1164 688 1110 l 742 1158 q 703 1081 731 1121 q 631 1015 675 1042 q 525 989 588 989 m 544 1147 l 525 1169 l 681 1294 l 706 1264 l 544 1147 z "},"Ằ":{"ha":833,"x_min":-11,"x_max":742,"o":"m -11 0 l 508 917 l 550 917 l 678 0 l 636 0 l 564 550 q 544 711 554 628 q 524 871 535 794 l 517 871 q 430 713 471 789 q 344 556 389 638 l 33 0 l -11 0 m 208 331 l 219 367 l 608 367 l 607 331 l 208 331 m 525 989 q 433 1015 467 989 q 386 1081 399 1042 q 375 1158 374 1121 l 411 1164 q 436 1067 408 1110 q 533 1025 464 1025 q 645 1067 603 1025 q 706 1164 688 1110 l 742 1158 q 703 1081 731 1121 q 631 1015 675 1042 q 525 989 588 989 m 578 1138 l 461 1279 l 492 1303 l 597 1154 l 578 1138 z "},"Ẳ":{"ha":833,"x_min":-11,"x_max":742,"o":"m -11 0 l 508 917 l 550 917 l 678 0 l 636 0 l 564 550 q 544 711 554 628 q 524 871 535 794 l 517 871 q 430 713 471 789 q 344 556 389 638 l 33 0 l -11 0 m 208 331 l 219 367 l 608 367 l 607 331 l 208 331 m 525 989 q 433 1015 467 989 q 386 1081 399 1042 q 375 1158 374 1121 l 411 1164 q 436 1067 408 1110 q 533 1025 464 1025 q 645 1067 603 1025 q 706 1164 688 1110 l 742 1158 q 703 1081 731 1121 q 631 1015 675 1042 q 525 989 588 989 m 528 1106 l 519 1139 q 577 1161 553 1147 q 607 1200 601 1175 q 590 1247 614 1233 q 517 1261 565 1260 l 529 1297 q 595 1287 565 1296 q 641 1258 625 1278 q 650 1206 657 1239 q 603 1138 640 1160 q 528 1106 565 1117 z "},"Ẵ":{"ha":833,"x_min":-11,"x_max":774,"o":"m -11 0 l 508 917 l 550 917 l 678 0 l 636 0 l 564 550 q 544 711 554 628 q 524 871 535 794 l 517 871 q 430 713 471 789 q 344 556 389 638 l 33 0 l -11 0 m 208 331 l 219 367 l 608 367 l 607 331 l 208 331 m 528 989 q 433 1011 468 989 q 385 1066 399 1033 q 372 1131 371 1099 l 408 1136 q 436 1059 407 1093 q 535 1025 465 1025 q 647 1059 604 1025 q 703 1136 689 1093 l 739 1131 q 702 1066 729 1099 q 632 1011 675 1033 q 528 989 589 989 m 660 1167 q 600 1178 624 1167 q 558 1204 576 1189 q 522 1231 540 1219 q 476 1242 504 1242 q 431 1222 447 1242 q 404 1169 415 1201 l 371 1172 q 390 1219 378 1194 q 426 1260 403 1243 q 486 1278 449 1278 q 546 1267 522 1278 q 588 1240 569 1256 q 624 1214 606 1225 q 669 1203 643 1203 q 715 1223 699 1203 q 742 1275 732 1243 l 774 1272 q 756 1226 768 1250 q 720 1184 743 1201 q 660 1167 697 1167 z "},"Ặ":{"ha":833,"x_min":-11,"x_max":742,"o":"m -11 0 l 508 917 l 550 917 l 678 0 l 636 0 l 564 550 q 544 711 554 628 q 524 871 535 794 l 517 871 q 430 713 471 789 q 344 556 389 638 l 33 0 l -11 0 m 208 331 l 219 367 l 608 367 l 607 331 l 208 331 m 525 989 q 433 1015 467 989 q 386 1081 399 1042 q 375 1158 374 1121 l 411 1164 q 436 1067 408 1110 q 533 1025 464 1025 q 645 1067 603 1025 q 706 1164 688 1110 l 742 1158 q 703 1081 731 1121 q 631 1015 675 1042 q 525 989 588 989 z "},"Æ":{"ha":833,"x_min":-82,"x_max":904,"o":"m -82 0 l 524 917 l 904 917 l 897 882 l 583 882 l 508 507 l 758 507 l 751 472 l 501 472 l 415 36 l 742 36 l 735 0 l 368 0 l 543 878 l 535 878 q 430 716 483 797 q 321 549 376 635 l -36 0 l -82 0 m 161 317 l 169 353 l 471 353 l 464 317 l 161 317 z "},"Ǽ":{"ha":833,"x_min":-82,"x_max":904,"o":"m -82 0 l 524 917 l 904 917 l 897 882 l 583 882 l 508 507 l 758 507 l 751 472 l 501 472 l 415 36 l 742 36 l 735 0 l 368 0 l 543 878 l 535 878 q 430 716 483 797 q 321 549 376 635 l -36 0 l -82 0 m 161 317 l 169 353 l 471 353 l 464 317 l 161 317 m 692 994 l 675 1017 l 869 1169 l 894 1133 l 692 994 z "},"Ǣ":{"ha":833,"x_min":-82,"x_max":904,"o":"m -82 0 l 524 917 l 904 917 l 897 882 l 583 882 l 508 507 l 758 507 l 751 472 l 501 472 l 415 36 l 742 36 l 735 0 l 368 0 l 543 878 l 535 878 q 430 716 483 797 q 321 549 376 635 l -36 0 l -82 0 m 161 317 l 169 353 l 471 353 l 464 317 l 161 317 m 550 1022 l 558 1058 l 878 1058 l 869 1022 l 550 1022 z "},"Ƀ":{"ha":833,"x_min":28,"x_max":753,"o":"m 89 0 l 272 917 l 489 917 q 638 893 579 917 q 724 825 696 869 q 753 719 753 781 q 719 601 753 650 q 636 524 685 551 q 544 489 588 496 l 544 483 q 629 449 589 474 q 694 385 669 425 q 719 286 719 344 q 674 126 719 189 q 545 31 628 63 q 353 0 463 0 l 89 0 m 28 247 l 36 279 l 147 285 l 428 285 l 422 247 l 28 247 m 136 36 l 328 36 q 511 60 432 36 q 634 139 590 85 q 678 282 678 193 q 610 416 678 363 q 419 469 543 469 l 225 469 l 136 36 m 231 506 l 394 506 q 632 565 553 506 q 711 717 711 625 q 657 838 711 794 q 467 881 603 881 l 306 881 l 231 506 z "},"Ḇ":{"ha":833,"x_min":75,"x_max":739,"o":"m 75 0 l 258 917 l 475 917 q 624 893 565 917 q 710 825 682 869 q 739 719 739 781 q 705 601 739 650 q 622 524 671 551 q 531 489 574 496 l 531 483 q 615 449 575 474 q 681 385 656 425 q 706 286 706 344 q 660 126 706 189 q 531 31 614 63 q 339 0 449 0 l 75 0 m 217 506 l 381 506 q 618 565 539 506 q 697 717 697 625 q 643 838 697 794 q 453 881 589 881 l 292 881 l 217 506 m 122 36 l 314 36 q 497 60 418 36 q 620 139 576 85 q 664 282 664 193 q 597 416 664 363 q 406 469 529 469 l 211 469 l 122 36 z "},"Ç":{"ha":833,"x_min":117,"x_max":789,"o":"m 422 -17 q 251 31 319 -17 q 150 159 183 78 q 117 342 117 240 q 137 506 117 422 q 195 665 157 589 q 290 802 233 742 q 418 898 346 863 q 578 933 490 933 q 707 896 656 933 q 789 806 758 858 l 756 783 q 685 865 729 833 q 575 897 640 897 q 429 864 494 897 q 313 773 364 831 q 228 644 263 715 q 176 497 193 574 q 158 350 158 421 q 186 182 158 257 q 273 63 214 107 q 425 19 332 19 q 544 44 490 19 q 650 111 599 68 l 675 83 q 597 29 636 51 q 515 -5 558 7 q 422 -17 472 -17 m 228 -300 l 225 -267 q 354 -241 311 -264 q 397 -183 397 -218 q 374 -137 397 -151 q 303 -119 350 -124 l 383 6 l 422 6 l 361 -94 q 424 -125 410 -107 q 439 -172 439 -143 q 381 -265 439 -232 q 228 -300 322 -297 z "},"Ć":{"ha":833,"x_min":117,"x_max":789,"o":"m 422 -17 q 251 31 319 -17 q 150 159 183 78 q 117 342 117 240 q 137 506 117 422 q 195 665 157 589 q 290 802 233 742 q 418 898 346 863 q 578 933 490 933 q 707 896 656 933 q 789 806 758 858 l 756 783 q 685 865 729 833 q 575 897 640 897 q 429 864 494 897 q 313 773 364 831 q 228 644 263 715 q 176 497 193 574 q 158 350 158 421 q 186 182 158 257 q 273 63 214 107 q 425 19 332 19 q 544 44 490 19 q 650 111 599 68 l 675 83 q 597 29 636 51 q 515 -5 558 7 q 422 -17 472 -17 m 553 994 l 536 1017 l 731 1169 l 756 1133 l 553 994 z "},"Ĉ":{"ha":833,"x_min":117,"x_max":789,"o":"m 422 -17 q 251 31 319 -17 q 150 159 183 78 q 117 342 117 240 q 137 506 117 422 q 195 665 157 589 q 290 802 233 742 q 418 898 346 863 q 578 933 490 933 q 707 896 656 933 q 789 806 758 858 l 756 783 q 685 865 729 833 q 575 897 640 897 q 429 864 494 897 q 313 773 364 831 q 228 644 263 715 q 176 497 193 574 q 158 350 158 421 q 186 182 158 257 q 273 63 214 107 q 425 19 332 19 q 544 44 490 19 q 650 111 599 68 l 675 83 q 597 29 636 51 q 515 -5 558 7 q 422 -17 472 -17 m 406 986 l 386 1008 l 575 1167 l 614 1167 l 747 1008 l 725 989 l 594 1128 l 589 1128 l 406 986 z "},"Č":{"ha":833,"x_min":117,"x_max":789,"o":"m 422 -17 q 251 31 319 -17 q 150 159 183 78 q 117 342 117 240 q 137 506 117 422 q 195 665 157 589 q 290 802 233 742 q 418 898 346 863 q 578 933 490 933 q 707 896 656 933 q 789 806 758 858 l 756 783 q 685 865 729 833 q 575 897 640 897 q 429 864 494 897 q 313 773 364 831 q 228 644 263 715 q 176 497 193 574 q 158 350 158 421 q 186 182 158 257 q 273 63 214 107 q 425 19 332 19 q 544 44 490 19 q 650 111 599 68 l 675 83 q 597 29 636 51 q 515 -5 558 7 q 422 -17 472 -17 m 550 986 l 417 1144 l 439 1164 l 569 1025 l 575 1025 l 758 1167 l 778 1144 l 589 986 l 550 986 z "},"Ċ":{"ha":833,"x_min":117,"x_max":789,"o":"m 422 -17 q 251 31 319 -17 q 150 159 183 78 q 117 342 117 240 q 137 506 117 422 q 195 665 157 589 q 290 802 233 742 q 418 898 346 863 q 578 933 490 933 q 707 896 656 933 q 789 806 758 858 l 756 783 q 685 865 729 833 q 575 897 640 897 q 429 864 494 897 q 313 773 364 831 q 228 644 263 715 q 176 497 193 574 q 158 350 158 421 q 186 182 158 257 q 273 63 214 107 q 425 19 332 19 q 544 44 490 19 q 650 111 599 68 l 675 83 q 597 29 636 51 q 515 -5 558 7 q 422 -17 472 -17 m 572 1008 q 544 1019 556 1008 q 533 1047 533 1031 q 549 1088 533 1072 q 583 1103 565 1103 q 611 1092 600 1103 q 622 1061 622 1081 q 607 1024 622 1039 q 572 1008 592 1008 z "},"Ď":{"ha":833,"x_min":42,"x_max":764,"o":"m 42 0 l 225 917 l 389 917 q 672 819 579 917 q 764 561 764 722 q 732 342 764 444 q 637 164 700 240 q 479 44 574 88 q 258 0 385 0 l 42 0 m 89 36 l 261 36 q 514 106 411 36 q 669 294 617 175 q 722 558 722 413 q 640 792 722 703 q 386 881 557 881 l 258 881 l 89 36 m 494 986 l 361 1144 l 383 1164 l 514 1025 l 519 1025 l 703 1167 l 722 1144 l 533 986 l 494 986 z "},"Ḍ":{"ha":833,"x_min":42,"x_max":764,"o":"m 42 0 l 225 917 l 389 917 q 672 819 579 917 q 764 561 764 722 q 732 342 764 444 q 637 164 700 240 q 479 44 574 88 q 258 0 385 0 l 42 0 m 89 36 l 261 36 q 514 106 411 36 q 669 294 617 175 q 722 558 722 413 q 640 792 722 703 q 386 881 557 881 l 258 881 l 89 36 z "},"Ḏ":{"ha":833,"x_min":42,"x_max":764,"o":"m 42 0 l 225 917 l 389 917 q 672 819 579 917 q 764 561 764 722 q 732 342 764 444 q 637 164 700 240 q 479 44 574 88 q 258 0 385 0 l 42 0 m 89 36 l 261 36 q 514 106 411 36 q 669 294 617 175 q 722 558 722 413 q 640 792 722 703 q 386 881 557 881 l 258 881 l 89 36 z "},"Ḑ":{"ha":833,"x_min":42,"x_max":764,"o":"m 42 0 l 225 917 l 389 917 q 672 819 579 917 q 764 561 764 722 q 732 342 764 444 q 637 164 700 240 q 479 44 574 88 q 258 0 385 0 l 42 0 m 89 36 l 261 36 q 514 106 411 36 q 669 294 617 175 q 722 558 722 413 q 640 792 722 703 q 386 881 557 881 l 258 881 l 89 36 m 131 -300 l 128 -267 q 257 -241 214 -264 q 300 -183 300 -218 q 276 -137 300 -151 q 206 -119 253 -124 l 286 6 l 325 6 l 264 -94 q 327 -125 313 -107 q 342 -172 342 -143 q 283 -265 342 -232 q 131 -300 225 -297 z "},"Đ":{"ha":833,"x_min":25,"x_max":764,"o":"m 414 469 l 25 469 l 33 503 l 144 506 l 422 506 l 414 469 m 42 0 l 225 917 l 389 917 q 672 819 579 917 q 764 561 764 722 q 732 342 764 444 q 637 164 700 240 q 479 44 574 88 q 258 0 385 0 l 42 0 m 89 36 l 261 36 q 514 106 411 36 q 669 294 617 175 q 722 558 722 413 q 640 792 722 703 q 386 881 557 881 l 258 881 l 89 36 z "},"Ɗ":{"ha":833,"x_min":83,"x_max":794,"o":"m 231 0 l 411 900 l 450 900 l 278 36 l 292 36 q 490 76 404 36 q 635 188 576 117 q 723 353 693 258 q 753 558 753 449 q 677 804 753 711 q 444 897 601 897 l 442 897 q 314 868 372 897 q 213 790 256 839 q 146 683 169 742 q 122 564 122 624 q 211 408 122 457 l 189 375 q 113 446 142 399 q 83 561 83 493 q 109 694 83 628 q 183 814 135 760 q 299 901 231 868 q 451 933 367 933 q 710 832 625 933 q 794 561 794 731 q 763 342 794 444 q 667 164 731 240 q 510 44 604 88 q 289 0 415 0 l 231 0 z "},"È":{"ha":833,"x_min":108,"x_max":828,"o":"m 108 0 l 292 917 l 828 917 l 819 881 l 325 881 l 250 506 l 664 506 l 656 469 l 244 469 l 156 36 l 664 36 l 656 0 l 108 0 m 619 981 l 467 1150 l 500 1178 l 642 1000 l 619 981 z "},"É":{"ha":833,"x_min":108,"x_max":828,"o":"m 108 0 l 292 917 l 828 917 l 819 881 l 325 881 l 250 506 l 664 506 l 656 469 l 244 469 l 156 36 l 664 36 l 656 0 l 108 0 m 578 994 l 561 1017 l 756 1169 l 781 1133 l 578 994 z "},"Ê":{"ha":833,"x_min":108,"x_max":828,"o":"m 108 0 l 292 917 l 828 917 l 819 881 l 325 881 l 250 506 l 664 506 l 656 469 l 244 469 l 156 36 l 664 36 l 656 0 l 108 0 m 431 986 l 411 1008 l 600 1167 l 639 1167 l 772 1008 l 750 989 l 619 1128 l 614 1128 l 431 986 z "},"Ě":{"ha":833,"x_min":108,"x_max":828,"o":"m 108 0 l 292 917 l 828 917 l 819 881 l 325 881 l 250 506 l 664 506 l 656 469 l 244 469 l 156 36 l 664 36 l 656 0 l 108 0 m 575 986 l 442 1144 l 464 1164 l 594 1025 l 600 1025 l 783 1167 l 803 1144 l 614 986 l 575 986 z "},"Ë":{"ha":833,"x_min":108,"x_max":828,"o":"m 108 0 l 292 917 l 828 917 l 819 881 l 325 881 l 250 506 l 664 506 l 656 469 l 244 469 l 156 36 l 664 36 l 656 0 l 108 0 m 483 1008 q 457 1018 467 1008 q 447 1044 447 1028 q 461 1083 447 1068 q 492 1097 475 1097 q 518 1088 508 1097 q 528 1058 528 1078 q 514 1023 528 1038 q 483 1008 500 1008 m 714 1008 q 688 1018 697 1008 q 678 1044 678 1028 q 692 1083 678 1068 q 722 1097 706 1097 q 749 1088 739 1097 q 758 1058 758 1078 q 744 1023 758 1038 q 714 1008 731 1008 z "},"Ē":{"ha":833,"x_min":108,"x_max":828,"o":"m 108 0 l 292 917 l 828 917 l 819 881 l 325 881 l 250 506 l 664 506 l 656 469 l 244 469 l 156 36 l 664 36 l 656 0 l 108 0 m 436 1022 l 444 1058 l 764 1058 l 756 1022 l 436 1022 z "},"Ĕ":{"ha":833,"x_min":108,"x_max":828,"o":"m 108 0 l 292 917 l 828 917 l 819 881 l 325 881 l 250 506 l 664 506 l 656 469 l 244 469 l 156 36 l 664 36 l 656 0 l 108 0 m 586 989 q 494 1015 528 989 q 447 1081 460 1042 q 436 1158 435 1121 l 472 1164 q 497 1067 469 1110 q 594 1025 525 1025 q 706 1067 664 1025 q 767 1164 749 1110 l 803 1158 q 764 1081 792 1121 q 692 1015 736 1042 q 586 989 649 989 z "},"Ė":{"ha":833,"x_min":108,"x_max":828,"o":"m 108 0 l 292 917 l 828 917 l 819 881 l 325 881 l 250 506 l 664 506 l 656 469 l 244 469 l 156 36 l 664 36 l 656 0 l 108 0 m 597 1008 q 569 1019 581 1008 q 558 1047 558 1031 q 574 1088 558 1072 q 608 1103 590 1103 q 636 1092 625 1103 q 647 1061 647 1081 q 632 1024 647 1039 q 597 1008 617 1008 z "},"Ę":{"ha":833,"x_min":108,"x_max":828,"o":"m 531 -311 q 449 -288 486 -311 q 411 -211 411 -265 q 433 -127 411 -167 q 492 -55 456 -87 q 569 0 528 -22 l 108 0 l 292 917 l 828 917 l 819 881 l 325 881 l 250 506 l 664 506 l 656 469 l 244 469 l 156 36 l 664 36 l 656 0 l 653 0 q 592 -18 626 0 q 526 -66 558 -36 q 472 -131 493 -96 q 450 -200 450 -167 q 476 -257 450 -239 q 539 -275 501 -275 q 581 -267 563 -275 q 617 -247 600 -260 l 633 -272 q 590 -300 615 -289 q 531 -311 564 -311 z "},"Ẹ":{"ha":833,"x_min":108,"x_max":828,"o":"m 108 0 l 292 917 l 828 917 l 819 881 l 325 881 l 250 506 l 664 506 l 656 469 l 244 469 l 156 36 l 664 36 l 656 0 l 108 0 z "},"Ẻ":{"ha":833,"x_min":108,"x_max":828,"o":"m 108 0 l 292 917 l 828 917 l 819 881 l 325 881 l 250 506 l 664 506 l 656 469 l 244 469 l 156 36 l 664 36 l 656 0 l 108 0 m 533 978 l 528 1008 q 599 1040 569 1021 q 633 1089 629 1058 q 611 1140 640 1122 q 528 1158 582 1157 l 536 1194 q 611 1183 576 1193 q 665 1151 646 1172 q 678 1094 683 1129 q 625 1018 668 1043 q 533 978 582 993 z "},"Ẽ":{"ha":833,"x_min":108,"x_max":836,"o":"m 108 0 l 292 917 l 828 917 l 819 881 l 325 881 l 250 506 l 664 506 l 656 469 l 244 469 l 156 36 l 664 36 l 656 0 l 108 0 m 697 1003 q 639 1020 663 1003 q 597 1061 615 1038 q 559 1102 579 1085 q 511 1119 539 1119 q 453 1088 479 1119 q 411 1006 426 1057 l 381 1008 q 428 1113 392 1071 q 519 1156 465 1156 q 578 1138 556 1156 q 619 1097 601 1121 q 657 1056 638 1074 q 706 1039 676 1039 q 763 1070 738 1039 q 806 1153 789 1101 l 836 1150 q 789 1045 826 1088 q 697 1003 751 1003 z "},"Ế":{"ha":833,"x_min":108,"x_max":897,"o":"m 108 0 l 292 917 l 828 917 l 819 881 l 325 881 l 250 506 l 664 506 l 656 469 l 244 469 l 156 36 l 664 36 l 656 0 l 108 0 m 456 986 l 439 1008 l 594 1122 l 633 1122 l 744 1006 l 722 986 l 614 1081 l 608 1081 l 456 986 m 736 1072 l 717 1097 l 872 1219 l 897 1186 l 736 1072 z "},"Ề":{"ha":833,"x_min":108,"x_max":828,"o":"m 108 0 l 292 917 l 828 917 l 819 881 l 325 881 l 250 506 l 664 506 l 656 469 l 244 469 l 156 36 l 664 36 l 656 0 l 108 0 m 456 986 l 439 1008 l 594 1122 l 633 1122 l 744 1006 l 722 986 l 614 1081 l 608 1081 l 456 986 m 500 1089 l 382 1203 l 414 1229 l 525 1108 l 500 1089 z "},"Ể":{"ha":833,"x_min":108,"x_max":858,"o":"m 108 0 l 292 917 l 828 917 l 819 881 l 325 881 l 250 506 l 664 506 l 656 469 l 244 469 l 156 36 l 664 36 l 656 0 l 108 0 m 456 986 l 439 1008 l 594 1122 l 633 1122 l 744 1006 l 722 986 l 614 1081 l 608 1081 l 456 986 m 735 1056 l 726 1086 q 784 1108 760 1094 q 813 1147 808 1122 q 795 1196 819 1182 q 721 1211 771 1210 l 726 1244 q 794 1234 764 1243 q 842 1206 825 1225 q 851 1153 858 1186 q 808 1088 846 1108 q 735 1056 771 1067 z "},"Ễ":{"ha":833,"x_min":108,"x_max":831,"o":"m 108 0 l 292 917 l 828 917 l 819 881 l 325 881 l 250 506 l 664 506 l 656 469 l 244 469 l 156 36 l 664 36 l 656 0 l 108 0 m 456 986 l 439 1008 l 594 1122 l 633 1122 l 744 1006 l 722 986 l 614 1081 l 608 1081 l 456 986 m 717 1167 q 657 1178 681 1167 q 615 1204 633 1189 q 579 1231 597 1219 q 533 1242 561 1242 q 488 1222 504 1242 q 461 1169 472 1201 l 431 1172 q 447 1219 435 1194 q 481 1260 458 1243 q 542 1278 504 1278 q 601 1267 578 1278 q 643 1240 625 1256 q 680 1214 661 1225 q 725 1203 699 1203 q 771 1223 754 1203 q 797 1275 788 1243 l 831 1272 q 813 1226 825 1250 q 777 1184 800 1201 q 717 1167 754 1167 z "},"Ệ":{"ha":833,"x_min":108,"x_max":828,"o":"m 108 0 l 292 917 l 828 917 l 819 881 l 325 881 l 250 506 l 664 506 l 656 469 l 244 469 l 156 36 l 664 36 l 656 0 l 108 0 m 431 986 l 411 1008 l 600 1167 l 639 1167 l 772 1008 l 750 989 l 619 1128 l 614 1128 l 431 986 z "},"Ḗ":{"ha":833,"x_min":108,"x_max":828,"o":"m 108 0 l 292 917 l 828 917 l 819 881 l 325 881 l 250 506 l 664 506 l 656 469 l 244 469 l 156 36 l 664 36 l 656 0 l 108 0 m 436 1022 l 444 1058 l 764 1058 l 756 1022 l 436 1022 m 606 1147 l 586 1169 l 742 1294 l 767 1264 l 606 1147 z "},"Ǵ":{"ha":833,"x_min":103,"x_max":789,"o":"m 422 -17 q 243 30 314 -17 q 138 157 172 76 q 103 342 103 238 q 133 547 103 443 q 224 739 164 651 q 374 880 285 826 q 578 933 463 933 q 707 894 656 933 q 789 806 758 856 l 756 783 q 685 865 729 832 q 575 897 640 897 q 424 864 492 897 q 303 773 356 831 q 216 644 251 715 q 163 497 181 574 q 144 350 144 421 q 172 185 144 260 q 262 65 200 110 q 425 19 324 19 q 542 42 492 19 q 625 94 592 64 l 686 403 l 467 403 l 475 439 l 736 439 l 661 75 q 555 8 614 33 q 422 -17 496 -17 m 553 994 l 536 1017 l 731 1169 l 756 1133 l 553 994 z "},"Ĝ":{"ha":833,"x_min":103,"x_max":789,"o":"m 422 -17 q 243 30 314 -17 q 138 157 172 76 q 103 342 103 238 q 133 547 103 443 q 224 739 164 651 q 374 880 285 826 q 578 933 463 933 q 707 894 656 933 q 789 806 758 856 l 756 783 q 685 865 729 832 q 575 897 640 897 q 424 864 492 897 q 303 773 356 831 q 216 644 251 715 q 163 497 181 574 q 144 350 144 421 q 172 185 144 260 q 262 65 200 110 q 425 19 324 19 q 542 42 492 19 q 625 94 592 64 l 686 403 l 467 403 l 475 439 l 736 439 l 661 75 q 555 8 614 33 q 422 -17 496 -17 m 406 986 l 386 1008 l 575 1167 l 614 1167 l 747 1008 l 725 989 l 594 1128 l 589 1128 l 406 986 z "},"Ğ":{"ha":833,"x_min":103,"x_max":789,"o":"m 422 -17 q 243 30 314 -17 q 138 157 172 76 q 103 342 103 238 q 133 547 103 443 q 224 739 164 651 q 374 880 285 826 q 578 933 463 933 q 707 894 656 933 q 789 806 758 856 l 756 783 q 685 865 729 832 q 575 897 640 897 q 424 864 492 897 q 303 773 356 831 q 216 644 251 715 q 163 497 181 574 q 144 350 144 421 q 172 185 144 260 q 262 65 200 110 q 425 19 324 19 q 542 42 492 19 q 625 94 592 64 l 686 403 l 467 403 l 475 439 l 736 439 l 661 75 q 555 8 614 33 q 422 -17 496 -17 m 561 989 q 469 1015 503 989 q 422 1081 435 1042 q 411 1158 410 1121 l 447 1164 q 472 1067 444 1110 q 569 1025 500 1025 q 681 1067 639 1025 q 742 1164 724 1110 l 778 1158 q 739 1081 767 1121 q 667 1015 711 1042 q 561 989 624 989 z "},"Ġ":{"ha":833,"x_min":103,"x_max":789,"o":"m 422 -17 q 243 30 314 -17 q 138 157 172 76 q 103 342 103 238 q 133 547 103 443 q 224 739 164 651 q 374 880 285 826 q 578 933 463 933 q 707 894 656 933 q 789 806 758 856 l 756 783 q 685 865 729 832 q 575 897 640 897 q 424 864 492 897 q 303 773 356 831 q 216 644 251 715 q 163 497 181 574 q 144 350 144 421 q 172 185 144 260 q 262 65 200 110 q 425 19 324 19 q 542 42 492 19 q 625 94 592 64 l 686 403 l 467 403 l 475 439 l 736 439 l 661 75 q 555 8 614 33 q 422 -17 496 -17 m 572 1008 q 544 1019 556 1008 q 533 1047 533 1031 q 549 1088 533 1072 q 583 1103 565 1103 q 611 1092 600 1103 q 622 1061 622 1081 q 607 1024 622 1039 q 572 1008 592 1008 z "},"Ģ":{"ha":833,"x_min":103,"x_max":789,"o":"m 422 -17 q 243 30 314 -17 q 138 157 172 76 q 103 342 103 238 q 133 547 103 443 q 224 739 164 651 q 374 880 285 826 q 578 933 463 933 q 707 894 656 933 q 789 806 758 856 l 756 783 q 685 865 729 832 q 575 897 640 897 q 424 864 492 897 q 303 773 356 831 q 216 644 251 715 q 163 497 181 574 q 144 350 144 421 q 172 185 144 260 q 262 65 200 110 q 425 19 324 19 q 542 42 492 19 q 625 94 592 64 l 686 403 l 467 403 l 475 439 l 736 439 l 661 75 q 555 8 614 33 q 422 -17 496 -17 m 256 -300 l 253 -267 q 382 -241 339 -264 q 425 -183 425 -218 q 401 -137 425 -151 q 331 -119 378 -124 l 344 -86 q 421 -104 394 -93 q 457 -131 447 -115 q 467 -172 467 -147 q 440 -240 467 -211 q 366 -283 414 -268 q 256 -300 318 -299 z "},"Ǧ":{"ha":833,"x_min":103,"x_max":789,"o":"m 422 -17 q 243 30 314 -17 q 138 157 172 76 q 103 342 103 238 q 133 547 103 443 q 224 739 164 651 q 374 880 285 826 q 578 933 463 933 q 707 894 656 933 q 789 806 758 856 l 756 783 q 685 865 729 832 q 575 897 640 897 q 424 864 492 897 q 303 773 356 831 q 216 644 251 715 q 163 497 181 574 q 144 350 144 421 q 172 185 144 260 q 262 65 200 110 q 425 19 324 19 q 542 42 492 19 q 625 94 592 64 l 686 403 l 467 403 l 475 439 l 736 439 l 661 75 q 555 8 614 33 q 422 -17 496 -17 m 550 986 l 417 1144 l 439 1164 l 569 1025 l 575 1025 l 758 1167 l 778 1144 l 589 986 l 550 986 z "},"Ḡ":{"ha":833,"x_min":103,"x_max":789,"o":"m 422 -17 q 243 30 314 -17 q 138 157 172 76 q 103 342 103 238 q 133 547 103 443 q 224 739 164 651 q 374 880 285 826 q 578 933 463 933 q 707 894 656 933 q 789 806 758 856 l 756 783 q 685 865 729 832 q 575 897 640 897 q 424 864 492 897 q 303 773 356 831 q 216 644 251 715 q 163 497 181 574 q 144 350 144 421 q 172 185 144 260 q 262 65 200 110 q 425 19 324 19 q 542 42 492 19 q 625 94 592 64 l 686 403 l 467 403 l 475 439 l 736 439 l 661 75 q 555 8 614 33 q 422 -17 496 -17 m 411 1022 l 419 1058 l 739 1058 l 731 1022 l 411 1022 z "},"Ɠ":{"ha":833,"x_min":103,"x_max":897,"o":"m 789 806 l 736 842 q 719 908 724 882 q 714 956 714 935 q 728 1032 714 1000 q 769 1081 743 1064 q 833 1097 796 1097 q 869 1092 854 1097 q 897 1075 883 1086 l 881 1044 q 857 1057 868 1053 q 831 1061 846 1061 q 771 1031 792 1061 q 750 964 750 1001 q 758 885 750 921 q 789 806 767 850 m 422 -17 q 243 30 314 -17 q 138 157 172 76 q 103 342 103 238 q 133 547 103 443 q 224 739 164 651 q 374 880 285 826 q 578 933 463 933 q 707 894 656 933 q 789 806 758 856 l 756 783 q 685 865 729 832 q 575 897 640 897 q 424 864 492 897 q 303 773 356 831 q 216 644 251 715 q 163 497 181 574 q 144 350 144 421 q 172 185 144 260 q 262 65 200 110 q 425 19 324 19 q 542 42 492 19 q 625 94 592 64 l 686 403 l 467 403 l 475 439 l 736 439 l 661 75 q 555 8 614 33 q 422 -17 496 -17 z "},"Ĥ":{"ha":833,"x_min":42,"x_max":803,"o":"m 42 0 l 225 917 l 267 917 l 183 506 l 678 506 l 761 917 l 803 917 l 619 0 l 578 0 l 672 469 l 178 469 l 83 0 l 42 0 m 369 986 l 350 1008 l 539 1167 l 578 1167 l 711 1008 l 689 989 l 558 1128 l 553 1128 l 369 986 z "},"Ḧ":{"ha":833,"x_min":42,"x_max":803,"o":"m 42 0 l 225 917 l 267 917 l 183 506 l 678 506 l 761 917 l 803 917 l 619 0 l 578 0 l 672 469 l 178 469 l 83 0 l 42 0 m 422 1008 q 396 1018 406 1008 q 386 1044 386 1028 q 400 1083 386 1068 q 431 1097 414 1097 q 457 1088 447 1097 q 467 1058 467 1078 q 453 1023 467 1038 q 422 1008 439 1008 m 653 1008 q 626 1018 636 1008 q 617 1044 617 1028 q 631 1083 617 1068 q 661 1097 644 1097 q 688 1088 678 1097 q 697 1058 697 1078 q 683 1023 697 1038 q 653 1008 669 1008 z "},"Ḥ":{"ha":833,"x_min":42,"x_max":803,"o":"m 42 0 l 225 917 l 267 917 l 183 506 l 678 506 l 761 917 l 803 917 l 619 0 l 578 0 l 672 469 l 178 469 l 83 0 l 42 0 z "},"Ḩ":{"ha":833,"x_min":-114,"x_max":803,"o":"m 42 0 l 225 917 l 267 917 l 183 506 l 678 506 l 761 917 l 803 917 l 619 0 l 578 0 l 672 469 l 178 469 l 83 0 l 42 0 m -111 -300 l -114 -267 q 15 -241 -28 -264 q 58 -183 58 -218 q 35 -137 58 -151 q -36 -119 11 -124 l 44 6 l 83 6 l 22 -94 q 85 -125 71 -107 q 100 -172 100 -143 q 42 -265 100 -232 q -111 -300 -17 -297 z "},"Ḫ":{"ha":833,"x_min":42,"x_max":803,"o":"m 42 0 l 225 917 l 267 917 l 183 506 l 678 506 l 761 917 l 803 917 l 619 0 l 578 0 l 672 469 l 178 469 l 83 0 l 42 0 z "},"Ħ":{"ha":833,"x_min":42,"x_max":869,"o":"m 72 692 l 78 719 l 189 725 l 869 725 l 861 692 l 72 692 m 42 0 l 225 917 l 267 917 l 183 506 l 678 506 l 761 917 l 803 917 l 619 0 l 578 0 l 672 469 l 178 469 l 83 0 l 42 0 z "},"Ì":{"ha":833,"x_min":69,"x_max":775,"o":"m 69 0 l 78 36 l 314 36 l 483 881 l 244 881 l 253 917 l 775 917 l 767 881 l 525 881 l 356 36 l 597 36 l 589 0 l 69 0 m 558 981 l 406 1150 l 439 1178 l 581 1000 l 558 981 z "},"Í":{"ha":833,"x_min":69,"x_max":775,"o":"m 69 0 l 78 36 l 314 36 l 483 881 l 244 881 l 253 917 l 775 917 l 767 881 l 525 881 l 356 36 l 597 36 l 589 0 l 69 0 m 517 994 l 500 1017 l 694 1169 l 719 1133 l 517 994 z "},"Î":{"ha":833,"x_min":69,"x_max":775,"o":"m 69 0 l 78 36 l 314 36 l 483 881 l 244 881 l 253 917 l 775 917 l 767 881 l 525 881 l 356 36 l 597 36 l 589 0 l 69 0 m 369 986 l 350 1008 l 539 1167 l 578 1167 l 711 1008 l 689 989 l 558 1128 l 553 1128 l 369 986 z "},"Ĩ":{"ha":833,"x_min":69,"x_max":775,"o":"m 69 0 l 78 36 l 314 36 l 483 881 l 244 881 l 253 917 l 775 917 l 767 881 l 525 881 l 356 36 l 597 36 l 589 0 l 69 0 m 636 1003 q 578 1020 601 1003 q 536 1061 554 1038 q 498 1102 518 1085 q 450 1119 478 1119 q 392 1088 418 1119 q 350 1006 365 1057 l 319 1008 q 367 1113 331 1071 q 458 1156 404 1156 q 517 1138 494 1156 q 558 1097 540 1121 q 596 1056 576 1074 q 644 1039 615 1039 q 702 1070 676 1039 q 744 1153 728 1101 l 775 1150 q 728 1045 765 1088 q 636 1003 690 1003 z "},"Ï":{"ha":833,"x_min":69,"x_max":775,"o":"m 69 0 l 78 36 l 314 36 l 483 881 l 244 881 l 253 917 l 775 917 l 767 881 l 525 881 l 356 36 l 597 36 l 589 0 l 69 0 m 422 1008 q 396 1018 406 1008 q 386 1044 386 1028 q 400 1083 386 1068 q 431 1097 414 1097 q 457 1088 447 1097 q 467 1058 467 1078 q 453 1023 467 1038 q 422 1008 439 1008 m 653 1008 q 626 1018 636 1008 q 617 1044 617 1028 q 631 1083 617 1068 q 661 1097 644 1097 q 688 1088 678 1097 q 697 1058 697 1078 q 683 1023 697 1038 q 653 1008 669 1008 z "},"Ī":{"ha":833,"x_min":69,"x_max":775,"o":"m 69 0 l 78 36 l 314 36 l 483 881 l 244 881 l 253 917 l 775 917 l 767 881 l 525 881 l 356 36 l 597 36 l 589 0 l 69 0 m 375 1022 l 383 1058 l 703 1058 l 694 1022 l 375 1022 z "},"İ":{"ha":833,"x_min":69,"x_max":775,"o":"m 69 0 l 78 36 l 314 36 l 483 881 l 244 881 l 253 917 l 775 917 l 767 881 l 525 881 l 356 36 l 597 36 l 589 0 l 69 0 m 536 1008 q 508 1019 519 1008 q 497 1047 497 1031 q 513 1088 497 1072 q 547 1103 529 1103 q 575 1092 564 1103 q 586 1061 586 1081 q 571 1024 586 1039 q 536 1008 556 1008 z "},"Ǐ":{"ha":833,"x_min":69,"x_max":775,"o":"m 69 0 l 78 36 l 314 36 l 483 881 l 244 881 l 253 917 l 775 917 l 767 881 l 525 881 l 356 36 l 597 36 l 589 0 l 69 0 m 514 986 l 381 1144 l 403 1164 l 533 1025 l 539 1025 l 722 1167 l 742 1144 l 553 986 l 514 986 z "},"Į":{"ha":833,"x_min":69,"x_max":775,"o":"m 294 -311 q 213 -288 250 -311 q 175 -211 175 -265 q 195 -128 175 -168 q 245 -56 215 -89 q 306 0 275 -24 l 69 0 l 78 36 l 314 36 l 483 881 l 244 881 l 253 917 l 775 917 l 767 881 l 525 881 l 356 36 l 597 36 l 589 0 l 353 0 q 253 -95 293 -40 q 214 -200 214 -150 q 240 -257 214 -239 q 303 -275 265 -275 q 345 -267 326 -275 q 381 -247 364 -260 l 397 -272 q 353 -300 379 -289 q 294 -311 328 -311 z "},"Ỉ":{"ha":833,"x_min":69,"x_max":775,"o":"m 69 0 l 78 36 l 314 36 l 483 881 l 244 881 l 253 917 l 775 917 l 767 881 l 525 881 l 356 36 l 597 36 l 589 0 l 69 0 m 472 978 l 467 1008 q 538 1040 508 1021 q 572 1089 568 1058 q 550 1140 579 1122 q 467 1158 521 1157 l 475 1194 q 550 1183 515 1193 q 603 1151 585 1172 q 617 1094 622 1129 q 564 1018 607 1043 q 472 978 521 993 z "},"Ị":{"ha":833,"x_min":69,"x_max":775,"o":"m 69 0 l 78 36 l 314 36 l 483 881 l 244 881 l 253 917 l 775 917 l 767 881 l 525 881 l 356 36 l 597 36 l 589 0 l 69 0 z "},"Ĭ":{"ha":833,"x_min":69,"x_max":775,"o":"m 69 0 l 78 36 l 314 36 l 483 881 l 244 881 l 253 917 l 775 917 l 767 881 l 525 881 l 356 36 l 597 36 l 589 0 l 69 0 m 525 989 q 433 1015 467 989 q 386 1081 399 1042 q 375 1158 374 1121 l 411 1164 q 436 1067 408 1110 q 533 1025 464 1025 q 645 1067 603 1025 q 706 1164 688 1110 l 742 1158 q 703 1081 731 1121 q 631 1015 675 1042 q 525 989 588 989 z "},"Ĵ":{"ha":833,"x_min":50,"x_max":717,"o":"m 275 -17 q 137 23 196 -17 q 50 114 78 63 l 81 136 q 163 50 114 81 q 281 19 211 19 q 458 90 393 19 q 550 297 524 160 l 667 881 l 264 881 l 272 917 l 717 917 l 592 293 q 531 121 571 190 q 428 17 492 51 q 275 -17 365 -17 m 350 986 l 331 1008 l 519 1167 l 558 1167 l 692 1008 l 669 989 l 539 1128 l 533 1128 l 350 986 z "},"Ķ":{"ha":833,"x_min":89,"x_max":833,"o":"m 833 917 l 197 328 l 131 0 l 89 0 l 272 917 l 314 917 l 208 392 l 214 392 l 781 917 l 833 917 m 403 533 l 433 558 l 706 0 l 661 0 l 403 533 m 256 -300 l 253 -267 q 382 -241 339 -264 q 425 -183 425 -218 q 401 -137 425 -151 q 331 -119 378 -124 l 344 -86 q 421 -104 394 -93 q 457 -131 447 -115 q 467 -172 467 -147 q 440 -240 467 -211 q 366 -283 414 -268 q 256 -300 318 -299 z "},"Ḳ":{"ha":833,"x_min":89,"x_max":833,"o":"m 833 917 l 197 328 l 131 0 l 89 0 l 272 917 l 314 917 l 208 392 l 214 392 l 781 917 l 833 917 m 403 533 l 433 558 l 706 0 l 661 0 l 403 533 z "},"Ḵ":{"ha":833,"x_min":89,"x_max":833,"o":"m 833 917 l 197 328 l 131 0 l 89 0 l 272 917 l 314 917 l 208 392 l 214 392 l 781 917 l 833 917 m 403 533 l 433 558 l 706 0 l 661 0 l 403 533 z "},"Ĺ":{"ha":833,"x_min":175,"x_max":714,"o":"m 175 0 l 358 917 l 400 917 l 225 36 l 714 36 l 706 0 l 175 0 m 386 994 l 369 1017 l 564 1169 l 589 1133 l 386 994 z "},"Ľ":{"ha":833,"x_min":175,"x_max":714,"o":"m 175 0 l 358 917 l 400 917 l 225 36 l 714 36 l 706 0 l 175 0 m 594 761 l 664 1128 l 703 1128 l 683 1033 l 622 761 l 594 761 z "},"Ļ":{"ha":833,"x_min":175,"x_max":714,"o":"m 175 0 l 358 917 l 400 917 l 225 36 l 714 36 l 706 0 l 175 0 m 283 -300 l 281 -267 q 410 -241 367 -264 q 453 -183 453 -218 q 429 -137 453 -151 q 358 -119 406 -124 l 372 -86 q 449 -104 422 -93 q 485 -131 475 -115 q 494 -172 494 -147 q 468 -240 494 -211 q 394 -283 442 -268 q 283 -300 346 -299 z "},"Ḷ":{"ha":833,"x_min":175,"x_max":714,"o":"m 175 0 l 358 917 l 400 917 l 225 36 l 714 36 l 706 0 l 175 0 z "},"Ḹ":{"ha":833,"x_min":175,"x_max":714,"o":"m 175 0 l 358 917 l 400 917 l 225 36 l 714 36 l 706 0 l 175 0 m 244 1022 l 253 1058 l 572 1058 l 564 1022 l 244 1022 z "},"Ḻ":{"ha":833,"x_min":175,"x_max":714,"o":"m 175 0 l 358 917 l 400 917 l 225 36 l 714 36 l 706 0 l 175 0 z "},"Ł":{"ha":833,"x_min":97,"x_max":714,"o":"m 111 303 l 97 336 l 267 413 l 285 418 l 639 586 l 653 553 l 276 376 l 258 371 l 111 303 m 175 0 l 358 917 l 400 917 l 225 36 l 714 36 l 706 0 l 175 0 z "},"Ŀ":{"ha":833,"x_min":175,"x_max":742,"o":"m 175 0 l 358 917 l 400 917 l 225 36 l 714 36 l 706 0 l 175 0 m 681 417 q 646 430 658 417 q 633 464 633 443 q 642 497 633 482 q 665 522 651 513 q 694 531 679 531 q 730 517 718 531 q 742 483 742 504 q 723 437 742 457 q 681 417 704 417 z "},"Ḿ":{"ha":833,"x_min":42,"x_max":803,"o":"m 42 0 l 225 917 l 286 917 l 369 435 l 388 304 l 393 304 l 463 436 l 743 917 l 803 917 l 619 0 l 578 0 l 718 697 q 727 740 722 718 q 737 783 732 761 q 747 826 742 804 q 758 869 753 849 l 753 869 q 729 822 742 846 q 703 772 717 797 q 672 717 689 746 l 401 251 l 360 251 l 283 718 q 277 753 281 735 q 271 792 274 772 q 265 831 268 811 q 258 869 261 851 l 253 869 q 243 813 249 842 q 233 754 238 783 q 222 697 228 725 l 83 0 l 42 0 m 517 994 l 500 1017 l 694 1169 l 719 1133 l 517 994 z "},"Ṁ":{"ha":833,"x_min":42,"x_max":803,"o":"m 42 0 l 225 917 l 286 917 l 369 435 l 388 304 l 393 304 l 463 436 l 743 917 l 803 917 l 619 0 l 578 0 l 718 697 q 727 740 722 718 q 737 783 732 761 q 747 826 742 804 q 758 869 753 849 l 753 869 q 729 822 742 846 q 703 772 717 797 q 672 717 689 746 l 401 251 l 360 251 l 283 718 q 277 753 281 735 q 271 792 274 772 q 265 831 268 811 q 258 869 261 851 l 253 869 q 243 813 249 842 q 233 754 238 783 q 222 697 228 725 l 83 0 l 42 0 m 536 1008 q 508 1019 519 1008 q 497 1047 497 1031 q 513 1088 497 1072 q 547 1103 529 1103 q 575 1092 564 1103 q 586 1061 586 1081 q 571 1024 586 1039 q 536 1008 556 1008 z "},"Ṃ":{"ha":833,"x_min":42,"x_max":803,"o":"m 42 0 l 225 917 l 286 917 l 369 435 l 388 304 l 393 304 l 463 436 l 743 917 l 803 917 l 619 0 l 578 0 l 718 697 q 727 740 722 718 q 737 783 732 761 q 747 826 742 804 q 758 869 753 849 l 753 869 q 729 822 742 846 q 703 772 717 797 q 672 717 689 746 l 401 251 l 360 251 l 283 718 q 277 753 281 735 q 271 792 274 772 q 265 831 268 811 q 258 869 261 851 l 253 869 q 243 813 249 842 q 233 754 238 783 q 222 697 228 725 l 83 0 l 42 0 z "},"Ń":{"ha":833,"x_min":50,"x_max":800,"o":"m 50 0 l 233 917 l 278 917 l 525 239 l 589 58 l 594 58 q 605 122 600 90 q 615 184 610 153 q 627 247 621 215 q 639 308 633 278 l 758 917 l 800 917 l 617 0 l 572 0 l 325 678 l 261 858 l 256 858 q 242 774 249 815 q 227 692 235 733 q 211 608 219 651 l 92 0 l 50 0 m 525 994 l 508 1017 l 703 1169 l 728 1133 l 525 994 z "},"Ǹ":{"ha":833,"x_min":50,"x_max":800,"o":"m 50 0 l 233 917 l 278 917 l 525 239 l 589 58 l 594 58 q 605 122 600 90 q 615 184 610 153 q 627 247 621 215 q 639 308 633 278 l 758 917 l 800 917 l 617 0 l 572 0 l 325 678 l 261 858 l 256 858 q 242 774 249 815 q 227 692 235 733 q 211 608 219 651 l 92 0 l 50 0 m 567 981 l 414 1150 l 447 1178 l 589 1000 l 567 981 z "},"Ň":{"ha":833,"x_min":50,"x_max":800,"o":"m 50 0 l 233 917 l 278 917 l 525 239 l 589 58 l 594 58 q 605 122 600 90 q 615 184 610 153 q 627 247 621 215 q 639 308 633 278 l 758 917 l 800 917 l 617 0 l 572 0 l 325 678 l 261 858 l 256 858 q 242 774 249 815 q 227 692 235 733 q 211 608 219 651 l 92 0 l 50 0 m 522 986 l 389 1144 l 411 1164 l 542 1025 l 547 1025 l 731 1167 l 750 1144 l 561 986 l 522 986 z "},"Ñ":{"ha":833,"x_min":50,"x_max":800,"o":"m 50 0 l 233 917 l 278 917 l 525 239 l 589 58 l 594 58 q 605 122 600 90 q 615 184 610 153 q 627 247 621 215 q 639 308 633 278 l 758 917 l 800 917 l 617 0 l 572 0 l 325 678 l 261 858 l 256 858 q 242 774 249 815 q 227 692 235 733 q 211 608 219 651 l 92 0 l 50 0 m 644 1003 q 586 1020 610 1003 q 544 1061 563 1038 q 506 1102 526 1085 q 458 1119 486 1119 q 400 1088 426 1119 q 358 1006 374 1057 l 328 1008 q 376 1113 339 1071 q 467 1156 413 1156 q 526 1138 503 1156 q 567 1097 549 1121 q 604 1056 585 1074 q 653 1039 624 1039 q 710 1070 685 1039 q 753 1153 736 1101 l 783 1150 q 736 1045 774 1088 q 644 1003 699 1003 z "},"Ņ":{"ha":833,"x_min":50,"x_max":800,"o":"m 50 0 l 233 917 l 278 917 l 525 239 l 589 58 l 594 58 q 605 122 600 90 q 615 184 610 153 q 627 247 621 215 q 639 308 633 278 l 758 917 l 800 917 l 617 0 l 572 0 l 325 678 l 261 858 l 256 858 q 242 774 249 815 q 227 692 235 733 q 211 608 219 651 l 92 0 l 50 0 m 186 -300 l 183 -267 q 313 -241 269 -264 q 356 -183 356 -218 q 332 -137 356 -151 q 261 -119 308 -124 l 275 -86 q 351 -104 325 -93 q 388 -131 378 -115 q 397 -172 397 -147 q 371 -240 397 -211 q 297 -283 344 -268 q 186 -300 249 -299 z "},"Ṅ":{"ha":833,"x_min":50,"x_max":800,"o":"m 50 0 l 233 917 l 278 917 l 525 239 l 589 58 l 594 58 q 605 122 600 90 q 615 184 610 153 q 627 247 621 215 q 639 308 633 278 l 758 917 l 800 917 l 617 0 l 572 0 l 325 678 l 261 858 l 256 858 q 242 774 249 815 q 227 692 235 733 q 211 608 219 651 l 92 0 l 50 0 m 544 1008 q 517 1019 528 1008 q 506 1047 506 1031 q 522 1088 506 1072 q 556 1103 538 1103 q 583 1092 572 1103 q 594 1061 594 1081 q 579 1024 594 1039 q 544 1008 564 1008 z "},"Ṇ":{"ha":833,"x_min":50,"x_max":800,"o":"m 50 0 l 233 917 l 278 917 l 525 239 l 589 58 l 594 58 q 605 122 600 90 q 615 184 610 153 q 627 247 621 215 q 639 308 633 278 l 758 917 l 800 917 l 617 0 l 572 0 l 325 678 l 261 858 l 256 858 q 242 774 249 815 q 227 692 235 733 q 211 608 219 651 l 92 0 l 50 0 z "},"Ṉ":{"ha":833,"x_min":50,"x_max":800,"o":"m 50 0 l 233 917 l 278 917 l 525 239 l 589 58 l 594 58 q 605 122 600 90 q 615 184 610 153 q 627 247 621 215 q 639 308 633 278 l 758 917 l 800 917 l 617 0 l 572 0 l 325 678 l 261 858 l 256 858 q 242 774 249 815 q 227 692 235 733 q 211 608 219 651 l 92 0 l 50 0 z "},"Ò":{"ha":833,"x_min":69,"x_max":778,"o":"m 356 -17 q 200 28 264 -17 q 103 153 136 74 q 69 336 69 233 q 88 502 69 418 q 140 663 106 586 q 226 801 175 740 q 343 898 276 863 q 492 933 410 933 q 647 888 583 933 q 744 763 711 843 q 778 581 778 683 q 760 415 778 499 q 707 253 742 331 q 622 115 672 176 q 504 19 571 54 q 356 -17 438 -17 m 358 19 q 492 53 432 19 q 597 145 551 88 q 674 275 643 203 q 720 425 704 347 q 736 575 736 503 q 709 742 736 669 q 627 856 682 815 q 489 897 572 897 q 356 863 415 897 q 250 772 296 829 q 174 642 204 714 q 127 492 143 569 q 111 342 111 414 q 138 174 111 247 q 220 60 165 101 q 358 19 275 19 m 558 981 l 406 1150 l 439 1178 l 581 1000 l 558 981 z "},"Ó":{"ha":833,"x_min":69,"x_max":778,"o":"m 356 -17 q 200 28 264 -17 q 103 153 136 74 q 69 336 69 233 q 88 502 69 418 q 140 663 106 586 q 226 801 175 740 q 343 898 276 863 q 492 933 410 933 q 647 888 583 933 q 744 763 711 843 q 778 581 778 683 q 760 415 778 499 q 707 253 742 331 q 622 115 672 176 q 504 19 571 54 q 356 -17 438 -17 m 358 19 q 492 53 432 19 q 597 145 551 88 q 674 275 643 203 q 720 425 704 347 q 736 575 736 503 q 709 742 736 669 q 627 856 682 815 q 489 897 572 897 q 356 863 415 897 q 250 772 296 829 q 174 642 204 714 q 127 492 143 569 q 111 342 111 414 q 138 174 111 247 q 220 60 165 101 q 358 19 275 19 m 517 994 l 500 1017 l 694 1169 l 719 1133 l 517 994 z "},"Ô":{"ha":833,"x_min":69,"x_max":778,"o":"m 356 -17 q 200 28 264 -17 q 103 153 136 74 q 69 336 69 233 q 88 502 69 418 q 140 663 106 586 q 226 801 175 740 q 343 898 276 863 q 492 933 410 933 q 647 888 583 933 q 744 763 711 843 q 778 581 778 683 q 760 415 778 499 q 707 253 742 331 q 622 115 672 176 q 504 19 571 54 q 356 -17 438 -17 m 358 19 q 492 53 432 19 q 597 145 551 88 q 674 275 643 203 q 720 425 704 347 q 736 575 736 503 q 709 742 736 669 q 627 856 682 815 q 489 897 572 897 q 356 863 415 897 q 250 772 296 829 q 174 642 204 714 q 127 492 143 569 q 111 342 111 414 q 138 174 111 247 q 220 60 165 101 q 358 19 275 19 m 369 986 l 350 1008 l 539 1167 l 578 1167 l 711 1008 l 689 989 l 558 1128 l 553 1128 l 369 986 z "},"Õ":{"ha":833,"x_min":69,"x_max":778,"o":"m 356 -17 q 200 28 264 -17 q 103 153 136 74 q 69 336 69 233 q 88 502 69 418 q 140 663 106 586 q 226 801 175 740 q 343 898 276 863 q 492 933 410 933 q 647 888 583 933 q 744 763 711 843 q 778 581 778 683 q 760 415 778 499 q 707 253 742 331 q 622 115 672 176 q 504 19 571 54 q 356 -17 438 -17 m 358 19 q 492 53 432 19 q 597 145 551 88 q 674 275 643 203 q 720 425 704 347 q 736 575 736 503 q 709 742 736 669 q 627 856 682 815 q 489 897 572 897 q 356 863 415 897 q 250 772 296 829 q 174 642 204 714 q 127 492 143 569 q 111 342 111 414 q 138 174 111 247 q 220 60 165 101 q 358 19 275 19 m 636 1003 q 578 1020 601 1003 q 536 1061 554 1038 q 498 1102 518 1085 q 450 1119 478 1119 q 392 1088 418 1119 q 350 1006 365 1057 l 319 1008 q 367 1113 331 1071 q 458 1156 404 1156 q 517 1138 494 1156 q 558 1097 540 1121 q 596 1056 576 1074 q 644 1039 615 1039 q 702 1070 676 1039 q 744 1153 728 1101 l 775 1150 q 728 1045 765 1088 q 636 1003 690 1003 z "},"Ö":{"ha":833,"x_min":69,"x_max":778,"o":"m 356 -17 q 200 28 264 -17 q 103 153 136 74 q 69 336 69 233 q 88 502 69 418 q 140 663 106 586 q 226 801 175 740 q 343 898 276 863 q 492 933 410 933 q 647 888 583 933 q 744 763 711 843 q 778 581 778 683 q 760 415 778 499 q 707 253 742 331 q 622 115 672 176 q 504 19 571 54 q 356 -17 438 -17 m 358 19 q 492 53 432 19 q 597 145 551 88 q 674 275 643 203 q 720 425 704 347 q 736 575 736 503 q 709 742 736 669 q 627 856 682 815 q 489 897 572 897 q 356 863 415 897 q 250 772 296 829 q 174 642 204 714 q 127 492 143 569 q 111 342 111 414 q 138 174 111 247 q 220 60 165 101 q 358 19 275 19 m 422 1008 q 396 1018 406 1008 q 386 1044 386 1028 q 400 1083 386 1068 q 431 1097 414 1097 q 457 1088 447 1097 q 467 1058 467 1078 q 453 1023 467 1038 q 422 1008 439 1008 m 653 1008 q 626 1018 636 1008 q 617 1044 617 1028 q 631 1083 617 1068 q 661 1097 644 1097 q 688 1088 678 1097 q 697 1058 697 1078 q 683 1023 697 1038 q 653 1008 669 1008 z "},"Ō":{"ha":833,"x_min":69,"x_max":778,"o":"m 356 -17 q 200 28 264 -17 q 103 153 136 74 q 69 336 69 233 q 88 502 69 418 q 140 663 106 586 q 226 801 175 740 q 343 898 276 863 q 492 933 410 933 q 647 888 583 933 q 744 763 711 843 q 778 581 778 683 q 760 415 778 499 q 707 253 742 331 q 622 115 672 176 q 504 19 571 54 q 356 -17 438 -17 m 358 19 q 492 53 432 19 q 597 145 551 88 q 674 275 643 203 q 720 425 704 347 q 736 575 736 503 q 709 742 736 669 q 627 856 682 815 q 489 897 572 897 q 356 863 415 897 q 250 772 296 829 q 174 642 204 714 q 127 492 143 569 q 111 342 111 414 q 138 174 111 247 q 220 60 165 101 q 358 19 275 19 m 375 1022 l 383 1058 l 703 1058 l 694 1022 l 375 1022 z "},"Ő":{"ha":833,"x_min":69,"x_max":806,"o":"m 356 -17 q 200 28 264 -17 q 103 153 136 74 q 69 336 69 233 q 88 502 69 418 q 140 663 106 586 q 226 801 175 740 q 343 898 276 863 q 492 933 410 933 q 647 888 583 933 q 744 763 711 843 q 778 581 778 683 q 760 415 778 499 q 707 253 742 331 q 622 115 672 176 q 504 19 571 54 q 356 -17 438 -17 m 358 19 q 492 53 432 19 q 597 145 551 88 q 674 275 643 203 q 720 425 704 347 q 736 575 736 503 q 709 742 736 669 q 627 856 682 815 q 489 897 572 897 q 356 863 415 897 q 250 772 296 829 q 174 642 204 714 q 127 492 143 569 q 111 342 111 414 q 138 174 111 247 q 220 60 165 101 q 358 19 275 19 m 453 992 l 428 1008 l 583 1197 l 614 1172 l 453 992 m 644 992 l 619 1008 l 775 1197 l 806 1172 l 644 992 z "},"Ŏ":{"ha":833,"x_min":69,"x_max":778,"o":"m 356 -17 q 200 28 264 -17 q 103 153 136 74 q 69 336 69 233 q 88 502 69 418 q 140 663 106 586 q 226 801 175 740 q 343 898 276 863 q 492 933 410 933 q 647 888 583 933 q 744 763 711 843 q 778 581 778 683 q 760 415 778 499 q 707 253 742 331 q 622 115 672 176 q 504 19 571 54 q 356 -17 438 -17 m 358 19 q 492 53 432 19 q 597 145 551 88 q 674 275 643 203 q 720 425 704 347 q 736 575 736 503 q 709 742 736 669 q 627 856 682 815 q 489 897 572 897 q 356 863 415 897 q 250 772 296 829 q 174 642 204 714 q 127 492 143 569 q 111 342 111 414 q 138 174 111 247 q 220 60 165 101 q 358 19 275 19 m 525 989 q 433 1015 467 989 q 386 1081 399 1042 q 375 1158 374 1121 l 411 1164 q 436 1067 408 1110 q 533 1025 464 1025 q 645 1067 603 1025 q 706 1164 688 1110 l 742 1158 q 703 1081 731 1121 q 631 1015 675 1042 q 525 989 588 989 z "},"Ǒ":{"ha":833,"x_min":69,"x_max":778,"o":"m 356 -17 q 200 28 264 -17 q 103 153 136 74 q 69 336 69 233 q 88 502 69 418 q 140 663 106 586 q 226 801 175 740 q 343 898 276 863 q 492 933 410 933 q 647 888 583 933 q 744 763 711 843 q 778 581 778 683 q 760 415 778 499 q 707 253 742 331 q 622 115 672 176 q 504 19 571 54 q 356 -17 438 -17 m 358 19 q 492 53 432 19 q 597 145 551 88 q 674 275 643 203 q 720 425 704 347 q 736 575 736 503 q 709 742 736 669 q 627 856 682 815 q 489 897 572 897 q 356 863 415 897 q 250 772 296 829 q 174 642 204 714 q 127 492 143 569 q 111 342 111 414 q 138 174 111 247 q 220 60 165 101 q 358 19 275 19 m 514 986 l 381 1144 l 403 1164 l 533 1025 l 539 1025 l 722 1167 l 742 1144 l 553 986 l 514 986 z "},"Ǫ":{"ha":833,"x_min":69,"x_max":778,"o":"m 292 -311 q 210 -288 247 -311 q 172 -211 172 -265 q 192 -135 172 -172 q 245 -66 213 -97 q 317 -14 278 -35 q 194 33 250 -8 q 103 151 138 75 q 69 336 69 226 q 88 502 69 418 q 140 663 106 586 q 226 801 175 740 q 343 898 276 863 q 492 933 410 933 q 647 888 583 933 q 744 763 711 843 q 778 581 778 683 q 753 381 778 479 q 681 200 728 282 q 567 63 635 118 q 415 -11 500 7 q 299 -60 344 -25 q 233 -135 254 -96 q 211 -200 211 -174 q 237 -257 211 -239 q 300 -275 263 -275 q 342 -267 324 -275 q 378 -247 361 -260 l 394 -272 q 351 -300 376 -289 q 292 -311 325 -311 m 358 19 q 492 53 432 19 q 597 145 551 88 q 674 275 643 203 q 720 425 704 347 q 736 575 736 503 q 709 742 736 669 q 627 856 682 815 q 489 897 572 897 q 356 863 415 897 q 250 772 296 829 q 174 642 204 714 q 127 492 143 569 q 111 342 111 414 q 138 174 111 247 q 220 60 165 101 q 358 19 275 19 z "},"Ọ":{"ha":833,"x_min":69,"x_max":778,"o":"m 356 -17 q 200 28 264 -17 q 103 153 136 74 q 69 336 69 233 q 88 502 69 418 q 140 663 106 586 q 226 801 175 740 q 343 898 276 863 q 492 933 410 933 q 647 888 583 933 q 744 763 711 843 q 778 581 778 683 q 760 415 778 499 q 707 253 742 331 q 622 115 672 176 q 504 19 571 54 q 356 -17 438 -17 m 358 19 q 492 53 432 19 q 597 145 551 88 q 674 275 643 203 q 720 425 704 347 q 736 575 736 503 q 709 742 736 669 q 627 856 682 815 q 489 897 572 897 q 356 863 415 897 q 250 772 296 829 q 174 642 204 714 q 127 492 143 569 q 111 342 111 414 q 138 174 111 247 q 220 60 165 101 q 358 19 275 19 z "},"Ỏ":{"ha":833,"x_min":69,"x_max":778,"o":"m 356 -17 q 200 28 264 -17 q 103 153 136 74 q 69 336 69 233 q 88 502 69 418 q 140 663 106 586 q 226 801 175 740 q 343 898 276 863 q 492 933 410 933 q 647 888 583 933 q 744 763 711 843 q 778 581 778 683 q 760 415 778 499 q 707 253 742 331 q 622 115 672 176 q 504 19 571 54 q 356 -17 438 -17 m 358 19 q 492 53 432 19 q 597 145 551 88 q 674 275 643 203 q 720 425 704 347 q 736 575 736 503 q 709 742 736 669 q 627 856 682 815 q 489 897 572 897 q 356 863 415 897 q 250 772 296 829 q 174 642 204 714 q 127 492 143 569 q 111 342 111 414 q 138 174 111 247 q 220 60 165 101 q 358 19 275 19 m 472 978 l 467 1008 q 538 1040 508 1021 q 572 1089 568 1058 q 550 1140 579 1122 q 467 1158 521 1157 l 475 1194 q 550 1183 515 1193 q 603 1151 585 1172 q 617 1094 622 1129 q 564 1018 607 1043 q 472 978 521 993 z "},"Ố":{"ha":833,"x_min":69,"x_max":836,"o":"m 356 -17 q 200 28 264 -17 q 103 153 136 74 q 69 336 69 233 q 88 502 69 418 q 140 663 106 586 q 226 801 175 740 q 343 898 276 863 q 492 933 410 933 q 647 888 583 933 q 744 763 711 843 q 778 581 778 683 q 760 415 778 499 q 707 253 742 331 q 622 115 672 176 q 504 19 571 54 q 356 -17 438 -17 m 358 19 q 492 53 432 19 q 597 145 551 88 q 674 275 643 203 q 720 425 704 347 q 736 575 736 503 q 709 742 736 669 q 627 856 682 815 q 489 897 572 897 q 356 863 415 897 q 250 772 296 829 q 174 642 204 714 q 127 492 143 569 q 111 342 111 414 q 138 174 111 247 q 220 60 165 101 q 358 19 275 19 m 394 986 l 378 1008 l 533 1122 l 572 1122 l 683 1006 l 661 986 l 553 1081 l 547 1081 l 394 986 m 675 1072 l 656 1097 l 811 1219 l 836 1186 l 675 1072 z "},"Ồ":{"ha":833,"x_min":69,"x_max":778,"o":"m 356 -17 q 200 28 264 -17 q 103 153 136 74 q 69 336 69 233 q 88 502 69 418 q 140 663 106 586 q 226 801 175 740 q 343 898 276 863 q 492 933 410 933 q 647 888 583 933 q 744 763 711 843 q 778 581 778 683 q 760 415 778 499 q 707 253 742 331 q 622 115 672 176 q 504 19 571 54 q 356 -17 438 -17 m 358 19 q 492 53 432 19 q 597 145 551 88 q 674 275 643 203 q 720 425 704 347 q 736 575 736 503 q 709 742 736 669 q 627 856 682 815 q 489 897 572 897 q 356 863 415 897 q 250 772 296 829 q 174 642 204 714 q 127 492 143 569 q 111 342 111 414 q 138 174 111 247 q 220 60 165 101 q 358 19 275 19 m 394 986 l 378 1008 l 533 1122 l 572 1122 l 683 1006 l 661 986 l 553 1081 l 547 1081 l 394 986 m 439 1089 l 321 1203 l 353 1229 l 464 1108 l 439 1089 z "},"Ổ":{"ha":833,"x_min":69,"x_max":797,"o":"m 356 -17 q 200 28 264 -17 q 103 153 136 74 q 69 336 69 233 q 88 502 69 418 q 140 663 106 586 q 226 801 175 740 q 343 898 276 863 q 492 933 410 933 q 647 888 583 933 q 744 763 711 843 q 778 581 778 683 q 760 415 778 499 q 707 253 742 331 q 622 115 672 176 q 504 19 571 54 q 356 -17 438 -17 m 358 19 q 492 53 432 19 q 597 145 551 88 q 674 275 643 203 q 720 425 704 347 q 736 575 736 503 q 709 742 736 669 q 627 856 682 815 q 489 897 572 897 q 356 863 415 897 q 250 772 296 829 q 174 642 204 714 q 127 492 143 569 q 111 342 111 414 q 138 174 111 247 q 220 60 165 101 q 358 19 275 19 m 394 986 l 378 1008 l 533 1122 l 572 1122 l 683 1006 l 661 986 l 553 1081 l 547 1081 l 394 986 m 674 1056 l 665 1086 q 723 1108 699 1094 q 751 1147 747 1122 q 734 1196 758 1182 q 660 1211 710 1210 l 665 1244 q 733 1234 703 1243 q 781 1206 764 1225 q 790 1153 797 1186 q 747 1088 785 1108 q 674 1056 710 1067 z "},"Ỗ":{"ha":833,"x_min":69,"x_max":778,"o":"m 356 -17 q 200 28 264 -17 q 103 153 136 74 q 69 336 69 233 q 88 502 69 418 q 140 663 106 586 q 226 801 175 740 q 343 898 276 863 q 492 933 410 933 q 647 888 583 933 q 744 763 711 843 q 778 581 778 683 q 760 415 778 499 q 707 253 742 331 q 622 115 672 176 q 504 19 571 54 q 356 -17 438 -17 m 358 19 q 492 53 432 19 q 597 145 551 88 q 674 275 643 203 q 720 425 704 347 q 736 575 736 503 q 709 742 736 669 q 627 856 682 815 q 489 897 572 897 q 356 863 415 897 q 250 772 296 829 q 174 642 204 714 q 127 492 143 569 q 111 342 111 414 q 138 174 111 247 q 220 60 165 101 q 358 19 275 19 m 394 986 l 378 1008 l 533 1122 l 572 1122 l 683 1006 l 661 986 l 553 1081 l 547 1081 l 394 986 m 656 1167 q 596 1178 619 1167 q 554 1204 572 1189 q 518 1231 536 1219 q 472 1242 500 1242 q 427 1222 443 1242 q 400 1169 411 1201 l 369 1172 q 385 1219 374 1194 q 420 1260 397 1243 q 481 1278 443 1278 q 540 1267 517 1278 q 582 1240 564 1256 q 619 1214 600 1225 q 664 1203 638 1203 q 710 1223 693 1203 q 736 1275 726 1243 l 769 1272 q 751 1226 764 1250 q 716 1184 739 1201 q 656 1167 693 1167 z "},"Ộ":{"ha":833,"x_min":69,"x_max":778,"o":"m 356 -17 q 200 28 264 -17 q 103 153 136 74 q 69 336 69 233 q 88 502 69 418 q 140 663 106 586 q 226 801 175 740 q 343 898 276 863 q 492 933 410 933 q 647 888 583 933 q 744 763 711 843 q 778 581 778 683 q 760 415 778 499 q 707 253 742 331 q 622 115 672 176 q 504 19 571 54 q 356 -17 438 -17 m 358 19 q 492 53 432 19 q 597 145 551 88 q 674 275 643 203 q 720 425 704 347 q 736 575 736 503 q 709 742 736 669 q 627 856 682 815 q 489 897 572 897 q 356 863 415 897 q 250 772 296 829 q 174 642 204 714 q 127 492 143 569 q 111 342 111 414 q 138 174 111 247 q 220 60 165 101 q 358 19 275 19 m 369 986 l 350 1008 l 539 1167 l 578 1167 l 711 1008 l 689 989 l 558 1128 l 553 1128 l 369 986 z "},"Ơ":{"ha":833,"x_min":69,"x_max":842,"o":"m 668 861 l 631 894 q 752 933 707 897 q 797 1031 797 969 q 795 1062 797 1046 q 786 1096 793 1078 l 828 1114 q 838 1074 835 1092 q 842 1039 842 1057 q 817 948 842 985 q 752 890 792 911 q 668 861 713 869 m 356 -17 q 200 28 264 -17 q 103 153 136 74 q 69 336 69 233 q 88 502 69 418 q 140 663 106 586 q 226 801 175 740 q 343 898 276 863 q 492 933 410 933 q 647 888 583 933 q 744 763 711 843 q 778 581 778 683 q 760 415 778 499 q 707 253 742 331 q 622 115 672 176 q 504 19 571 54 q 356 -17 438 -17 m 358 19 q 492 53 432 19 q 597 145 551 88 q 674 275 643 203 q 720 425 704 347 q 736 575 736 503 q 709 742 736 669 q 627 856 682 815 q 489 897 572 897 q 356 863 415 897 q 250 772 296 829 q 174 642 204 714 q 127 492 143 569 q 111 342 111 414 q 138 174 111 247 q 220 60 165 101 q 358 19 275 19 z "},"Ớ":{"ha":833,"x_min":69,"x_max":842,"o":"m 668 861 l 631 894 q 752 933 707 897 q 797 1031 797 969 q 795 1062 797 1046 q 786 1096 793 1078 l 828 1114 q 838 1074 835 1092 q 842 1039 842 1057 q 817 948 842 985 q 752 890 792 911 q 668 861 713 869 m 356 -17 q 200 28 264 -17 q 103 153 136 74 q 69 336 69 233 q 88 502 69 418 q 140 663 106 586 q 226 801 175 740 q 343 898 276 863 q 492 933 410 933 q 647 888 583 933 q 744 763 711 843 q 778 581 778 683 q 760 415 778 499 q 707 253 742 331 q 622 115 672 176 q 504 19 571 54 q 356 -17 438 -17 m 358 19 q 492 53 432 19 q 597 145 551 88 q 674 275 643 203 q 720 425 704 347 q 736 575 736 503 q 709 742 736 669 q 627 856 682 815 q 489 897 572 897 q 356 863 415 897 q 250 772 296 829 q 174 642 204 714 q 127 492 143 569 q 111 342 111 414 q 138 174 111 247 q 220 60 165 101 q 358 19 275 19 m 517 994 l 500 1017 l 694 1169 l 719 1133 l 517 994 z "},"Ờ":{"ha":833,"x_min":69,"x_max":842,"o":"m 668 861 l 631 894 q 752 933 707 897 q 797 1031 797 969 q 795 1062 797 1046 q 786 1096 793 1078 l 828 1114 q 838 1074 835 1092 q 842 1039 842 1057 q 817 948 842 985 q 752 890 792 911 q 668 861 713 869 m 356 -17 q 200 28 264 -17 q 103 153 136 74 q 69 336 69 233 q 88 502 69 418 q 140 663 106 586 q 226 801 175 740 q 343 898 276 863 q 492 933 410 933 q 647 888 583 933 q 744 763 711 843 q 778 581 778 683 q 760 415 778 499 q 707 253 742 331 q 622 115 672 176 q 504 19 571 54 q 356 -17 438 -17 m 358 19 q 492 53 432 19 q 597 145 551 88 q 674 275 643 203 q 720 425 704 347 q 736 575 736 503 q 709 742 736 669 q 627 856 682 815 q 489 897 572 897 q 356 863 415 897 q 250 772 296 829 q 174 642 204 714 q 127 492 143 569 q 111 342 111 414 q 138 174 111 247 q 220 60 165 101 q 358 19 275 19 m 558 981 l 406 1150 l 439 1178 l 581 1000 l 558 981 z "},"Ở":{"ha":833,"x_min":69,"x_max":842,"o":"m 668 861 l 631 894 q 752 933 707 897 q 797 1031 797 969 q 795 1062 797 1046 q 786 1096 793 1078 l 828 1114 q 838 1074 835 1092 q 842 1039 842 1057 q 817 948 842 985 q 752 890 792 911 q 668 861 713 869 m 356 -17 q 200 28 264 -17 q 103 153 136 74 q 69 336 69 233 q 88 502 69 418 q 140 663 106 586 q 226 801 175 740 q 343 898 276 863 q 492 933 410 933 q 647 888 583 933 q 744 763 711 843 q 778 581 778 683 q 760 415 778 499 q 707 253 742 331 q 622 115 672 176 q 504 19 571 54 q 356 -17 438 -17 m 358 19 q 492 53 432 19 q 597 145 551 88 q 674 275 643 203 q 720 425 704 347 q 736 575 736 503 q 709 742 736 669 q 627 856 682 815 q 489 897 572 897 q 356 863 415 897 q 250 772 296 829 q 174 642 204 714 q 127 492 143 569 q 111 342 111 414 q 138 174 111 247 q 220 60 165 101 q 358 19 275 19 m 472 978 l 467 1008 q 538 1040 508 1021 q 572 1089 568 1058 q 550 1140 579 1122 q 467 1158 521 1157 l 475 1194 q 550 1183 515 1193 q 603 1151 585 1172 q 617 1094 622 1129 q 564 1018 607 1043 q 472 978 521 993 z "},"Ỡ":{"ha":833,"x_min":69,"x_max":842,"o":"m 668 861 l 631 894 q 752 933 707 897 q 797 1031 797 969 q 795 1062 797 1046 q 786 1096 793 1078 l 828 1114 q 838 1074 835 1092 q 842 1039 842 1057 q 817 948 842 985 q 752 890 792 911 q 668 861 713 869 m 356 -17 q 200 28 264 -17 q 103 153 136 74 q 69 336 69 233 q 88 502 69 418 q 140 663 106 586 q 226 801 175 740 q 343 898 276 863 q 492 933 410 933 q 647 888 583 933 q 744 763 711 843 q 778 581 778 683 q 760 415 778 499 q 707 253 742 331 q 622 115 672 176 q 504 19 571 54 q 356 -17 438 -17 m 358 19 q 492 53 432 19 q 597 145 551 88 q 674 275 643 203 q 720 425 704 347 q 736 575 736 503 q 709 742 736 669 q 627 856 682 815 q 489 897 572 897 q 356 863 415 897 q 250 772 296 829 q 174 642 204 714 q 127 492 143 569 q 111 342 111 414 q 138 174 111 247 q 220 60 165 101 q 358 19 275 19 m 608 1003 q 550 1020 574 1003 q 508 1061 526 1038 q 470 1102 490 1085 q 422 1119 450 1119 q 364 1088 390 1119 q 322 1006 338 1057 l 292 1008 q 340 1113 303 1071 q 431 1156 376 1156 q 490 1138 467 1156 q 531 1097 513 1121 q 568 1056 549 1074 q 617 1039 588 1039 q 674 1070 649 1039 q 717 1153 700 1101 l 747 1150 q 700 1045 738 1088 q 608 1003 663 1003 z "},"Ợ":{"ha":833,"x_min":69,"x_max":842,"o":"m 668 861 l 631 894 q 752 933 707 897 q 797 1031 797 969 q 795 1062 797 1046 q 786 1096 793 1078 l 828 1114 q 838 1074 835 1092 q 842 1039 842 1057 q 817 948 842 985 q 752 890 792 911 q 668 861 713 869 m 356 -17 q 200 28 264 -17 q 103 153 136 74 q 69 336 69 233 q 88 502 69 418 q 140 663 106 586 q 226 801 175 740 q 343 898 276 863 q 492 933 410 933 q 647 888 583 933 q 744 763 711 843 q 778 581 778 683 q 760 415 778 499 q 707 253 742 331 q 622 115 672 176 q 504 19 571 54 q 356 -17 438 -17 m 358 19 q 492 53 432 19 q 597 145 551 88 q 674 275 643 203 q 720 425 704 347 q 736 575 736 503 q 709 742 736 669 q 627 856 682 815 q 489 897 572 897 q 356 863 415 897 q 250 772 296 829 q 174 642 204 714 q 127 492 143 569 q 111 342 111 414 q 138 174 111 247 q 220 60 165 101 q 358 19 275 19 z "},"Ṓ":{"ha":833,"x_min":69,"x_max":778,"o":"m 356 -17 q 200 28 264 -17 q 103 153 136 74 q 69 336 69 233 q 88 502 69 418 q 140 663 106 586 q 226 801 175 740 q 343 898 276 863 q 492 933 410 933 q 647 888 583 933 q 744 763 711 843 q 778 581 778 683 q 760 415 778 499 q 707 253 742 331 q 622 115 672 176 q 504 19 571 54 q 356 -17 438 -17 m 358 19 q 492 53 432 19 q 597 145 551 88 q 674 275 643 203 q 720 425 704 347 q 736 575 736 503 q 709 742 736 669 q 627 856 682 815 q 489 897 572 897 q 356 863 415 897 q 250 772 296 829 q 174 642 204 714 q 127 492 143 569 q 111 342 111 414 q 138 174 111 247 q 220 60 165 101 q 358 19 275 19 m 375 1022 l 383 1058 l 703 1058 l 694 1022 l 375 1022 m 544 1147 l 525 1169 l 681 1294 l 706 1264 l 544 1147 z "},"Ø":{"ha":833,"x_min":0,"x_max":847,"o":"m 356 -17 q 200 28 264 -17 q 103 153 136 74 q 69 336 69 233 q 88 502 69 418 q 140 663 106 586 q 226 801 175 740 q 343 898 276 863 q 492 933 410 933 q 647 888 583 933 q 744 763 711 843 q 778 581 778 683 q 760 415 778 499 q 707 253 742 331 q 622 115 672 176 q 504 19 571 54 q 356 -17 438 -17 m 358 19 q 492 53 432 19 q 597 145 551 88 q 674 275 643 203 q 720 425 704 347 q 736 575 736 503 q 709 742 736 669 q 627 856 682 815 q 489 897 572 897 q 356 863 415 897 q 250 772 296 829 q 174 642 204 714 q 127 492 143 569 q 111 342 111 414 q 138 174 111 247 q 220 60 165 101 q 358 19 275 19 m 25 -28 l 0 -6 l 822 944 l 847 922 l 25 -28 z "},"Ǿ":{"ha":833,"x_min":0,"x_max":847,"o":"m 356 -17 q 200 28 264 -17 q 103 153 136 74 q 69 336 69 233 q 88 502 69 418 q 140 663 106 586 q 226 801 175 740 q 343 898 276 863 q 492 933 410 933 q 647 888 583 933 q 744 763 711 843 q 778 581 778 683 q 760 415 778 499 q 707 253 742 331 q 622 115 672 176 q 504 19 571 54 q 356 -17 438 -17 m 358 19 q 492 53 432 19 q 597 145 551 88 q 674 275 643 203 q 720 425 704 347 q 736 575 736 503 q 709 742 736 669 q 627 856 682 815 q 489 897 572 897 q 356 863 415 897 q 250 772 296 829 q 174 642 204 714 q 127 492 143 569 q 111 342 111 414 q 138 174 111 247 q 220 60 165 101 q 358 19 275 19 m 25 -28 l 0 -6 l 822 944 l 847 922 l 25 -28 m 517 994 l 500 1017 l 694 1169 l 719 1133 l 517 994 z "},"Œ":{"ha":833,"x_min":53,"x_max":901,"o":"m 367 0 q 178 43 247 0 q 81 163 110 86 q 53 342 53 240 q 85 565 53 461 q 181 749 118 669 q 335 872 244 828 q 542 917 426 917 l 901 917 l 893 881 l 583 881 l 508 506 l 746 506 l 738 469 l 503 469 l 414 36 l 738 36 l 729 0 l 367 0 m 369 36 l 375 36 l 544 881 l 539 881 q 349 838 432 881 q 210 719 267 794 q 124 548 153 644 q 94 344 94 451 q 119 185 94 254 q 203 76 143 115 q 369 36 263 36 z "},"Ŕ":{"ha":833,"x_min":69,"x_max":739,"o":"m 69 0 l 253 917 l 475 917 q 616 897 557 917 q 707 833 675 876 q 739 719 739 789 q 713 599 739 653 q 641 508 688 546 q 531 451 594 471 q 394 431 468 431 l 197 431 l 111 0 l 69 0 m 206 467 l 375 467 q 613 533 529 467 q 697 717 697 600 q 635 844 697 807 q 450 881 574 881 l 286 881 l 206 467 m 392 433 l 431 450 l 617 0 l 569 0 l 392 433 m 511 994 l 494 1017 l 689 1169 l 714 1133 l 511 994 z "},"Ř":{"ha":833,"x_min":69,"x_max":739,"o":"m 69 0 l 253 917 l 475 917 q 616 897 557 917 q 707 833 675 876 q 739 719 739 789 q 713 599 739 653 q 641 508 688 546 q 531 451 594 471 q 394 431 468 431 l 197 431 l 111 0 l 69 0 m 206 467 l 375 467 q 613 533 529 467 q 697 717 697 600 q 635 844 697 807 q 450 881 574 881 l 286 881 l 206 467 m 392 433 l 431 450 l 617 0 l 569 0 l 392 433 m 508 986 l 375 1144 l 397 1164 l 528 1025 l 533 1025 l 717 1167 l 736 1144 l 547 986 l 508 986 z "},"Ṙ":{"ha":833,"x_min":69,"x_max":739,"o":"m 69 0 l 253 917 l 475 917 q 616 897 557 917 q 707 833 675 876 q 739 719 739 789 q 713 599 739 653 q 641 508 688 546 q 531 451 594 471 q 394 431 468 431 l 197 431 l 111 0 l 69 0 m 206 467 l 375 467 q 613 533 529 467 q 697 717 697 600 q 635 844 697 807 q 450 881 574 881 l 286 881 l 206 467 m 392 433 l 431 450 l 617 0 l 569 0 l 392 433 m 531 1008 q 503 1019 514 1008 q 492 1047 492 1031 q 508 1088 492 1072 q 542 1103 524 1103 q 569 1092 558 1103 q 581 1061 581 1081 q 565 1024 581 1039 q 531 1008 550 1008 z "},"Ŗ":{"ha":833,"x_min":69,"x_max":739,"o":"m 69 0 l 253 917 l 475 917 q 616 897 557 917 q 707 833 675 876 q 739 719 739 789 q 713 599 739 653 q 641 508 688 546 q 531 451 594 471 q 394 431 468 431 l 197 431 l 111 0 l 69 0 m 206 467 l 375 467 q 613 533 529 467 q 697 717 697 600 q 635 844 697 807 q 450 881 574 881 l 286 881 l 206 467 m 392 433 l 431 450 l 617 0 l 569 0 l 392 433 m 200 -300 l 197 -267 q 326 -241 283 -264 q 369 -183 369 -218 q 346 -137 369 -151 q 275 -119 322 -124 l 289 -86 q 365 -104 339 -93 q 401 -131 392 -115 q 411 -172 411 -147 q 385 -240 411 -211 q 310 -283 358 -268 q 200 -300 263 -299 z "},"Ṛ":{"ha":833,"x_min":69,"x_max":739,"o":"m 69 0 l 253 917 l 475 917 q 616 897 557 917 q 707 833 675 876 q 739 719 739 789 q 713 599 739 653 q 641 508 688 546 q 531 451 594 471 q 394 431 468 431 l 197 431 l 111 0 l 69 0 m 206 467 l 375 467 q 613 533 529 467 q 697 717 697 600 q 635 844 697 807 q 450 881 574 881 l 286 881 l 206 467 m 392 433 l 431 450 l 617 0 l 569 0 l 392 433 z "},"Ṝ":{"ha":833,"x_min":69,"x_max":739,"o":"m 69 0 l 253 917 l 475 917 q 616 897 557 917 q 707 833 675 876 q 739 719 739 789 q 713 599 739 653 q 641 508 688 546 q 531 451 594 471 q 394 431 468 431 l 197 431 l 111 0 l 69 0 m 206 467 l 375 467 q 613 533 529 467 q 697 717 697 600 q 635 844 697 807 q 450 881 574 881 l 286 881 l 206 467 m 392 433 l 431 450 l 617 0 l 569 0 l 392 433 m 369 1022 l 378 1058 l 697 1058 l 689 1022 l 369 1022 z "},"Ṟ":{"ha":833,"x_min":69,"x_max":739,"o":"m 69 0 l 253 917 l 475 917 q 616 897 557 917 q 707 833 675 876 q 739 719 739 789 q 713 599 739 653 q 641 508 688 546 q 531 451 594 471 q 394 431 468 431 l 197 431 l 111 0 l 69 0 m 206 467 l 375 467 q 613 533 529 467 q 697 717 697 600 q 635 844 697 807 q 450 881 574 881 l 286 881 l 206 467 m 392 433 l 431 450 l 617 0 l 569 0 l 392 433 z "},"Ś":{"ha":833,"x_min":67,"x_max":722,"o":"m 356 -17 q 185 24 258 -17 q 67 136 113 64 l 100 158 q 208 56 144 92 q 361 19 272 19 q 487 47 431 19 q 576 126 543 75 q 608 244 608 176 q 576 351 608 307 q 489 425 543 394 l 367 497 q 267 581 311 531 q 222 703 222 631 q 254 817 222 764 q 344 901 286 869 q 478 933 401 933 q 624 897 561 933 q 722 811 688 861 l 692 786 q 601 865 657 832 q 469 897 544 897 q 361 869 407 897 q 290 798 315 842 q 264 708 264 754 q 301 601 264 642 q 386 533 339 561 l 506 464 q 581 408 549 439 q 632 339 614 378 q 650 250 650 300 q 611 110 650 169 q 506 17 572 50 q 356 -17 439 -17 m 497 994 l 481 1017 l 675 1169 l 700 1133 l 497 994 z "},"Ŝ":{"ha":833,"x_min":67,"x_max":722,"o":"m 356 -17 q 185 24 258 -17 q 67 136 113 64 l 100 158 q 208 56 144 92 q 361 19 272 19 q 487 47 431 19 q 576 126 543 75 q 608 244 608 176 q 576 351 608 307 q 489 425 543 394 l 367 497 q 267 581 311 531 q 222 703 222 631 q 254 817 222 764 q 344 901 286 869 q 478 933 401 933 q 624 897 561 933 q 722 811 688 861 l 692 786 q 601 865 657 832 q 469 897 544 897 q 361 869 407 897 q 290 798 315 842 q 264 708 264 754 q 301 601 264 642 q 386 533 339 561 l 506 464 q 581 408 549 439 q 632 339 614 378 q 650 250 650 300 q 611 110 650 169 q 506 17 572 50 q 356 -17 439 -17 m 350 986 l 331 1008 l 519 1167 l 558 1167 l 692 1008 l 669 989 l 539 1128 l 533 1128 l 350 986 z "},"Š":{"ha":833,"x_min":67,"x_max":722,"o":"m 356 -17 q 185 24 258 -17 q 67 136 113 64 l 100 158 q 208 56 144 92 q 361 19 272 19 q 487 47 431 19 q 576 126 543 75 q 608 244 608 176 q 576 351 608 307 q 489 425 543 394 l 367 497 q 267 581 311 531 q 222 703 222 631 q 254 817 222 764 q 344 901 286 869 q 478 933 401 933 q 624 897 561 933 q 722 811 688 861 l 692 786 q 601 865 657 832 q 469 897 544 897 q 361 869 407 897 q 290 798 315 842 q 264 708 264 754 q 301 601 264 642 q 386 533 339 561 l 506 464 q 581 408 549 439 q 632 339 614 378 q 650 250 650 300 q 611 110 650 169 q 506 17 572 50 q 356 -17 439 -17 m 494 986 l 361 1144 l 383 1164 l 514 1025 l 519 1025 l 703 1167 l 722 1144 l 533 986 l 494 986 z "},"Ṧ":{"ha":833,"x_min":67,"x_max":722,"o":"m 356 -17 q 185 24 258 -17 q 67 136 113 64 l 100 158 q 208 56 144 92 q 361 19 272 19 q 487 47 431 19 q 576 126 543 75 q 608 244 608 176 q 576 351 608 307 q 489 425 543 394 l 367 497 q 267 581 311 531 q 222 703 222 631 q 254 817 222 764 q 344 901 286 869 q 478 933 401 933 q 624 897 561 933 q 722 811 688 861 l 692 786 q 601 865 657 832 q 469 897 544 897 q 361 869 407 897 q 290 798 315 842 q 264 708 264 754 q 301 601 264 642 q 386 533 339 561 l 506 464 q 581 408 549 439 q 632 339 614 378 q 650 250 650 300 q 611 110 650 169 q 506 17 572 50 q 356 -17 439 -17 m 544 1139 q 510 1152 522 1139 q 497 1186 497 1165 q 506 1219 497 1204 q 529 1244 515 1235 q 558 1253 543 1253 q 594 1240 582 1253 q 606 1206 606 1226 q 597 1172 606 1188 q 574 1148 588 1157 q 544 1139 560 1139 m 494 986 l 361 1144 l 383 1164 l 514 1025 l 519 1025 l 703 1167 l 722 1144 l 533 986 l 494 986 z "},"Ş":{"ha":833,"x_min":67,"x_max":722,"o":"m 356 -17 q 185 24 258 -17 q 67 136 113 64 l 100 158 q 208 56 144 92 q 361 19 272 19 q 487 47 431 19 q 576 126 543 75 q 608 244 608 176 q 576 351 608 307 q 489 425 543 394 l 367 497 q 267 581 311 531 q 222 703 222 631 q 254 817 222 764 q 344 901 286 869 q 478 933 401 933 q 624 897 561 933 q 722 811 688 861 l 692 786 q 601 865 657 832 q 469 897 544 897 q 361 869 407 897 q 290 798 315 842 q 264 708 264 754 q 301 601 264 642 q 386 533 339 561 l 506 464 q 581 408 549 439 q 632 339 614 378 q 650 250 650 300 q 611 110 650 169 q 506 17 572 50 q 356 -17 439 -17 m 186 -300 l 183 -267 q 313 -241 269 -264 q 356 -183 356 -218 q 332 -137 356 -151 q 261 -119 308 -124 l 342 6 l 381 6 l 319 -94 q 383 -125 368 -107 q 397 -172 397 -143 q 339 -265 397 -232 q 186 -300 281 -297 z "},"Ș":{"ha":833,"x_min":67,"x_max":722,"o":"m 356 -17 q 185 24 258 -17 q 67 136 113 64 l 100 158 q 208 56 144 92 q 361 19 272 19 q 487 47 431 19 q 576 126 543 75 q 608 244 608 176 q 576 351 608 307 q 489 425 543 394 l 367 497 q 267 581 311 531 q 222 703 222 631 q 254 817 222 764 q 344 901 286 869 q 478 933 401 933 q 624 897 561 933 q 722 811 688 861 l 692 786 q 601 865 657 832 q 469 897 544 897 q 361 869 407 897 q 290 798 315 842 q 264 708 264 754 q 301 601 264 642 q 386 533 339 561 l 506 464 q 581 408 549 439 q 632 339 614 378 q 650 250 650 300 q 611 110 650 169 q 506 17 572 50 q 356 -17 439 -17 m 200 -300 l 197 -267 q 326 -241 283 -264 q 369 -183 369 -218 q 346 -137 369 -151 q 275 -119 322 -124 l 289 -86 q 365 -104 339 -93 q 401 -131 392 -115 q 411 -172 411 -147 q 385 -240 411 -211 q 310 -283 358 -268 q 200 -300 263 -299 z "},"Ṡ":{"ha":833,"x_min":67,"x_max":722,"o":"m 356 -17 q 185 24 258 -17 q 67 136 113 64 l 100 158 q 208 56 144 92 q 361 19 272 19 q 487 47 431 19 q 576 126 543 75 q 608 244 608 176 q 576 351 608 307 q 489 425 543 394 l 367 497 q 267 581 311 531 q 222 703 222 631 q 254 817 222 764 q 344 901 286 869 q 478 933 401 933 q 624 897 561 933 q 722 811 688 861 l 692 786 q 601 865 657 832 q 469 897 544 897 q 361 869 407 897 q 290 798 315 842 q 264 708 264 754 q 301 601 264 642 q 386 533 339 561 l 506 464 q 581 408 549 439 q 632 339 614 378 q 650 250 650 300 q 611 110 650 169 q 506 17 572 50 q 356 -17 439 -17 m 517 1008 q 489 1019 500 1008 q 478 1047 478 1031 q 494 1088 478 1072 q 528 1103 510 1103 q 556 1092 544 1103 q 567 1061 567 1081 q 551 1024 567 1039 q 517 1008 536 1008 z "},"Ṣ":{"ha":833,"x_min":67,"x_max":722,"o":"m 356 -17 q 185 24 258 -17 q 67 136 113 64 l 100 158 q 208 56 144 92 q 361 19 272 19 q 487 47 431 19 q 576 126 543 75 q 608 244 608 176 q 576 351 608 307 q 489 425 543 394 l 367 497 q 267 581 311 531 q 222 703 222 631 q 254 817 222 764 q 344 901 286 869 q 478 933 401 933 q 624 897 561 933 q 722 811 688 861 l 692 786 q 601 865 657 832 q 469 897 544 897 q 361 869 407 897 q 290 798 315 842 q 264 708 264 754 q 301 601 264 642 q 386 533 339 561 l 506 464 q 581 408 549 439 q 632 339 614 378 q 650 250 650 300 q 611 110 650 169 q 506 17 572 50 q 356 -17 439 -17 z "},"ẞ":{"ha":833,"x_min":43,"x_max":764,"o":"m 463 -17 q 330 15 386 -17 q 242 94 274 47 l 274 119 q 351 47 306 72 q 464 21 396 21 q 592 51 538 21 q 676 130 646 81 q 706 239 706 179 q 639 386 706 333 q 444 469 572 439 l 449 508 l 725 768 l 726 746 q 653 856 703 815 q 528 897 603 897 q 388 865 454 897 q 273 765 322 833 q 201 586 224 697 l 85 0 l 43 0 l 164 603 q 287 842 192 751 q 529 933 382 933 q 683 883 624 933 q 764 751 742 833 l 469 479 l 465 501 q 626 442 564 478 q 717 356 688 406 q 747 240 747 306 q 714 113 747 172 q 617 19 681 54 q 463 -17 554 -17 z "},"Ť":{"ha":833,"x_min":158,"x_max":858,"o":"m 308 0 l 483 878 l 158 878 l 167 917 l 858 917 l 850 878 l 525 878 l 350 0 l 308 0 m 514 986 l 381 1144 l 403 1164 l 533 1025 l 539 1025 l 722 1167 l 742 1144 l 553 986 l 514 986 z "},"Ţ":{"ha":833,"x_min":153,"x_max":858,"o":"m 308 0 l 483 878 l 158 878 l 167 917 l 858 917 l 850 878 l 525 878 l 350 0 l 308 0 m 156 -300 l 153 -267 q 282 -241 239 -264 q 325 -183 325 -218 q 301 -137 325 -151 q 231 -119 278 -124 l 311 6 l 350 6 l 289 -94 q 352 -125 338 -107 q 367 -172 367 -143 q 308 -265 367 -232 q 156 -300 250 -297 z "},"Ț":{"ha":833,"x_min":158,"x_max":858,"o":"m 308 0 l 483 878 l 158 878 l 167 917 l 858 917 l 850 878 l 525 878 l 350 0 l 308 0 m 164 -300 l 161 -267 q 290 -241 247 -264 q 333 -183 333 -218 q 310 -137 333 -151 q 239 -119 286 -124 l 253 -86 q 329 -104 303 -93 q 365 -131 356 -115 q 375 -172 375 -147 q 349 -240 375 -211 q 274 -283 322 -268 q 164 -300 226 -299 z "},"Ṭ":{"ha":833,"x_min":158,"x_max":858,"o":"m 308 0 l 483 878 l 158 878 l 167 917 l 858 917 l 850 878 l 525 878 l 350 0 l 308 0 z "},"Ṯ":{"ha":833,"x_min":122,"x_max":858,"o":"m 308 0 l 483 878 l 158 878 l 167 917 l 858 917 l 850 878 l 525 878 l 350 0 l 308 0 z "},"Ŧ":{"ha":833,"x_min":158,"x_max":858,"o":"m 219 503 l 225 531 l 333 536 l 642 536 l 635 503 l 219 503 m 308 0 l 483 878 l 158 878 l 167 917 l 858 917 l 850 878 l 525 878 l 350 0 l 308 0 z "},"Ù":{"ha":833,"x_min":103,"x_max":803,"o":"m 361 -17 q 172 53 240 -17 q 103 250 103 124 q 106 304 103 278 q 114 364 108 331 l 225 917 l 267 917 l 158 375 q 147 314 150 342 q 144 261 144 286 q 201 83 144 147 q 367 19 257 19 q 481 50 426 19 q 579 149 536 81 q 644 331 622 218 l 761 917 l 803 917 l 683 319 q 609 121 658 194 q 495 15 560 47 q 361 -17 431 -17 m 558 981 l 406 1150 l 439 1178 l 581 1000 l 558 981 z "},"Ú":{"ha":833,"x_min":103,"x_max":803,"o":"m 361 -17 q 172 53 240 -17 q 103 250 103 124 q 106 304 103 278 q 114 364 108 331 l 225 917 l 267 917 l 158 375 q 147 314 150 342 q 144 261 144 286 q 201 83 144 147 q 367 19 257 19 q 481 50 426 19 q 579 149 536 81 q 644 331 622 218 l 761 917 l 803 917 l 683 319 q 609 121 658 194 q 495 15 560 47 q 361 -17 431 -17 m 517 994 l 500 1017 l 694 1169 l 719 1133 l 517 994 z "},"Û":{"ha":833,"x_min":103,"x_max":803,"o":"m 361 -17 q 172 53 240 -17 q 103 250 103 124 q 106 304 103 278 q 114 364 108 331 l 225 917 l 267 917 l 158 375 q 147 314 150 342 q 144 261 144 286 q 201 83 144 147 q 367 19 257 19 q 481 50 426 19 q 579 149 536 81 q 644 331 622 218 l 761 917 l 803 917 l 683 319 q 609 121 658 194 q 495 15 560 47 q 361 -17 431 -17 m 369 986 l 350 1008 l 539 1167 l 578 1167 l 711 1008 l 689 989 l 558 1128 l 553 1128 l 369 986 z "},"Ũ":{"ha":833,"x_min":103,"x_max":803,"o":"m 361 -17 q 172 53 240 -17 q 103 250 103 124 q 106 304 103 278 q 114 364 108 331 l 225 917 l 267 917 l 158 375 q 147 314 150 342 q 144 261 144 286 q 201 83 144 147 q 367 19 257 19 q 481 50 426 19 q 579 149 536 81 q 644 331 622 218 l 761 917 l 803 917 l 683 319 q 609 121 658 194 q 495 15 560 47 q 361 -17 431 -17 m 636 1003 q 578 1020 601 1003 q 536 1061 554 1038 q 498 1102 518 1085 q 450 1119 478 1119 q 392 1088 418 1119 q 350 1006 365 1057 l 319 1008 q 367 1113 331 1071 q 458 1156 404 1156 q 517 1138 494 1156 q 558 1097 540 1121 q 596 1056 576 1074 q 644 1039 615 1039 q 702 1070 676 1039 q 744 1153 728 1101 l 775 1150 q 728 1045 765 1088 q 636 1003 690 1003 z "},"Ü":{"ha":833,"x_min":103,"x_max":803,"o":"m 361 -17 q 172 53 240 -17 q 103 250 103 124 q 106 304 103 278 q 114 364 108 331 l 225 917 l 267 917 l 158 375 q 147 314 150 342 q 144 261 144 286 q 201 83 144 147 q 367 19 257 19 q 481 50 426 19 q 579 149 536 81 q 644 331 622 218 l 761 917 l 803 917 l 683 319 q 609 121 658 194 q 495 15 560 47 q 361 -17 431 -17 m 422 1008 q 396 1018 406 1008 q 386 1044 386 1028 q 400 1083 386 1068 q 431 1097 414 1097 q 457 1088 447 1097 q 467 1058 467 1078 q 453 1023 467 1038 q 422 1008 439 1008 m 653 1008 q 626 1018 636 1008 q 617 1044 617 1028 q 631 1083 617 1068 q 661 1097 644 1097 q 688 1088 678 1097 q 697 1058 697 1078 q 683 1023 697 1038 q 653 1008 669 1008 z "},"Ū":{"ha":833,"x_min":103,"x_max":803,"o":"m 361 -17 q 172 53 240 -17 q 103 250 103 124 q 106 304 103 278 q 114 364 108 331 l 225 917 l 267 917 l 158 375 q 147 314 150 342 q 144 261 144 286 q 201 83 144 147 q 367 19 257 19 q 481 50 426 19 q 579 149 536 81 q 644 331 622 218 l 761 917 l 803 917 l 683 319 q 609 121 658 194 q 495 15 560 47 q 361 -17 431 -17 m 375 1022 l 383 1058 l 703 1058 l 694 1022 l 375 1022 z "},"Ŭ":{"ha":833,"x_min":103,"x_max":803,"o":"m 361 -17 q 172 53 240 -17 q 103 250 103 124 q 106 304 103 278 q 114 364 108 331 l 225 917 l 267 917 l 158 375 q 147 314 150 342 q 144 261 144 286 q 201 83 144 147 q 367 19 257 19 q 481 50 426 19 q 579 149 536 81 q 644 331 622 218 l 761 917 l 803 917 l 683 319 q 609 121 658 194 q 495 15 560 47 q 361 -17 431 -17 m 525 989 q 433 1015 467 989 q 386 1081 399 1042 q 375 1158 374 1121 l 411 1164 q 436 1067 408 1110 q 533 1025 464 1025 q 645 1067 603 1025 q 706 1164 688 1110 l 742 1158 q 703 1081 731 1121 q 631 1015 675 1042 q 525 989 588 989 z "},"Ů":{"ha":833,"x_min":103,"x_max":803,"o":"m 361 -17 q 172 53 240 -17 q 103 250 103 124 q 106 304 103 278 q 114 364 108 331 l 225 917 l 267 917 l 158 375 q 147 314 150 342 q 144 261 144 286 q 201 83 144 147 q 367 19 257 19 q 481 50 426 19 q 579 149 536 81 q 644 331 622 218 l 761 917 l 803 917 l 683 319 q 609 121 658 194 q 495 15 560 47 q 361 -17 431 -17 m 536 975 q 467 1001 497 975 q 436 1078 436 1026 q 453 1141 436 1113 q 499 1186 469 1169 q 564 1203 528 1203 q 634 1178 604 1203 q 664 1100 664 1153 q 647 1037 664 1065 q 601 992 631 1008 q 536 975 572 975 m 539 1006 q 603 1032 575 1006 q 631 1097 631 1058 q 613 1153 631 1133 q 561 1172 594 1172 q 497 1147 525 1172 q 469 1081 469 1121 q 488 1026 469 1046 q 539 1006 507 1006 z "},"Ű":{"ha":833,"x_min":103,"x_max":806,"o":"m 361 -17 q 172 53 240 -17 q 103 250 103 124 q 106 304 103 278 q 114 364 108 331 l 225 917 l 267 917 l 158 375 q 147 314 150 342 q 144 261 144 286 q 201 83 144 147 q 367 19 257 19 q 481 50 426 19 q 579 149 536 81 q 644 331 622 218 l 761 917 l 803 917 l 683 319 q 609 121 658 194 q 495 15 560 47 q 361 -17 431 -17 m 453 992 l 428 1008 l 583 1197 l 614 1172 l 453 992 m 644 992 l 619 1008 l 775 1197 l 806 1172 l 644 992 z "},"Ǔ":{"ha":833,"x_min":103,"x_max":803,"o":"m 361 -17 q 172 53 240 -17 q 103 250 103 124 q 106 304 103 278 q 114 364 108 331 l 225 917 l 267 917 l 158 375 q 147 314 150 342 q 144 261 144 286 q 201 83 144 147 q 367 19 257 19 q 481 50 426 19 q 579 149 536 81 q 644 331 622 218 l 761 917 l 803 917 l 683 319 q 609 121 658 194 q 495 15 560 47 q 361 -17 431 -17 m 514 986 l 381 1144 l 403 1164 l 533 1025 l 539 1025 l 722 1167 l 742 1144 l 553 986 l 514 986 z "},"Ų":{"ha":833,"x_min":103,"x_max":803,"o":"m 292 -311 q 210 -288 247 -311 q 172 -211 172 -265 q 192 -135 172 -172 q 242 -67 211 -99 q 308 -14 274 -36 q 163 63 222 1 q 103 250 103 125 q 106 304 103 278 q 114 364 108 331 l 225 917 l 267 917 l 158 375 q 147 314 150 342 q 144 261 144 286 q 201 83 144 147 q 367 19 257 19 q 481 50 426 19 q 579 149 536 81 q 644 331 622 218 l 761 917 l 803 917 l 683 319 q 625 147 663 215 q 538 42 588 79 q 428 -8 488 4 q 306 -57 354 -24 q 235 -129 258 -90 q 211 -200 211 -168 q 237 -257 211 -239 q 300 -275 263 -275 q 342 -267 324 -275 q 378 -247 361 -260 l 394 -272 q 351 -300 376 -289 q 292 -311 325 -311 z "},"Ǖ":{"ha":833,"x_min":103,"x_max":803,"o":"m 361 -17 q 172 53 240 -17 q 103 250 103 124 q 106 304 103 278 q 114 364 108 331 l 225 917 l 267 917 l 158 375 q 147 314 150 342 q 144 261 144 286 q 201 83 144 147 q 367 19 257 19 q 481 50 426 19 q 579 149 536 81 q 644 331 622 218 l 761 917 l 803 917 l 683 319 q 609 121 658 194 q 495 15 560 47 q 361 -17 431 -17 m 422 1008 q 396 1018 406 1008 q 386 1044 386 1028 q 400 1083 386 1068 q 431 1097 414 1097 q 457 1088 447 1097 q 467 1058 467 1078 q 453 1023 467 1038 q 422 1008 439 1008 m 653 1008 q 626 1018 636 1008 q 617 1044 617 1028 q 631 1083 617 1068 q 661 1097 644 1097 q 688 1088 678 1097 q 697 1058 697 1078 q 683 1023 697 1038 q 653 1008 669 1008 m 406 1183 l 414 1219 l 733 1219 l 725 1183 l 406 1183 z "},"Ǘ":{"ha":833,"x_min":103,"x_max":803,"o":"m 361 -17 q 172 53 240 -17 q 103 250 103 124 q 106 304 103 278 q 114 364 108 331 l 225 917 l 267 917 l 158 375 q 147 314 150 342 q 144 261 144 286 q 201 83 144 147 q 367 19 257 19 q 481 50 426 19 q 579 149 536 81 q 644 331 622 218 l 761 917 l 803 917 l 683 319 q 609 121 658 194 q 495 15 560 47 q 361 -17 431 -17 m 422 1008 q 396 1018 406 1008 q 386 1044 386 1028 q 400 1083 386 1068 q 431 1097 414 1097 q 457 1088 447 1097 q 467 1058 467 1078 q 453 1023 467 1038 q 422 1008 439 1008 m 653 1008 q 626 1018 636 1008 q 617 1044 617 1028 q 631 1083 617 1068 q 661 1097 644 1097 q 688 1088 678 1097 q 697 1058 697 1078 q 683 1023 697 1038 q 653 1008 669 1008 m 544 1147 l 525 1169 l 681 1294 l 706 1264 l 544 1147 z "},"Ǚ":{"ha":833,"x_min":103,"x_max":803,"o":"m 361 -17 q 172 53 240 -17 q 103 250 103 124 q 106 304 103 278 q 114 364 108 331 l 225 917 l 267 917 l 158 375 q 147 314 150 342 q 144 261 144 286 q 201 83 144 147 q 367 19 257 19 q 481 50 426 19 q 579 149 536 81 q 644 331 622 218 l 761 917 l 803 917 l 683 319 q 609 121 658 194 q 495 15 560 47 q 361 -17 431 -17 m 422 1008 q 396 1018 406 1008 q 386 1044 386 1028 q 400 1083 386 1068 q 431 1097 414 1097 q 457 1088 447 1097 q 467 1058 467 1078 q 453 1023 467 1038 q 422 1008 439 1008 m 653 1008 q 626 1018 636 1008 q 617 1044 617 1028 q 631 1083 617 1068 q 661 1097 644 1097 q 688 1088 678 1097 q 697 1058 697 1078 q 683 1023 697 1038 q 653 1008 669 1008 m 542 1147 l 431 1264 l 453 1283 l 561 1189 l 567 1189 l 719 1283 l 736 1261 l 581 1147 l 542 1147 z "},"Ǜ":{"ha":833,"x_min":103,"x_max":803,"o":"m 361 -17 q 172 53 240 -17 q 103 250 103 124 q 106 304 103 278 q 114 364 108 331 l 225 917 l 267 917 l 158 375 q 147 314 150 342 q 144 261 144 286 q 201 83 144 147 q 367 19 257 19 q 481 50 426 19 q 579 149 536 81 q 644 331 622 218 l 761 917 l 803 917 l 683 319 q 609 121 658 194 q 495 15 560 47 q 361 -17 431 -17 m 422 1008 q 396 1018 406 1008 q 386 1044 386 1028 q 400 1083 386 1068 q 431 1097 414 1097 q 457 1088 447 1097 q 467 1058 467 1078 q 453 1023 467 1038 q 422 1008 439 1008 m 653 1008 q 626 1018 636 1008 q 617 1044 617 1028 q 631 1083 617 1068 q 661 1097 644 1097 q 688 1088 678 1097 q 697 1058 697 1078 q 683 1023 697 1038 q 653 1008 669 1008 m 578 1138 l 461 1279 l 492 1303 l 597 1154 l 578 1138 z "},"Ụ":{"ha":833,"x_min":103,"x_max":803,"o":"m 361 -17 q 172 53 240 -17 q 103 250 103 124 q 106 304 103 278 q 114 364 108 331 l 225 917 l 267 917 l 158 375 q 147 314 150 342 q 144 261 144 286 q 201 83 144 147 q 367 19 257 19 q 481 50 426 19 q 579 149 536 81 q 644 331 622 218 l 761 917 l 803 917 l 683 319 q 609 121 658 194 q 495 15 560 47 q 361 -17 431 -17 z "},"Ủ":{"ha":833,"x_min":103,"x_max":803,"o":"m 361 -17 q 172 53 240 -17 q 103 250 103 124 q 106 304 103 278 q 114 364 108 331 l 225 917 l 267 917 l 158 375 q 147 314 150 342 q 144 261 144 286 q 201 83 144 147 q 367 19 257 19 q 481 50 426 19 q 579 149 536 81 q 644 331 622 218 l 761 917 l 803 917 l 683 319 q 609 121 658 194 q 495 15 560 47 q 361 -17 431 -17 m 472 978 l 467 1008 q 538 1040 508 1021 q 572 1089 568 1058 q 550 1140 579 1122 q 467 1158 521 1157 l 475 1194 q 550 1183 515 1193 q 603 1151 585 1172 q 617 1094 622 1129 q 564 1018 607 1043 q 472 978 521 993 z "},"Ư":{"ha":833,"x_min":103,"x_max":967,"o":"m 794 883 l 764 917 q 881 956 839 919 q 922 1053 922 993 q 920 1084 922 1068 q 911 1118 918 1100 l 953 1136 q 963 1097 960 1114 q 967 1061 967 1079 q 942 970 967 1007 q 878 912 918 933 q 794 883 839 890 m 361 -17 q 172 53 240 -17 q 103 250 103 124 q 106 304 103 278 q 114 364 108 331 l 225 917 l 267 917 l 158 375 q 147 314 150 342 q 144 261 144 286 q 201 83 144 147 q 367 19 257 19 q 481 50 426 19 q 579 149 536 81 q 644 331 622 218 l 761 917 l 803 917 l 683 319 q 609 121 658 194 q 495 15 560 47 q 361 -17 431 -17 z "},"Ứ":{"ha":833,"x_min":103,"x_max":967,"o":"m 794 883 l 764 917 q 881 956 839 919 q 922 1053 922 993 q 920 1084 922 1068 q 911 1118 918 1100 l 953 1136 q 963 1097 960 1114 q 967 1061 967 1079 q 942 970 967 1007 q 878 912 918 933 q 794 883 839 890 m 361 -17 q 172 53 240 -17 q 103 250 103 124 q 106 304 103 278 q 114 364 108 331 l 225 917 l 267 917 l 158 375 q 147 314 150 342 q 144 261 144 286 q 201 83 144 147 q 367 19 257 19 q 481 50 426 19 q 579 149 536 81 q 644 331 622 218 l 761 917 l 803 917 l 683 319 q 609 121 658 194 q 495 15 560 47 q 361 -17 431 -17 m 517 994 l 500 1017 l 694 1169 l 719 1133 l 517 994 z "},"Ừ":{"ha":833,"x_min":103,"x_max":967,"o":"m 794 883 l 764 917 q 881 956 839 919 q 922 1053 922 993 q 920 1084 922 1068 q 911 1118 918 1100 l 953 1136 q 963 1097 960 1114 q 967 1061 967 1079 q 942 970 967 1007 q 878 912 918 933 q 794 883 839 890 m 361 -17 q 172 53 240 -17 q 103 250 103 124 q 106 304 103 278 q 114 364 108 331 l 225 917 l 267 917 l 158 375 q 147 314 150 342 q 144 261 144 286 q 201 83 144 147 q 367 19 257 19 q 481 50 426 19 q 579 149 536 81 q 644 331 622 218 l 761 917 l 803 917 l 683 319 q 609 121 658 194 q 495 15 560 47 q 361 -17 431 -17 m 558 981 l 406 1150 l 439 1178 l 581 1000 l 558 981 z "},"Ử":{"ha":833,"x_min":103,"x_max":967,"o":"m 794 883 l 764 917 q 881 956 839 919 q 922 1053 922 993 q 920 1084 922 1068 q 911 1118 918 1100 l 953 1136 q 963 1097 960 1114 q 967 1061 967 1079 q 942 970 967 1007 q 878 912 918 933 q 794 883 839 890 m 361 -17 q 172 53 240 -17 q 103 250 103 124 q 106 304 103 278 q 114 364 108 331 l 225 917 l 267 917 l 158 375 q 147 314 150 342 q 144 261 144 286 q 201 83 144 147 q 367 19 257 19 q 481 50 426 19 q 579 149 536 81 q 644 331 622 218 l 761 917 l 803 917 l 683 319 q 609 121 658 194 q 495 15 560 47 q 361 -17 431 -17 m 472 978 l 467 1008 q 538 1040 508 1021 q 572 1089 568 1058 q 550 1140 579 1122 q 467 1158 521 1157 l 475 1194 q 550 1183 515 1193 q 603 1151 585 1172 q 617 1094 622 1129 q 564 1018 607 1043 q 472 978 521 993 z "},"Ữ":{"ha":833,"x_min":103,"x_max":967,"o":"m 794 883 l 764 917 q 881 956 839 919 q 922 1053 922 993 q 920 1084 922 1068 q 911 1118 918 1100 l 953 1136 q 963 1097 960 1114 q 967 1061 967 1079 q 942 970 967 1007 q 878 912 918 933 q 794 883 839 890 m 361 -17 q 172 53 240 -17 q 103 250 103 124 q 106 304 103 278 q 114 364 108 331 l 225 917 l 267 917 l 158 375 q 147 314 150 342 q 144 261 144 286 q 201 83 144 147 q 367 19 257 19 q 481 50 426 19 q 579 149 536 81 q 644 331 622 218 l 761 917 l 803 917 l 683 319 q 609 121 658 194 q 495 15 560 47 q 361 -17 431 -17 m 636 1003 q 578 1020 601 1003 q 536 1061 554 1038 q 498 1102 518 1085 q 450 1119 478 1119 q 392 1088 418 1119 q 350 1006 365 1057 l 319 1008 q 367 1113 331 1071 q 458 1156 404 1156 q 517 1138 494 1156 q 558 1097 540 1121 q 596 1056 576 1074 q 644 1039 615 1039 q 702 1070 676 1039 q 744 1153 728 1101 l 775 1150 q 728 1045 765 1088 q 636 1003 690 1003 z "},"Ự":{"ha":833,"x_min":103,"x_max":967,"o":"m 794 883 l 764 917 q 881 956 839 919 q 922 1053 922 993 q 920 1084 922 1068 q 911 1118 918 1100 l 953 1136 q 963 1097 960 1114 q 967 1061 967 1079 q 942 970 967 1007 q 878 912 918 933 q 794 883 839 890 m 361 -17 q 172 53 240 -17 q 103 250 103 124 q 106 304 103 278 q 114 364 108 331 l 225 917 l 267 917 l 158 375 q 147 314 150 342 q 144 261 144 286 q 201 83 144 147 q 367 19 257 19 q 481 50 426 19 q 579 149 536 81 q 644 331 622 218 l 761 917 l 803 917 l 683 319 q 609 121 658 194 q 495 15 560 47 q 361 -17 431 -17 z "},"Ṿ":{"ha":833,"x_min":208,"x_max":857,"o":"m 308 0 l 208 917 l 247 917 l 306 363 q 322 208 314 286 q 339 53 331 131 l 344 53 q 399 156 371 103 q 456 260 428 208 q 511 361 485 313 l 814 917 l 857 917 l 356 0 l 308 0 z "},"Ẁ":{"ha":833,"x_min":107,"x_max":874,"o":"m 107 0 l 149 917 l 189 917 l 154 194 q 150 108 153 146 q 146 49 147 69 q 144 28 144 28 l 150 28 q 167 67 157 44 q 187 115 176 90 q 207 163 197 140 q 222 197 217 185 l 433 649 l 482 649 l 528 292 q 539 206 533 256 q 550 109 544 156 q 557 36 556 63 l 565 36 q 575 74 569 51 q 588 120 581 96 q 601 167 594 144 q 611 204 607 189 l 835 917 l 874 917 l 588 0 l 525 0 l 471 439 q 460 526 465 479 q 453 601 456 574 l 446 601 q 416 525 436 572 q 376 438 396 478 l 171 0 l 107 0 m 558 981 l 406 1150 l 439 1178 l 581 1000 l 558 981 z "},"Ẃ":{"ha":833,"x_min":107,"x_max":874,"o":"m 107 0 l 149 917 l 189 917 l 154 194 q 150 108 153 146 q 146 49 147 69 q 144 28 144 28 l 150 28 q 167 67 157 44 q 187 115 176 90 q 207 163 197 140 q 222 197 217 185 l 433 649 l 482 649 l 528 292 q 539 206 533 256 q 550 109 544 156 q 557 36 556 63 l 565 36 q 575 74 569 51 q 588 120 581 96 q 601 167 594 144 q 611 204 607 189 l 835 917 l 874 917 l 588 0 l 525 0 l 471 439 q 460 526 465 479 q 453 601 456 574 l 446 601 q 416 525 436 572 q 376 438 396 478 l 171 0 l 107 0 m 517 994 l 500 1017 l 694 1169 l 719 1133 l 517 994 z "},"Ŵ":{"ha":833,"x_min":107,"x_max":874,"o":"m 107 0 l 149 917 l 189 917 l 154 194 q 150 108 153 146 q 146 49 147 69 q 144 28 144 28 l 150 28 q 167 67 157 44 q 187 115 176 90 q 207 163 197 140 q 222 197 217 185 l 433 649 l 482 649 l 528 292 q 539 206 533 256 q 550 109 544 156 q 557 36 556 63 l 565 36 q 575 74 569 51 q 588 120 581 96 q 601 167 594 144 q 611 204 607 189 l 835 917 l 874 917 l 588 0 l 525 0 l 471 439 q 460 526 465 479 q 453 601 456 574 l 446 601 q 416 525 436 572 q 376 438 396 478 l 171 0 l 107 0 m 369 986 l 350 1008 l 539 1167 l 578 1167 l 711 1008 l 689 989 l 558 1128 l 553 1128 l 369 986 z "},"Ẅ":{"ha":833,"x_min":107,"x_max":874,"o":"m 107 0 l 149 917 l 189 917 l 154 194 q 150 108 153 146 q 146 49 147 69 q 144 28 144 28 l 150 28 q 167 67 157 44 q 187 115 176 90 q 207 163 197 140 q 222 197 217 185 l 433 649 l 482 649 l 528 292 q 539 206 533 256 q 550 109 544 156 q 557 36 556 63 l 565 36 q 575 74 569 51 q 588 120 581 96 q 601 167 594 144 q 611 204 607 189 l 835 917 l 874 917 l 588 0 l 525 0 l 471 439 q 460 526 465 479 q 453 601 456 574 l 446 601 q 416 525 436 572 q 376 438 396 478 l 171 0 l 107 0 m 422 1008 q 396 1018 406 1008 q 386 1044 386 1028 q 400 1083 386 1068 q 431 1097 414 1097 q 457 1088 447 1097 q 467 1058 467 1078 q 453 1023 467 1038 q 422 1008 439 1008 m 653 1008 q 626 1018 636 1008 q 617 1044 617 1028 q 631 1083 617 1068 q 661 1097 644 1097 q 688 1088 678 1097 q 697 1058 697 1078 q 683 1023 697 1038 q 653 1008 669 1008 z "},"Ỳ":{"ha":833,"x_min":175,"x_max":847,"o":"m 311 0 l 381 342 l 175 917 l 217 917 l 328 603 q 369 481 349 544 q 403 372 390 417 l 408 372 q 452 438 425 399 q 510 521 479 478 q 569 603 540 564 l 803 917 l 847 917 l 419 336 l 353 0 l 311 0 m 539 981 l 386 1150 l 419 1178 l 561 1000 l 539 981 z "},"Ý":{"ha":833,"x_min":175,"x_max":847,"o":"m 311 0 l 381 342 l 175 917 l 217 917 l 328 603 q 369 481 349 544 q 403 372 390 417 l 408 372 q 452 438 425 399 q 510 521 479 478 q 569 603 540 564 l 803 917 l 847 917 l 419 336 l 353 0 l 311 0 m 497 994 l 481 1017 l 675 1169 l 700 1133 l 497 994 z "},"Ŷ":{"ha":833,"x_min":175,"x_max":847,"o":"m 311 0 l 381 342 l 175 917 l 217 917 l 328 603 q 369 481 349 544 q 403 372 390 417 l 408 372 q 452 438 425 399 q 510 521 479 478 q 569 603 540 564 l 803 917 l 847 917 l 419 336 l 353 0 l 311 0 m 350 986 l 331 1008 l 519 1167 l 558 1167 l 692 1008 l 669 989 l 539 1128 l 533 1128 l 350 986 z "},"Ÿ":{"ha":833,"x_min":175,"x_max":847,"o":"m 311 0 l 381 342 l 175 917 l 217 917 l 328 603 q 369 481 349 544 q 403 372 390 417 l 408 372 q 452 438 425 399 q 510 521 479 478 q 569 603 540 564 l 803 917 l 847 917 l 419 336 l 353 0 l 311 0 m 403 1008 q 376 1018 386 1008 q 367 1044 367 1028 q 381 1083 367 1068 q 411 1097 394 1097 q 438 1088 428 1097 q 447 1058 447 1078 q 433 1023 447 1038 q 403 1008 419 1008 m 633 1008 q 607 1018 617 1008 q 597 1044 597 1028 q 611 1083 597 1068 q 642 1097 625 1097 q 668 1088 658 1097 q 678 1058 678 1078 q 664 1023 678 1038 q 633 1008 650 1008 z "},"Ẏ":{"ha":833,"x_min":175,"x_max":847,"o":"m 311 0 l 381 342 l 175 917 l 217 917 l 328 603 q 369 481 349 544 q 403 372 390 417 l 408 372 q 452 438 425 399 q 510 521 479 478 q 569 603 540 564 l 803 917 l 847 917 l 419 336 l 353 0 l 311 0 m 517 1008 q 489 1019 500 1008 q 478 1047 478 1031 q 494 1088 478 1072 q 528 1103 510 1103 q 556 1092 544 1103 q 567 1061 567 1081 q 551 1024 567 1039 q 517 1008 536 1008 z "},"Ỵ":{"ha":833,"x_min":175,"x_max":847,"o":"m 311 0 l 381 342 l 175 917 l 217 917 l 328 603 q 369 481 349 544 q 403 372 390 417 l 408 372 q 452 438 425 399 q 510 521 479 478 q 569 603 540 564 l 803 917 l 847 917 l 419 336 l 353 0 l 311 0 z "},"Ỷ":{"ha":833,"x_min":175,"x_max":847,"o":"m 311 0 l 381 342 l 175 917 l 217 917 l 328 603 q 369 481 349 544 q 403 372 390 417 l 408 372 q 452 438 425 399 q 510 521 479 478 q 569 603 540 564 l 803 917 l 847 917 l 419 336 l 353 0 l 311 0 m 453 978 l 447 1008 q 519 1040 489 1021 q 553 1089 549 1058 q 531 1140 560 1122 q 447 1158 501 1157 l 456 1194 q 531 1183 496 1193 q 584 1151 565 1172 q 597 1094 603 1129 q 544 1018 588 1043 q 453 978 501 993 z "},"Ỹ":{"ha":833,"x_min":175,"x_max":847,"o":"m 311 0 l 381 342 l 175 917 l 217 917 l 328 603 q 369 481 349 544 q 403 372 390 417 l 408 372 q 452 438 425 399 q 510 521 479 478 q 569 603 540 564 l 803 917 l 847 917 l 419 336 l 353 0 l 311 0 m 617 1003 q 558 1020 582 1003 q 517 1061 535 1038 q 478 1102 499 1085 q 431 1119 458 1119 q 372 1088 399 1119 q 331 1006 346 1057 l 300 1008 q 348 1113 311 1071 q 439 1156 385 1156 q 498 1138 475 1156 q 539 1097 521 1121 q 576 1056 557 1074 q 625 1039 596 1039 q 683 1070 657 1039 q 725 1153 708 1101 l 756 1150 q 708 1045 746 1088 q 617 1003 671 1003 z "},"Ź":{"ha":833,"x_min":33,"x_max":800,"o":"m 85 19 l 71 36 l 675 36 l 667 0 l 33 0 l 39 24 l 751 903 l 765 881 l 192 881 l 200 917 l 800 917 l 794 892 l 85 19 m 497 994 l 481 1017 l 675 1169 l 700 1133 l 497 994 z "},"Ž":{"ha":833,"x_min":33,"x_max":800,"o":"m 85 19 l 71 36 l 675 36 l 667 0 l 33 0 l 39 24 l 751 903 l 765 881 l 192 881 l 200 917 l 800 917 l 794 892 l 85 19 m 494 986 l 361 1144 l 383 1164 l 514 1025 l 519 1025 l 703 1167 l 722 1144 l 533 986 l 494 986 z "},"Ż":{"ha":833,"x_min":33,"x_max":800,"o":"m 85 19 l 71 36 l 675 36 l 667 0 l 33 0 l 39 24 l 751 903 l 765 881 l 192 881 l 200 917 l 800 917 l 794 892 l 85 19 m 517 1008 q 489 1019 500 1008 q 478 1047 478 1031 q 494 1088 478 1072 q 528 1103 510 1103 q 556 1092 544 1103 q 567 1061 567 1081 q 551 1024 567 1039 q 517 1008 536 1008 z "},"Ẑ":{"ha":833,"x_min":33,"x_max":800,"o":"m 85 19 l 71 36 l 675 36 l 667 0 l 33 0 l 39 24 l 751 903 l 765 881 l 192 881 l 200 917 l 800 917 l 794 892 l 85 19 m 350 986 l 331 1008 l 519 1167 l 558 1167 l 692 1008 l 669 989 l 539 1128 l 533 1128 l 350 986 z "},"Ẓ":{"ha":833,"x_min":33,"x_max":800,"o":"m 85 19 l 71 36 l 675 36 l 667 0 l 33 0 l 39 24 l 751 903 l 765 881 l 192 881 l 200 917 l 800 917 l 794 892 l 85 19 z "},"Ẕ":{"ha":833,"x_min":33,"x_max":800,"o":"m 85 19 l 71 36 l 675 36 l 667 0 l 33 0 l 39 24 l 751 903 l 765 881 l 192 881 l 200 917 l 800 917 l 794 892 l 85 19 z "},"Ð":{"ha":833,"x_min":25,"x_max":764,"o":"m 414 469 l 25 469 l 33 503 l 144 506 l 422 506 l 414 469 m 42 0 l 225 917 l 389 917 q 672 819 579 917 q 764 561 764 722 q 732 342 764 444 q 637 164 700 240 q 479 44 574 88 q 258 0 385 0 l 42 0 m 89 36 l 261 36 q 514 106 411 36 q 669 294 617 175 q 722 558 722 413 q 640 792 722 703 q 386 881 557 881 l 258 881 l 89 36 z "},"Þ":{"ha":833,"x_min":90,"x_max":754,"o":"m 90 0 l 274 917 l 315 917 l 282 744 l 488 744 q 631 722 571 744 q 722 654 690 700 q 754 536 754 608 q 728 405 754 461 q 651 311 701 349 q 531 255 601 274 q 371 236 460 236 l 179 236 l 132 0 l 90 0 m 188 272 l 363 272 q 624 338 536 272 q 713 533 713 404 q 649 668 713 628 q 463 708 586 708 l 274 708 l 188 272 z "},"Ə":{"ha":833,"x_min":89,"x_max":781,"o":"m 328 -17 q 153 57 218 -17 q 89 299 89 131 q 92 372 89 333 q 103 454 96 411 l 738 454 l 731 418 l 138 418 q 136 213 124 303 q 195 71 149 122 q 326 19 242 19 q 490 64 415 19 q 621 187 565 108 q 708 369 676 265 q 739 593 739 474 q 685 815 739 731 q 519 899 632 899 q 383 869 451 899 q 267 796 315 840 l 244 824 q 368 901 293 868 q 524 933 443 933 q 717 844 654 933 q 781 597 781 756 q 747 353 781 465 q 651 158 713 242 q 506 29 589 75 q 328 -17 424 -17 z "},"Ŋ":{"ha":833,"x_min":44,"x_max":764,"o":"m 447 -17 q 397 -9 425 -17 q 350 8 369 -1 l 371 42 q 407 26 389 32 q 450 19 425 19 q 555 72 506 19 q 642 211 604 124 q 701 406 679 299 q 722 625 722 514 q 696 787 722 728 q 623 872 669 846 q 514 897 576 897 q 384 860 463 897 q 236 753 306 824 l 86 0 l 44 0 l 228 917 l 269 917 l 247 806 q 331 869 283 840 q 428 916 379 899 q 517 933 478 933 q 696 863 628 933 q 764 633 764 793 q 740 392 764 508 q 674 183 717 275 q 574 38 632 92 q 447 -17 517 -17 z "},"Ĳ":{"ha":833,"x_min":94,"x_max":753,"o":"m 94 0 l 278 917 l 319 917 l 136 0 l 94 0 m 408 -208 q 361 -201 379 -208 q 328 -186 343 -194 l 344 -150 q 371 -164 357 -158 q 411 -169 385 -169 q 481 -131 453 -169 q 522 -28 508 -92 l 711 917 l 753 917 l 567 -17 q 534 -119 556 -76 q 481 -185 513 -162 q 408 -208 450 -208 z "},"à":{"ha":833,"x_min":92,"x_max":747,"o":"m 328 -17 q 157 47 222 -17 q 92 236 92 111 q 119 403 92 324 q 197 546 147 483 q 315 644 247 608 q 464 681 383 681 q 596 650 539 681 q 683 569 653 619 l 689 569 l 714 664 l 747 664 l 614 0 l 581 0 l 597 108 l 592 108 q 467 19 536 54 q 328 -17 399 -17 m 331 19 q 469 59 397 19 q 608 169 542 99 l 681 517 q 579 615 635 586 q 461 644 524 644 q 330 610 390 644 q 225 519 269 576 q 156 391 181 463 q 131 244 131 319 q 185 75 131 131 q 331 19 239 19 m 569 792 l 411 1014 l 447 1039 l 597 811 l 569 792 z "},"á":{"ha":833,"x_min":92,"x_max":747,"o":"m 328 -17 q 157 47 222 -17 q 92 236 92 111 q 119 403 92 324 q 197 546 147 483 q 315 644 247 608 q 464 681 383 681 q 596 650 539 681 q 683 569 653 619 l 689 569 l 714 664 l 747 664 l 614 0 l 581 0 l 597 108 l 592 108 q 467 19 536 54 q 328 -17 399 -17 m 331 19 q 469 59 397 19 q 608 169 542 99 l 681 517 q 579 615 635 586 q 461 644 524 644 q 330 610 390 644 q 225 519 269 576 q 156 391 181 463 q 131 244 131 319 q 185 75 131 131 q 331 19 239 19 m 478 806 l 456 831 l 669 1028 l 697 994 l 478 806 z "},"â":{"ha":833,"x_min":92,"x_max":747,"o":"m 328 -17 q 157 47 222 -17 q 92 236 92 111 q 119 403 92 324 q 197 546 147 483 q 315 644 247 608 q 464 681 383 681 q 596 650 539 681 q 683 569 653 619 l 689 569 l 714 664 l 747 664 l 614 0 l 581 0 l 597 108 l 592 108 q 467 19 536 54 q 328 -17 399 -17 m 331 19 q 469 59 397 19 q 608 169 542 99 l 681 517 q 579 615 635 586 q 461 644 524 644 q 330 610 390 644 q 225 519 269 576 q 156 391 181 463 q 131 244 131 319 q 185 75 131 131 q 331 19 239 19 m 364 797 l 339 819 l 539 1022 l 578 1022 l 706 817 l 678 797 l 558 981 l 553 981 l 364 797 z "},"ã":{"ha":833,"x_min":92,"x_max":778,"o":"m 328 -17 q 157 47 222 -17 q 92 236 92 111 q 119 403 92 324 q 197 546 147 483 q 315 644 247 608 q 464 681 383 681 q 596 650 539 681 q 683 569 653 619 l 689 569 l 714 664 l 747 664 l 614 0 l 581 0 l 597 108 l 592 108 q 467 19 536 54 q 328 -17 399 -17 m 331 19 q 469 59 397 19 q 608 169 542 99 l 681 517 q 579 615 635 586 q 461 644 524 644 q 330 610 390 644 q 225 519 269 576 q 156 391 181 463 q 131 244 131 319 q 185 75 131 131 q 331 19 239 19 m 636 806 q 576 827 599 806 q 538 876 554 849 q 503 926 522 904 q 453 947 483 947 q 390 906 414 947 q 353 808 365 865 l 317 811 q 343 890 326 851 q 388 955 360 929 q 458 981 417 981 q 518 959 496 981 q 556 910 540 938 q 592 860 572 882 q 642 839 611 839 q 706 881 682 839 q 742 978 729 922 l 778 975 q 751 897 768 936 q 707 832 735 858 q 636 806 679 806 z "},"ä":{"ha":833,"x_min":92,"x_max":747,"o":"m 328 -17 q 157 47 222 -17 q 92 236 92 111 q 119 403 92 324 q 197 546 147 483 q 315 644 247 608 q 464 681 383 681 q 596 650 539 681 q 683 569 653 619 l 689 569 l 714 664 l 747 664 l 614 0 l 581 0 l 597 108 l 592 108 q 467 19 536 54 q 328 -17 399 -17 m 331 19 q 469 59 397 19 q 608 169 542 99 l 681 517 q 579 615 635 586 q 461 644 524 644 q 330 610 390 644 q 225 519 269 576 q 156 391 181 463 q 131 244 131 319 q 185 75 131 131 q 331 19 239 19 m 414 836 q 384 848 396 836 q 372 881 372 860 q 389 926 372 908 q 428 944 406 944 q 458 933 447 944 q 469 900 469 921 q 453 855 469 874 q 414 836 438 836 m 644 836 q 615 848 626 836 q 603 881 603 860 q 619 926 603 908 q 658 944 636 944 q 689 933 678 944 q 700 900 700 921 q 684 855 700 874 q 644 836 668 836 z "},"ā":{"ha":833,"x_min":92,"x_max":747,"o":"m 328 -17 q 157 47 222 -17 q 92 236 92 111 q 119 403 92 324 q 197 546 147 483 q 315 644 247 608 q 464 681 383 681 q 596 650 539 681 q 683 569 653 619 l 689 569 l 714 664 l 747 664 l 614 0 l 581 0 l 597 108 l 592 108 q 467 19 536 54 q 328 -17 399 -17 m 331 19 q 469 59 397 19 q 608 169 542 99 l 681 517 q 579 615 635 586 q 461 644 524 644 q 330 610 390 644 q 225 519 269 576 q 156 391 181 463 q 131 244 131 319 q 185 75 131 131 q 331 19 239 19 m 367 844 l 372 881 l 694 881 l 689 844 l 367 844 z "},"ă":{"ha":833,"x_min":92,"x_max":761,"o":"m 328 -17 q 157 47 222 -17 q 92 236 92 111 q 119 403 92 324 q 197 546 147 483 q 315 644 247 608 q 464 681 383 681 q 596 650 539 681 q 683 569 653 619 l 689 569 l 714 664 l 747 664 l 614 0 l 581 0 l 597 108 l 592 108 q 467 19 536 54 q 328 -17 399 -17 m 331 19 q 469 59 397 19 q 608 169 542 99 l 681 517 q 579 615 635 586 q 461 644 524 644 q 330 610 390 644 q 225 519 269 576 q 156 391 181 463 q 131 244 131 319 q 185 75 131 131 q 331 19 239 19 m 519 792 q 415 824 451 792 q 367 904 379 857 q 356 994 354 951 l 392 1000 q 401 920 389 960 q 445 854 414 881 q 528 828 476 828 q 619 854 579 828 q 685 920 658 881 q 725 1000 711 960 l 761 994 q 719 904 749 951 q 640 824 689 857 q 519 792 590 792 z "},"å":{"ha":833,"x_min":92,"x_max":747,"o":"m 328 -17 q 157 47 222 -17 q 92 236 92 111 q 119 403 92 324 q 197 546 147 483 q 315 644 247 608 q 464 681 383 681 q 596 650 539 681 q 683 569 653 619 l 689 569 l 714 664 l 747 664 l 614 0 l 581 0 l 597 108 l 592 108 q 467 19 536 54 q 328 -17 399 -17 m 331 19 q 469 59 397 19 q 608 169 542 99 l 681 517 q 579 615 635 586 q 461 644 524 644 q 330 610 390 644 q 225 519 269 576 q 156 391 181 463 q 131 244 131 319 q 185 75 131 131 q 331 19 239 19 m 525 761 q 447 788 479 761 q 414 867 414 815 q 452 972 414 926 q 550 1017 490 1017 q 628 990 596 1017 q 661 911 661 964 q 624 806 661 851 q 525 761 586 761 m 528 792 q 598 826 568 792 q 628 908 628 861 q 606 965 628 944 q 547 986 585 986 q 477 952 507 986 q 447 869 447 918 q 469 813 447 835 q 528 792 490 792 z "},"ǻ":{"ha":833,"x_min":92,"x_max":747,"o":"m 508 978 l 492 1003 l 672 1128 l 694 1092 l 508 978 m 328 -17 q 157 47 222 -17 q 92 236 92 111 q 119 403 92 324 q 197 546 147 483 q 315 644 247 608 q 464 681 383 681 q 596 650 539 681 q 683 569 653 619 l 689 569 l 714 664 l 747 664 l 614 0 l 581 0 l 597 108 l 592 108 q 467 19 536 54 q 328 -17 399 -17 m 331 19 q 469 59 397 19 q 608 169 542 99 l 681 517 q 579 615 635 586 q 461 644 524 644 q 330 610 390 644 q 225 519 269 576 q 156 391 181 463 q 131 244 131 319 q 185 75 131 131 q 331 19 239 19 m 525 761 q 447 788 479 761 q 414 867 414 815 q 452 972 414 926 q 550 1017 490 1017 q 628 990 596 1017 q 661 911 661 964 q 624 806 661 851 q 525 761 586 761 m 528 792 q 598 826 568 792 q 628 908 628 861 q 606 965 628 944 q 547 986 585 986 q 477 952 507 986 q 447 869 447 918 q 469 813 447 835 q 528 792 490 792 z "},"ǎ":{"ha":833,"x_min":92,"x_max":747,"o":"m 328 -17 q 157 47 222 -17 q 92 236 92 111 q 119 403 92 324 q 197 546 147 483 q 315 644 247 608 q 464 681 383 681 q 596 650 539 681 q 683 569 653 619 l 689 569 l 714 664 l 747 664 l 614 0 l 581 0 l 597 108 l 592 108 q 467 19 536 54 q 328 -17 399 -17 m 331 19 q 469 59 397 19 q 608 169 542 99 l 681 517 q 579 615 635 586 q 461 644 524 644 q 330 610 390 644 q 225 519 269 576 q 156 391 181 463 q 131 244 131 319 q 185 75 131 131 q 331 19 239 19 m 497 794 l 369 1000 l 397 1019 l 517 836 l 522 836 l 711 1019 l 736 997 l 536 794 l 497 794 z "},"ą":{"ha":833,"x_min":92,"x_max":747,"o":"m 519 -311 q 438 -288 475 -311 q 400 -211 400 -265 q 424 -126 400 -164 q 490 -57 449 -87 q 581 0 531 -26 l 597 108 l 592 108 q 467 19 536 54 q 328 -17 399 -17 q 157 47 222 -17 q 92 236 92 111 q 119 403 92 324 q 197 546 147 483 q 315 644 247 608 q 464 681 383 681 q 596 650 539 681 q 683 569 653 619 l 689 569 l 714 664 l 747 664 l 611 -11 q 485 -101 532 -54 q 439 -200 439 -147 q 465 -257 439 -239 q 528 -275 490 -275 q 570 -267 551 -275 q 606 -247 589 -260 l 622 -272 q 578 -300 604 -289 q 519 -311 553 -311 m 331 19 q 469 59 397 19 q 608 169 542 99 l 681 517 q 579 615 635 586 q 461 644 524 644 q 330 610 390 644 q 225 519 269 576 q 156 391 181 463 q 131 244 131 319 q 185 75 131 131 q 331 19 239 19 z "},"ạ":{"ha":833,"x_min":92,"x_max":747,"o":"m 328 -17 q 157 47 222 -17 q 92 236 92 111 q 119 403 92 324 q 197 546 147 483 q 315 644 247 608 q 464 681 383 681 q 596 650 539 681 q 683 569 653 619 l 689 569 l 714 664 l 747 664 l 614 0 l 581 0 l 597 108 l 592 108 q 467 19 536 54 q 328 -17 399 -17 m 331 19 q 469 59 397 19 q 608 169 542 99 l 681 517 q 579 615 635 586 q 461 644 524 644 q 330 610 390 644 q 225 519 269 576 q 156 391 181 463 q 131 244 131 319 q 185 75 131 131 q 331 19 239 19 z "},"ả":{"ha":833,"x_min":92,"x_max":747,"o":"m 328 -17 q 157 47 222 -17 q 92 236 92 111 q 119 403 92 324 q 197 546 147 483 q 315 644 247 608 q 464 681 383 681 q 596 650 539 681 q 683 569 653 619 l 689 569 l 714 664 l 747 664 l 614 0 l 581 0 l 597 108 l 592 108 q 467 19 536 54 q 328 -17 399 -17 m 331 19 q 469 59 397 19 q 608 169 542 99 l 681 517 q 579 615 635 586 q 461 644 524 644 q 330 610 390 644 q 225 519 269 576 q 156 391 181 463 q 131 244 131 319 q 185 75 131 131 q 331 19 239 19 m 492 800 l 486 833 q 558 865 528 846 q 592 914 588 883 q 569 965 599 947 q 486 983 540 982 l 494 1019 q 569 1008 535 1018 q 623 976 604 997 q 636 919 642 954 q 607 862 629 885 q 554 824 585 839 q 492 800 524 810 z "},"ấ":{"ha":833,"x_min":92,"x_max":842,"o":"m 328 -17 q 157 47 222 -17 q 92 236 92 111 q 119 403 92 324 q 197 546 147 483 q 315 644 247 608 q 464 681 383 681 q 596 650 539 681 q 683 569 653 619 l 689 569 l 714 664 l 747 664 l 614 0 l 581 0 l 597 108 l 592 108 q 467 19 536 54 q 328 -17 399 -17 m 331 19 q 469 59 397 19 q 608 169 542 99 l 681 517 q 579 615 635 586 q 461 644 524 644 q 330 610 390 644 q 225 519 269 576 q 156 391 181 463 q 131 244 131 319 q 185 75 131 131 q 331 19 239 19 m 375 797 l 358 822 l 528 950 l 567 950 l 692 819 l 669 797 l 550 908 l 544 908 l 375 797 m 676 889 l 653 914 l 811 1058 l 842 1028 l 676 889 z "},"ầ":{"ha":833,"x_min":92,"x_max":747,"o":"m 328 -17 q 157 47 222 -17 q 92 236 92 111 q 119 403 92 324 q 197 546 147 483 q 315 644 247 608 q 464 681 383 681 q 596 650 539 681 q 683 569 653 619 l 689 569 l 714 664 l 747 664 l 614 0 l 581 0 l 597 108 l 592 108 q 467 19 536 54 q 328 -17 399 -17 m 331 19 q 469 59 397 19 q 608 169 542 99 l 681 517 q 579 615 635 586 q 461 644 524 644 q 330 610 390 644 q 225 519 269 576 q 156 391 181 463 q 131 244 131 319 q 185 75 131 131 q 331 19 239 19 m 375 797 l 358 822 l 528 950 l 567 950 l 692 819 l 669 797 l 550 908 l 544 908 l 375 797 m 397 889 l 261 1039 l 297 1067 l 425 911 l 397 889 z "},"ẩ":{"ha":833,"x_min":92,"x_max":797,"o":"m 328 -17 q 157 47 222 -17 q 92 236 92 111 q 119 403 92 324 q 197 546 147 483 q 315 644 247 608 q 464 681 383 681 q 596 650 539 681 q 683 569 653 619 l 689 569 l 714 664 l 747 664 l 614 0 l 581 0 l 597 108 l 592 108 q 467 19 536 54 q 328 -17 399 -17 m 331 19 q 469 59 397 19 q 608 169 542 99 l 681 517 q 579 615 635 586 q 461 644 524 644 q 330 610 390 644 q 225 519 269 576 q 156 391 181 463 q 131 244 131 319 q 185 75 131 131 q 331 19 239 19 m 375 797 l 358 822 l 528 950 l 567 950 l 692 819 l 669 797 l 550 908 l 544 908 l 375 797 m 675 872 l 664 903 q 720 929 697 914 q 747 969 743 944 q 731 1019 754 1003 q 658 1036 708 1035 l 664 1069 q 757 1047 717 1068 q 789 975 797 1025 q 746 906 781 929 q 675 872 711 883 z "},"ẫ":{"ha":833,"x_min":92,"x_max":747,"o":"m 328 -17 q 157 47 222 -17 q 92 236 92 111 q 119 403 92 324 q 197 546 147 483 q 315 644 247 608 q 464 681 383 681 q 596 650 539 681 q 683 569 653 619 l 689 569 l 714 664 l 747 664 l 614 0 l 581 0 l 597 108 l 592 108 q 467 19 536 54 q 328 -17 399 -17 m 331 19 q 469 59 397 19 q 608 169 542 99 l 681 517 q 579 615 635 586 q 461 644 524 644 q 330 610 390 644 q 225 519 269 576 q 156 391 181 463 q 131 244 131 319 q 185 75 131 131 q 331 19 239 19 m 375 797 l 358 822 l 528 950 l 567 950 l 692 819 l 669 797 l 550 908 l 544 908 l 375 797 m 650 981 q 578 995 608 981 q 522 1024 549 1010 q 464 1039 496 1039 q 428 1023 440 1039 q 406 975 417 1007 l 372 978 q 403 1042 381 1010 q 472 1075 426 1075 q 544 1060 515 1075 q 598 1031 572 1046 q 656 1017 624 1017 q 692 1033 679 1017 q 714 1081 704 1050 l 747 1078 q 717 1013 739 1046 q 650 981 696 981 z "},"ậ":{"ha":833,"x_min":92,"x_max":747,"o":"m 328 -17 q 157 47 222 -17 q 92 236 92 111 q 119 403 92 324 q 197 546 147 483 q 315 644 247 608 q 464 681 383 681 q 596 650 539 681 q 683 569 653 619 l 689 569 l 714 664 l 747 664 l 614 0 l 581 0 l 597 108 l 592 108 q 467 19 536 54 q 328 -17 399 -17 m 331 19 q 469 59 397 19 q 608 169 542 99 l 681 517 q 579 615 635 586 q 461 644 524 644 q 330 610 390 644 q 225 519 269 576 q 156 391 181 463 q 131 244 131 319 q 185 75 131 131 q 331 19 239 19 m 364 797 l 339 819 l 539 1022 l 578 1022 l 706 817 l 678 797 l 558 981 l 553 981 l 364 797 z "},"ắ":{"ha":833,"x_min":92,"x_max":761,"o":"m 328 -17 q 157 47 222 -17 q 92 236 92 111 q 119 403 92 324 q 197 546 147 483 q 315 644 247 608 q 464 681 383 681 q 596 650 539 681 q 683 569 653 619 l 689 569 l 714 664 l 747 664 l 614 0 l 581 0 l 597 108 l 592 108 q 467 19 536 54 q 328 -17 399 -17 m 331 19 q 469 59 397 19 q 608 169 542 99 l 681 517 q 579 615 635 586 q 461 644 524 644 q 330 610 390 644 q 225 519 269 576 q 156 391 181 463 q 131 244 131 319 q 185 75 131 131 q 331 19 239 19 m 519 792 q 415 824 451 792 q 367 904 379 857 q 356 994 354 951 l 392 1000 q 401 920 389 960 q 445 854 414 881 q 528 828 476 828 q 619 854 579 828 q 685 920 658 881 q 725 1000 711 960 l 761 994 q 719 904 749 951 q 640 824 689 857 q 519 792 590 792 m 544 975 l 524 999 l 667 1126 l 694 1096 l 544 975 z "},"ằ":{"ha":833,"x_min":92,"x_max":761,"o":"m 328 -17 q 157 47 222 -17 q 92 236 92 111 q 119 403 92 324 q 197 546 147 483 q 315 644 247 608 q 464 681 383 681 q 596 650 539 681 q 683 569 653 619 l 689 569 l 714 664 l 747 664 l 614 0 l 581 0 l 597 108 l 592 108 q 467 19 536 54 q 328 -17 399 -17 m 331 19 q 469 59 397 19 q 608 169 542 99 l 681 517 q 579 615 635 586 q 461 644 524 644 q 330 610 390 644 q 225 519 269 576 q 156 391 181 463 q 131 244 131 319 q 185 75 131 131 q 331 19 239 19 m 519 792 q 415 824 451 792 q 367 904 379 857 q 356 994 354 951 l 392 1000 q 401 920 389 960 q 445 854 414 881 q 528 828 476 828 q 619 854 579 828 q 685 920 658 881 q 725 1000 711 960 l 761 994 q 719 904 749 951 q 640 824 689 857 q 519 792 590 792 m 567 965 l 461 1108 l 492 1133 l 592 983 l 567 965 z "},"ẳ":{"ha":833,"x_min":92,"x_max":761,"o":"m 328 -17 q 157 47 222 -17 q 92 236 92 111 q 119 403 92 324 q 197 546 147 483 q 315 644 247 608 q 464 681 383 681 q 596 650 539 681 q 683 569 653 619 l 689 569 l 714 664 l 747 664 l 614 0 l 581 0 l 597 108 l 592 108 q 467 19 536 54 q 328 -17 399 -17 m 331 19 q 469 59 397 19 q 608 169 542 99 l 681 517 q 579 615 635 586 q 461 644 524 644 q 330 610 390 644 q 225 519 269 576 q 156 391 181 463 q 131 244 131 319 q 185 75 131 131 q 331 19 239 19 m 519 792 q 415 824 451 792 q 367 904 379 857 q 356 994 354 951 l 392 1000 q 401 920 389 960 q 445 854 414 881 q 528 828 476 828 q 619 854 579 828 q 685 920 658 881 q 725 1000 711 960 l 761 994 q 719 904 749 951 q 640 824 689 857 q 519 792 590 792 m 519 931 l 514 964 q 581 989 553 972 q 614 1031 608 1006 q 594 1080 621 1064 q 510 1097 567 1096 l 519 1133 q 593 1122 560 1132 q 644 1092 626 1113 q 656 1036 663 1071 q 628 984 650 1006 q 576 949 606 963 q 519 931 547 936 z "},"ẵ":{"ha":833,"x_min":92,"x_max":753,"o":"m 328 -17 q 157 47 222 -17 q 92 236 92 111 q 119 403 92 324 q 197 546 147 483 q 315 644 247 608 q 464 681 383 681 q 596 650 539 681 q 683 569 653 619 l 689 569 l 714 664 l 747 664 l 614 0 l 581 0 l 597 108 l 592 108 q 467 19 536 54 q 328 -17 399 -17 m 331 19 q 469 59 397 19 q 608 169 542 99 l 681 517 q 579 615 635 586 q 461 644 524 644 q 330 610 390 644 q 225 519 269 576 q 156 391 181 463 q 131 244 131 319 q 185 75 131 131 q 331 19 239 19 m 519 792 q 419 815 454 792 q 370 870 383 838 q 358 933 357 903 l 394 939 q 424 864 393 900 q 526 828 454 828 q 643 864 599 828 q 700 939 688 900 l 736 933 q 700 870 726 903 q 629 815 674 838 q 519 792 585 792 m 653 981 q 582 995 611 981 q 527 1024 553 1010 q 469 1039 501 1039 q 433 1023 446 1039 q 410 975 421 1007 l 378 978 q 408 1042 386 1010 q 476 1075 431 1075 q 548 1060 519 1075 q 602 1031 576 1046 q 660 1017 628 1017 q 697 1033 683 1017 q 719 1081 710 1050 l 753 1078 q 722 1013 744 1046 q 653 981 699 981 z "},"ặ":{"ha":833,"x_min":92,"x_max":761,"o":"m 328 -17 q 157 47 222 -17 q 92 236 92 111 q 119 403 92 324 q 197 546 147 483 q 315 644 247 608 q 464 681 383 681 q 596 650 539 681 q 683 569 653 619 l 689 569 l 714 664 l 747 664 l 614 0 l 581 0 l 597 108 l 592 108 q 467 19 536 54 q 328 -17 399 -17 m 331 19 q 469 59 397 19 q 608 169 542 99 l 681 517 q 579 615 635 586 q 461 644 524 644 q 330 610 390 644 q 225 519 269 576 q 156 391 181 463 q 131 244 131 319 q 185 75 131 131 q 331 19 239 19 m 519 792 q 415 824 451 792 q 367 904 379 857 q 356 994 354 951 l 392 1000 q 401 920 389 960 q 445 854 414 881 q 528 828 476 828 q 619 854 579 828 q 685 920 658 881 q 725 1000 711 960 l 761 994 q 719 904 749 951 q 640 824 689 857 q 519 792 590 792 z "},"æ":{"ha":833,"x_min":-35,"x_max":836,"o":"m 107 -17 q 5 19 44 -17 q -35 126 -35 54 q 82 320 -35 254 q 407 417 199 386 l 406 382 q 192 331 282 361 q 55 253 103 300 q 7 131 7 206 q 36 47 7 75 q 111 19 65 19 q 238 58 165 19 q 369 168 311 96 l 382 133 q 238 18 313 53 q 107 -17 164 -17 m 403 336 l 414 372 l 796 372 l 782 361 q 792 422 789 392 q 796 478 796 451 q 767 600 796 556 q 678 644 739 644 q 569 610 619 644 q 482 515 519 575 q 424 380 444 456 q 403 224 403 304 q 441 77 403 135 q 560 19 479 19 q 649 35 608 19 q 728 78 689 51 l 746 47 q 663 3 714 24 q 551 -17 611 -17 q 461 4 497 -17 q 403 59 425 25 q 373 131 382 93 q 364 201 364 168 q 364 252 364 226 q 370 316 364 278 q 392 414 376 354 q 392 581 419 517 q 278 644 364 644 q 176 622 226 644 q 94 575 126 599 l 75 606 q 164 655 108 629 q 283 681 219 681 q 401 635 358 681 q 443 513 443 589 l 438 508 q 548 638 482 594 q 683 681 614 681 q 771 653 738 681 q 820 581 804 626 q 836 479 836 535 q 828 392 836 426 q 813 336 819 357 l 403 336 z "},"ǽ":{"ha":833,"x_min":-35,"x_max":836,"o":"m 107 -17 q 5 19 44 -17 q -35 126 -35 54 q 82 320 -35 254 q 407 417 199 386 l 406 382 q 192 331 282 361 q 55 253 103 300 q 7 131 7 206 q 36 47 7 75 q 111 19 65 19 q 238 58 165 19 q 369 168 311 96 l 382 133 q 238 18 313 53 q 107 -17 164 -17 m 403 336 l 414 372 l 796 372 l 782 361 q 792 422 789 392 q 796 478 796 451 q 767 600 796 556 q 678 644 739 644 q 569 610 619 644 q 482 515 519 575 q 424 380 444 456 q 403 224 403 304 q 441 77 403 135 q 560 19 479 19 q 649 35 608 19 q 728 78 689 51 l 746 47 q 663 3 714 24 q 551 -17 611 -17 q 461 4 497 -17 q 403 59 425 25 q 373 131 382 93 q 364 201 364 168 q 364 252 364 226 q 370 316 364 278 q 392 414 376 354 q 392 581 419 517 q 278 644 364 644 q 176 622 226 644 q 94 575 126 599 l 75 606 q 164 655 108 629 q 283 681 219 681 q 401 635 358 681 q 443 513 443 589 l 438 508 q 548 638 482 594 q 683 681 614 681 q 771 653 738 681 q 820 581 804 626 q 836 479 836 535 q 828 392 836 426 q 813 336 819 357 l 403 336 m 453 806 l 431 831 l 644 1028 l 672 994 l 453 806 z "},"ǣ":{"ha":833,"x_min":-35,"x_max":836,"o":"m 107 -17 q 5 19 44 -17 q -35 126 -35 54 q 82 320 -35 254 q 407 417 199 386 l 406 382 q 192 331 282 361 q 55 253 103 300 q 7 131 7 206 q 36 47 7 75 q 111 19 65 19 q 238 58 165 19 q 369 168 311 96 l 382 133 q 238 18 313 53 q 107 -17 164 -17 m 403 336 l 414 372 l 796 372 l 782 361 q 792 422 789 392 q 796 478 796 451 q 767 600 796 556 q 678 644 739 644 q 569 610 619 644 q 482 515 519 575 q 424 380 444 456 q 403 224 403 304 q 441 77 403 135 q 560 19 479 19 q 649 35 608 19 q 728 78 689 51 l 746 47 q 663 3 714 24 q 551 -17 611 -17 q 461 4 497 -17 q 403 59 425 25 q 373 131 382 93 q 364 201 364 168 q 364 252 364 226 q 370 316 364 278 q 392 414 376 354 q 392 581 419 517 q 278 644 364 644 q 176 622 226 644 q 94 575 126 599 l 75 606 q 164 655 108 629 q 283 681 219 681 q 401 635 358 681 q 443 513 443 589 l 438 508 q 548 638 482 594 q 683 681 614 681 q 771 653 738 681 q 820 581 804 626 q 836 479 836 535 q 828 392 836 426 q 813 336 819 357 l 403 336 m 342 844 l 347 881 l 669 881 l 664 844 l 342 844 z "},"ƀ":{"ha":833,"x_min":72,"x_max":728,"o":"m 356 -17 q 226 15 283 -17 q 133 94 169 47 l 128 94 l 106 0 l 72 0 l 272 1003 l 311 1003 l 244 675 l 214 525 l 219 525 q 344 614 274 575 q 492 653 415 653 q 663 584 599 653 q 728 386 728 515 q 700 229 728 303 q 623 101 672 156 q 506 15 574 46 q 356 -17 438 -17 m 358 19 q 490 49 429 19 q 594 128 550 78 q 664 243 639 179 q 689 378 689 307 q 635 557 689 497 q 489 617 581 617 q 348 576 425 617 q 206 472 271 535 l 139 142 q 243 47 188 74 q 358 19 299 19 m 126 814 l 132 844 l 242 850 l 611 850 l 600 814 l 126 814 z "},"ḇ":{"ha":833,"x_min":72,"x_max":728,"o":"m 356 -17 q 226 15 283 -17 q 133 94 169 47 l 128 94 l 106 0 l 72 0 l 272 1003 l 311 1003 l 250 703 l 217 553 l 222 553 q 347 641 276 601 q 492 681 417 681 q 663 612 599 681 q 728 414 728 543 q 701 247 728 325 q 625 109 675 168 q 507 17 575 50 q 356 -17 439 -17 m 358 19 q 492 51 432 19 q 597 136 553 82 q 665 260 640 190 q 689 406 689 329 q 635 585 689 525 q 489 644 581 644 q 351 603 426 644 q 211 500 276 563 l 139 142 q 243 47 188 74 q 358 19 299 19 z "},"ç":{"ha":833,"x_min":100,"x_max":742,"o":"m 397 -17 q 243 17 310 -17 q 138 115 176 50 q 100 278 100 181 q 133 442 100 368 q 223 569 167 515 q 350 651 279 622 q 497 681 421 681 q 645 647 583 681 q 742 564 707 613 l 711 539 q 619 618 672 592 q 483 644 565 644 q 360 617 421 644 q 249 540 299 589 q 169 426 199 490 q 139 286 139 361 q 211 86 139 153 q 400 19 283 19 q 531 49 465 19 q 647 125 596 78 l 672 97 q 543 15 618 47 q 397 -17 468 -17 m 200 -300 l 197 -267 q 326 -241 283 -264 q 369 -183 369 -218 q 346 -137 369 -151 q 275 -119 322 -124 l 356 6 l 394 6 l 333 -94 q 397 -125 382 -107 q 411 -172 411 -143 q 353 -265 411 -232 q 200 -300 294 -297 z "},"ć":{"ha":833,"x_min":100,"x_max":742,"o":"m 397 -17 q 243 17 310 -17 q 138 115 176 50 q 100 278 100 181 q 133 442 100 368 q 223 569 167 515 q 350 651 279 622 q 497 681 421 681 q 645 647 583 681 q 742 564 707 613 l 711 539 q 619 618 672 592 q 483 644 565 644 q 360 617 421 644 q 249 540 299 589 q 169 426 199 490 q 139 286 139 361 q 211 86 139 153 q 400 19 283 19 q 531 49 465 19 q 647 125 596 78 l 672 97 q 543 15 618 47 q 397 -17 468 -17 m 472 806 l 450 831 l 664 1028 l 692 994 l 472 806 z "},"ĉ":{"ha":833,"x_min":100,"x_max":742,"o":"m 397 -17 q 243 17 310 -17 q 138 115 176 50 q 100 278 100 181 q 133 442 100 368 q 223 569 167 515 q 350 651 279 622 q 497 681 421 681 q 645 647 583 681 q 742 564 707 613 l 711 539 q 619 618 672 592 q 483 644 565 644 q 360 617 421 644 q 249 540 299 589 q 169 426 199 490 q 139 286 139 361 q 211 86 139 153 q 400 19 283 19 q 531 49 465 19 q 647 125 596 78 l 672 97 q 543 15 618 47 q 397 -17 468 -17 m 358 797 l 333 819 l 533 1022 l 572 1022 l 700 817 l 672 797 l 553 981 l 547 981 l 358 797 z "},"č":{"ha":833,"x_min":100,"x_max":742,"o":"m 397 -17 q 243 17 310 -17 q 138 115 176 50 q 100 278 100 181 q 133 442 100 368 q 223 569 167 515 q 350 651 279 622 q 497 681 421 681 q 645 647 583 681 q 742 564 707 613 l 711 539 q 619 618 672 592 q 483 644 565 644 q 360 617 421 644 q 249 540 299 589 q 169 426 199 490 q 139 286 139 361 q 211 86 139 153 q 400 19 283 19 q 531 49 465 19 q 647 125 596 78 l 672 97 q 543 15 618 47 q 397 -17 468 -17 m 492 794 l 364 1000 l 392 1019 l 511 836 l 517 836 l 706 1019 l 731 997 l 531 794 l 492 794 z "},"ċ":{"ha":833,"x_min":100,"x_max":742,"o":"m 397 -17 q 243 17 310 -17 q 138 115 176 50 q 100 278 100 181 q 133 442 100 368 q 223 569 167 515 q 350 651 279 622 q 497 681 421 681 q 645 647 583 681 q 742 564 707 613 l 711 539 q 619 618 672 592 q 483 644 565 644 q 360 617 421 644 q 249 540 299 589 q 169 426 199 490 q 139 286 139 361 q 211 86 139 153 q 400 19 283 19 q 531 49 465 19 q 647 125 596 78 l 672 97 q 543 15 618 47 q 397 -17 468 -17 m 522 833 q 488 847 500 833 q 475 881 475 860 q 484 914 475 899 q 507 938 493 929 q 536 947 521 947 q 572 934 560 947 q 583 900 583 921 q 565 853 583 874 q 522 833 546 833 z "},"ď":{"ha":833,"x_min":92,"x_max":1000,"o":"m 328 -17 q 157 47 222 -17 q 92 236 92 111 q 119 403 92 324 q 197 546 147 483 q 315 644 247 608 q 464 681 383 681 q 596 650 539 681 q 683 569 653 619 l 689 569 l 717 703 l 778 1003 l 817 1003 l 614 0 l 581 0 l 597 108 l 592 108 q 467 19 536 54 q 328 -17 399 -17 m 331 19 q 469 59 397 19 q 608 169 542 99 l 681 517 q 579 615 635 586 q 461 644 524 644 q 330 610 390 644 q 225 519 269 576 q 156 391 181 463 q 131 244 131 319 q 185 75 131 131 q 331 19 239 19 m 892 761 l 961 1128 l 1000 1128 l 981 1033 l 919 761 l 892 761 z "},"ḍ":{"ha":833,"x_min":92,"x_max":817,"o":"m 328 -17 q 157 47 222 -17 q 92 236 92 111 q 119 403 92 324 q 197 546 147 483 q 315 644 247 608 q 464 681 383 681 q 596 650 539 681 q 683 569 653 619 l 689 569 l 717 703 l 778 1003 l 817 1003 l 614 0 l 581 0 l 597 108 l 592 108 q 467 19 536 54 q 328 -17 399 -17 m 331 19 q 469 59 397 19 q 608 169 542 99 l 681 517 q 579 615 635 586 q 461 644 524 644 q 330 610 390 644 q 225 519 269 576 q 156 391 181 463 q 131 244 131 319 q 185 75 131 131 q 331 19 239 19 z "},"ḏ":{"ha":833,"x_min":92,"x_max":817,"o":"m 328 -17 q 157 47 222 -17 q 92 236 92 111 q 119 403 92 324 q 197 546 147 483 q 315 644 247 608 q 464 681 383 681 q 596 650 539 681 q 683 569 653 619 l 689 569 l 717 703 l 778 1003 l 817 1003 l 614 0 l 581 0 l 597 108 l 592 108 q 467 19 536 54 q 328 -17 399 -17 m 331 19 q 469 59 397 19 q 608 169 542 99 l 681 517 q 579 615 635 586 q 461 644 524 644 q 330 610 390 644 q 225 519 269 576 q 156 391 181 463 q 131 244 131 319 q 185 75 131 131 q 331 19 239 19 z "},"ḑ":{"ha":833,"x_min":92,"x_max":817,"o":"m 328 -17 q 157 47 222 -17 q 92 236 92 111 q 119 403 92 324 q 197 546 147 483 q 315 644 247 608 q 464 681 383 681 q 596 650 539 681 q 683 569 653 619 l 689 569 l 717 703 l 778 1003 l 817 1003 l 614 0 l 581 0 l 597 108 l 592 108 q 467 19 536 54 q 328 -17 399 -17 m 331 19 q 469 59 397 19 q 608 169 542 99 l 681 517 q 579 615 635 586 q 461 644 524 644 q 330 610 390 644 q 225 519 269 576 q 156 391 181 463 q 131 244 131 319 q 185 75 131 131 q 331 19 239 19 m 172 -300 l 169 -267 q 299 -241 256 -264 q 342 -183 342 -218 q 318 -137 342 -151 q 247 -119 294 -124 l 328 6 l 367 6 l 306 -94 q 369 -125 354 -107 q 383 -172 383 -143 q 325 -265 383 -232 q 172 -300 267 -297 z "},"đ":{"ha":833,"x_min":92,"x_max":889,"o":"m 328 -17 q 157 47 222 -17 q 92 236 92 111 q 120 393 92 318 q 199 526 149 468 q 317 619 249 585 q 464 653 385 653 q 593 622 539 653 q 678 542 647 592 l 683 542 l 711 675 l 778 1003 l 817 1003 l 614 0 l 581 0 l 597 108 l 592 108 q 467 19 536 54 q 328 -17 399 -17 m 331 19 q 469 59 397 19 q 608 169 542 99 l 675 489 q 576 588 629 558 q 461 617 524 617 q 331 585 392 617 q 226 501 271 554 q 156 381 181 447 q 131 244 131 314 q 185 75 131 131 q 331 19 239 19 m 472 814 l 483 850 l 889 850 l 883 819 l 775 814 l 472 814 z "},"è":{"ha":833,"x_min":106,"x_max":717,"o":"m 378 -17 q 231 17 292 -17 q 138 115 169 51 q 106 264 106 178 q 135 430 106 354 q 217 562 165 506 q 337 649 269 618 q 478 681 404 681 q 656 608 594 681 q 717 429 717 536 q 712 373 717 399 q 703 336 707 347 l 139 336 l 147 372 l 706 372 l 669 364 q 676 399 674 381 q 678 433 678 417 q 623 587 678 529 q 472 644 568 644 q 353 615 411 644 q 247 535 294 586 q 172 415 200 483 q 144 267 144 346 q 172 138 144 194 q 253 51 200 82 q 381 19 306 19 q 519 48 454 19 q 631 119 583 76 l 653 89 q 537 17 610 50 q 378 -17 464 -17 m 558 792 l 400 1014 l 436 1039 l 586 811 l 558 792 z "},"é":{"ha":833,"x_min":106,"x_max":717,"o":"m 378 -17 q 231 17 292 -17 q 138 115 169 51 q 106 264 106 178 q 135 430 106 354 q 217 562 165 506 q 337 649 269 618 q 478 681 404 681 q 656 608 594 681 q 717 429 717 536 q 712 373 717 399 q 703 336 707 347 l 139 336 l 147 372 l 706 372 l 669 364 q 676 399 674 381 q 678 433 678 417 q 623 587 678 529 q 472 644 568 644 q 353 615 411 644 q 247 535 294 586 q 172 415 200 483 q 144 267 144 346 q 172 138 144 194 q 253 51 200 82 q 381 19 306 19 q 519 48 454 19 q 631 119 583 76 l 653 89 q 537 17 610 50 q 378 -17 464 -17 m 467 806 l 444 831 l 658 1028 l 686 994 l 467 806 z "},"ê":{"ha":833,"x_min":106,"x_max":717,"o":"m 378 -17 q 231 17 292 -17 q 138 115 169 51 q 106 264 106 178 q 135 430 106 354 q 217 562 165 506 q 337 649 269 618 q 478 681 404 681 q 656 608 594 681 q 717 429 717 536 q 712 373 717 399 q 703 336 707 347 l 139 336 l 147 372 l 706 372 l 669 364 q 676 399 674 381 q 678 433 678 417 q 623 587 678 529 q 472 644 568 644 q 353 615 411 644 q 247 535 294 586 q 172 415 200 483 q 144 267 144 346 q 172 138 144 194 q 253 51 200 82 q 381 19 306 19 q 519 48 454 19 q 631 119 583 76 l 653 89 q 537 17 610 50 q 378 -17 464 -17 m 353 797 l 328 819 l 528 1022 l 567 1022 l 694 817 l 667 797 l 547 981 l 542 981 l 353 797 z "},"ě":{"ha":833,"x_min":106,"x_max":725,"o":"m 378 -17 q 231 17 292 -17 q 138 115 169 51 q 106 264 106 178 q 135 430 106 354 q 217 562 165 506 q 337 649 269 618 q 478 681 404 681 q 656 608 594 681 q 717 429 717 536 q 712 373 717 399 q 703 336 707 347 l 139 336 l 147 372 l 706 372 l 669 364 q 676 399 674 381 q 678 433 678 417 q 623 587 678 529 q 472 644 568 644 q 353 615 411 644 q 247 535 294 586 q 172 415 200 483 q 144 267 144 346 q 172 138 144 194 q 253 51 200 82 q 381 19 306 19 q 519 48 454 19 q 631 119 583 76 l 653 89 q 537 17 610 50 q 378 -17 464 -17 m 486 794 l 358 1000 l 386 1019 l 506 836 l 511 836 l 700 1019 l 725 997 l 525 794 l 486 794 z "},"ë":{"ha":833,"x_min":106,"x_max":717,"o":"m 378 -17 q 231 17 292 -17 q 138 115 169 51 q 106 264 106 178 q 135 430 106 354 q 217 562 165 506 q 337 649 269 618 q 478 681 404 681 q 656 608 594 681 q 717 429 717 536 q 712 373 717 399 q 703 336 707 347 l 139 336 l 147 372 l 706 372 l 669 364 q 676 399 674 381 q 678 433 678 417 q 623 587 678 529 q 472 644 568 644 q 353 615 411 644 q 247 535 294 586 q 172 415 200 483 q 144 267 144 346 q 172 138 144 194 q 253 51 200 82 q 381 19 306 19 q 519 48 454 19 q 631 119 583 76 l 653 89 q 537 17 610 50 q 378 -17 464 -17 m 403 836 q 373 848 385 836 q 361 881 361 860 q 378 926 361 908 q 417 944 394 944 q 447 933 436 944 q 458 900 458 921 q 442 855 458 874 q 403 836 426 836 m 633 836 q 603 848 615 836 q 592 881 592 860 q 608 926 592 908 q 647 944 625 944 q 678 933 667 944 q 689 900 689 921 q 673 855 689 874 q 633 836 657 836 z "},"ē":{"ha":833,"x_min":106,"x_max":717,"o":"m 378 -17 q 231 17 292 -17 q 138 115 169 51 q 106 264 106 178 q 135 430 106 354 q 217 562 165 506 q 337 649 269 618 q 478 681 404 681 q 656 608 594 681 q 717 429 717 536 q 712 373 717 399 q 703 336 707 347 l 139 336 l 147 372 l 706 372 l 669 364 q 676 399 674 381 q 678 433 678 417 q 623 587 678 529 q 472 644 568 644 q 353 615 411 644 q 247 535 294 586 q 172 415 200 483 q 144 267 144 346 q 172 138 144 194 q 253 51 200 82 q 381 19 306 19 q 519 48 454 19 q 631 119 583 76 l 653 89 q 537 17 610 50 q 378 -17 464 -17 m 356 844 l 361 881 l 683 881 l 678 844 l 356 844 z "},"ĕ":{"ha":833,"x_min":106,"x_max":750,"o":"m 378 -17 q 231 17 292 -17 q 138 115 169 51 q 106 264 106 178 q 135 430 106 354 q 217 562 165 506 q 337 649 269 618 q 478 681 404 681 q 656 608 594 681 q 717 429 717 536 q 712 373 717 399 q 703 336 707 347 l 139 336 l 147 372 l 706 372 l 669 364 q 676 399 674 381 q 678 433 678 417 q 623 587 678 529 q 472 644 568 644 q 353 615 411 644 q 247 535 294 586 q 172 415 200 483 q 144 267 144 346 q 172 138 144 194 q 253 51 200 82 q 381 19 306 19 q 519 48 454 19 q 631 119 583 76 l 653 89 q 537 17 610 50 q 378 -17 464 -17 m 508 792 q 404 824 440 792 q 356 904 368 857 q 344 994 343 951 l 381 1000 q 390 920 378 960 q 434 854 403 881 q 517 828 465 828 q 608 854 568 828 q 674 920 647 881 q 714 1000 700 960 l 750 994 q 708 904 738 951 q 628 824 678 857 q 508 792 579 792 z "},"ę":{"ha":833,"x_min":106,"x_max":717,"o":"m 475 -311 q 393 -288 431 -311 q 356 -211 356 -265 q 376 -133 356 -169 q 428 -62 396 -96 q 500 4 461 -28 q 444 -10 475 -3 q 376 -17 413 -17 q 231 17 292 -17 q 138 115 169 51 q 106 264 106 178 q 135 430 106 354 q 217 562 165 506 q 337 649 269 618 q 478 681 404 681 q 656 608 594 681 q 717 429 717 536 q 712 373 717 399 q 703 336 707 347 l 139 336 l 147 372 l 706 372 l 669 364 q 676 399 674 381 q 678 433 678 417 q 623 587 678 529 q 472 644 568 644 q 353 615 411 644 q 247 535 294 586 q 172 415 200 483 q 144 267 144 346 q 172 138 144 194 q 253 51 200 82 q 381 19 306 19 q 519 48 454 19 q 631 119 583 76 l 653 89 q 467 -64 540 10 q 394 -200 394 -137 q 420 -257 394 -239 q 483 -275 446 -275 q 526 -267 507 -275 q 561 -247 544 -260 l 578 -272 q 534 -300 560 -289 q 475 -311 508 -311 z "},"ė":{"ha":833,"x_min":106,"x_max":717,"o":"m 378 -17 q 231 17 292 -17 q 138 115 169 51 q 106 264 106 178 q 135 430 106 354 q 217 562 165 506 q 337 649 269 618 q 478 681 404 681 q 656 608 594 681 q 717 429 717 536 q 712 373 717 399 q 703 336 707 347 l 139 336 l 147 372 l 706 372 l 669 364 q 676 399 674 381 q 678 433 678 417 q 623 587 678 529 q 472 644 568 644 q 353 615 411 644 q 247 535 294 586 q 172 415 200 483 q 144 267 144 346 q 172 138 144 194 q 253 51 200 82 q 381 19 306 19 q 519 48 454 19 q 631 119 583 76 l 653 89 q 537 17 610 50 q 378 -17 464 -17 m 517 833 q 482 847 494 833 q 469 881 469 860 q 478 914 469 899 q 501 938 488 929 q 531 947 515 947 q 566 934 554 947 q 578 900 578 921 q 559 853 578 874 q 517 833 540 833 z "},"ẹ":{"ha":833,"x_min":106,"x_max":717,"o":"m 378 -17 q 231 17 292 -17 q 138 115 169 51 q 106 264 106 178 q 135 430 106 354 q 217 562 165 506 q 337 649 269 618 q 478 681 404 681 q 656 608 594 681 q 717 429 717 536 q 712 373 717 399 q 703 336 707 347 l 139 336 l 147 372 l 706 372 l 669 364 q 676 399 674 381 q 678 433 678 417 q 623 587 678 529 q 472 644 568 644 q 353 615 411 644 q 247 535 294 586 q 172 415 200 483 q 144 267 144 346 q 172 138 144 194 q 253 51 200 82 q 381 19 306 19 q 519 48 454 19 q 631 119 583 76 l 653 89 q 537 17 610 50 q 378 -17 464 -17 z "},"ẻ":{"ha":833,"x_min":106,"x_max":717,"o":"m 378 -17 q 231 17 292 -17 q 138 115 169 51 q 106 264 106 178 q 135 430 106 354 q 217 562 165 506 q 337 649 269 618 q 478 681 404 681 q 656 608 594 681 q 717 429 717 536 q 712 373 717 399 q 703 336 707 347 l 139 336 l 147 372 l 706 372 l 669 364 q 676 399 674 381 q 678 433 678 417 q 623 587 678 529 q 472 644 568 644 q 353 615 411 644 q 247 535 294 586 q 172 415 200 483 q 144 267 144 346 q 172 138 144 194 q 253 51 200 82 q 381 19 306 19 q 519 48 454 19 q 631 119 583 76 l 653 89 q 537 17 610 50 q 378 -17 464 -17 m 481 800 l 475 833 q 547 865 517 846 q 581 914 576 883 q 558 965 588 947 q 475 983 529 982 l 483 1019 q 558 1008 524 1018 q 612 976 593 997 q 625 919 631 954 q 596 862 618 885 q 543 824 574 839 q 481 800 513 810 z "},"ẽ":{"ha":833,"x_min":106,"x_max":767,"o":"m 378 -17 q 231 17 292 -17 q 138 115 169 51 q 106 264 106 178 q 135 430 106 354 q 217 562 165 506 q 337 649 269 618 q 478 681 404 681 q 656 608 594 681 q 717 429 717 536 q 712 373 717 399 q 703 336 707 347 l 139 336 l 147 372 l 706 372 l 669 364 q 676 399 674 381 q 678 433 678 417 q 623 587 678 529 q 472 644 568 644 q 353 615 411 644 q 247 535 294 586 q 172 415 200 483 q 144 267 144 346 q 172 138 144 194 q 253 51 200 82 q 381 19 306 19 q 519 48 454 19 q 631 119 583 76 l 653 89 q 537 17 610 50 q 378 -17 464 -17 m 625 806 q 565 827 588 806 q 527 876 543 849 q 492 926 511 904 q 442 947 472 947 q 378 906 403 947 q 342 808 354 865 l 306 811 q 332 890 315 851 q 377 955 349 929 q 447 981 406 981 q 507 959 485 981 q 545 910 529 938 q 581 860 561 882 q 631 839 600 839 q 694 881 671 839 q 731 978 718 922 l 767 975 q 740 897 757 936 q 696 832 724 858 q 625 806 668 806 z "},"ế":{"ha":833,"x_min":106,"x_max":831,"o":"m 378 -17 q 231 17 292 -17 q 138 115 169 51 q 106 264 106 178 q 135 430 106 354 q 217 562 165 506 q 337 649 269 618 q 478 681 404 681 q 656 608 594 681 q 717 429 717 536 q 712 373 717 399 q 703 336 707 347 l 139 336 l 147 372 l 706 372 l 669 364 q 676 399 674 381 q 678 433 678 417 q 623 587 678 529 q 472 644 568 644 q 353 615 411 644 q 247 535 294 586 q 172 415 200 483 q 144 267 144 346 q 172 138 144 194 q 253 51 200 82 q 381 19 306 19 q 519 48 454 19 q 631 119 583 76 l 653 89 q 537 17 610 50 q 378 -17 464 -17 m 364 797 l 347 822 l 517 950 l 556 950 l 681 819 l 658 797 l 539 908 l 533 908 l 364 797 m 665 889 l 642 914 l 800 1058 l 831 1028 l 665 889 z "},"ề":{"ha":833,"x_min":106,"x_max":717,"o":"m 378 -17 q 231 17 292 -17 q 138 115 169 51 q 106 264 106 178 q 135 430 106 354 q 217 562 165 506 q 337 649 269 618 q 478 681 404 681 q 656 608 594 681 q 717 429 717 536 q 712 373 717 399 q 703 336 707 347 l 139 336 l 147 372 l 706 372 l 669 364 q 676 399 674 381 q 678 433 678 417 q 623 587 678 529 q 472 644 568 644 q 353 615 411 644 q 247 535 294 586 q 172 415 200 483 q 144 267 144 346 q 172 138 144 194 q 253 51 200 82 q 381 19 306 19 q 519 48 454 19 q 631 119 583 76 l 653 89 q 537 17 610 50 q 378 -17 464 -17 m 364 797 l 347 822 l 517 950 l 556 950 l 681 819 l 658 797 l 539 908 l 533 908 l 364 797 m 386 889 l 250 1039 l 286 1067 l 414 911 l 386 889 z "},"ể":{"ha":833,"x_min":106,"x_max":786,"o":"m 378 -17 q 231 17 292 -17 q 138 115 169 51 q 106 264 106 178 q 135 430 106 354 q 217 562 165 506 q 337 649 269 618 q 478 681 404 681 q 656 608 594 681 q 717 429 717 536 q 712 373 717 399 q 703 336 707 347 l 139 336 l 147 372 l 706 372 l 669 364 q 676 399 674 381 q 678 433 678 417 q 623 587 678 529 q 472 644 568 644 q 353 615 411 644 q 247 535 294 586 q 172 415 200 483 q 144 267 144 346 q 172 138 144 194 q 253 51 200 82 q 381 19 306 19 q 519 48 454 19 q 631 119 583 76 l 653 89 q 537 17 610 50 q 378 -17 464 -17 m 364 797 l 347 822 l 517 950 l 556 950 l 681 819 l 658 797 l 539 908 l 533 908 l 364 797 m 664 872 l 653 903 q 709 929 686 914 q 736 969 732 944 q 720 1019 743 1003 q 647 1036 697 1035 l 653 1069 q 746 1047 706 1068 q 778 975 786 1025 q 735 906 769 929 q 664 872 700 883 z "},"ễ":{"ha":833,"x_min":106,"x_max":736,"o":"m 378 -17 q 231 17 292 -17 q 138 115 169 51 q 106 264 106 178 q 135 430 106 354 q 217 562 165 506 q 337 649 269 618 q 478 681 404 681 q 656 608 594 681 q 717 429 717 536 q 712 373 717 399 q 703 336 707 347 l 139 336 l 147 372 l 706 372 l 669 364 q 676 399 674 381 q 678 433 678 417 q 623 587 678 529 q 472 644 568 644 q 353 615 411 644 q 247 535 294 586 q 172 415 200 483 q 144 267 144 346 q 172 138 144 194 q 253 51 200 82 q 381 19 306 19 q 519 48 454 19 q 631 119 583 76 l 653 89 q 537 17 610 50 q 378 -17 464 -17 m 364 797 l 347 822 l 517 950 l 556 950 l 681 819 l 658 797 l 539 908 l 533 908 l 364 797 m 639 981 q 567 995 597 981 q 511 1024 538 1010 q 453 1039 485 1039 q 417 1023 429 1039 q 394 975 406 1007 l 361 978 q 392 1042 369 1010 q 461 1075 415 1075 q 533 1060 504 1075 q 587 1031 561 1046 q 644 1017 613 1017 q 681 1033 668 1017 q 703 1081 693 1050 l 736 1078 q 706 1013 728 1046 q 639 981 685 981 z "},"ệ":{"ha":833,"x_min":106,"x_max":717,"o":"m 378 -17 q 231 17 292 -17 q 138 115 169 51 q 106 264 106 178 q 135 430 106 354 q 217 562 165 506 q 337 649 269 618 q 478 681 404 681 q 656 608 594 681 q 717 429 717 536 q 712 373 717 399 q 703 336 707 347 l 139 336 l 147 372 l 706 372 l 669 364 q 676 399 674 381 q 678 433 678 417 q 623 587 678 529 q 472 644 568 644 q 353 615 411 644 q 247 535 294 586 q 172 415 200 483 q 144 267 144 346 q 172 138 144 194 q 253 51 200 82 q 381 19 306 19 q 519 48 454 19 q 631 119 583 76 l 653 89 q 537 17 610 50 q 378 -17 464 -17 m 353 797 l 328 819 l 528 1022 l 567 1022 l 694 817 l 667 797 l 547 981 l 542 981 l 353 797 z "},"ḗ":{"ha":833,"x_min":106,"x_max":717,"o":"m 378 -17 q 231 17 292 -17 q 138 115 169 51 q 106 264 106 178 q 135 430 106 354 q 217 562 165 506 q 337 649 269 618 q 478 681 404 681 q 656 608 594 681 q 717 429 717 536 q 712 373 717 399 q 703 336 707 347 l 139 336 l 147 372 l 706 372 l 669 364 q 676 399 674 381 q 678 433 678 417 q 623 587 678 529 q 472 644 568 644 q 353 615 411 644 q 247 535 294 586 q 172 415 200 483 q 144 267 144 346 q 172 138 144 194 q 253 51 200 82 q 381 19 306 19 q 519 48 454 19 q 631 119 583 76 l 653 89 q 537 17 610 50 q 378 -17 464 -17 m 356 844 l 361 881 l 683 881 l 678 844 l 356 844 m 533 975 l 513 999 l 656 1126 l 683 1096 l 533 975 z "},"ǵ":{"ha":833,"x_min":36,"x_max":747,"o":"m 272 -325 q 138 -303 197 -325 q 36 -247 78 -281 l 61 -217 q 161 -270 103 -251 q 278 -289 219 -289 q 413 -262 353 -289 q 511 -184 472 -236 q 564 -58 550 -132 l 597 117 l 592 117 q 467 27 536 63 q 328 -8 399 -8 q 157 56 222 -8 q 92 242 92 119 q 119 407 92 328 q 197 548 147 486 q 315 645 247 610 q 464 681 383 681 q 596 650 539 681 q 683 569 653 619 l 689 569 l 714 664 l 747 664 l 600 -72 q 538 -212 583 -156 q 424 -297 492 -268 q 272 -325 356 -325 m 331 28 q 469 67 397 28 q 608 178 542 107 l 681 517 q 579 615 635 586 q 461 644 524 644 q 330 611 390 644 q 225 522 269 578 q 156 394 181 465 q 131 250 131 324 q 185 83 131 138 q 331 28 239 28 m 478 806 l 456 831 l 669 1028 l 697 994 l 478 806 z "},"ĝ":{"ha":833,"x_min":36,"x_max":747,"o":"m 272 -325 q 138 -303 197 -325 q 36 -247 78 -281 l 61 -217 q 161 -270 103 -251 q 278 -289 219 -289 q 413 -262 353 -289 q 511 -184 472 -236 q 564 -58 550 -132 l 597 117 l 592 117 q 467 27 536 63 q 328 -8 399 -8 q 157 56 222 -8 q 92 242 92 119 q 119 407 92 328 q 197 548 147 486 q 315 645 247 610 q 464 681 383 681 q 596 650 539 681 q 683 569 653 619 l 689 569 l 714 664 l 747 664 l 600 -72 q 538 -212 583 -156 q 424 -297 492 -268 q 272 -325 356 -325 m 331 28 q 469 67 397 28 q 608 178 542 107 l 681 517 q 579 615 635 586 q 461 644 524 644 q 330 611 390 644 q 225 522 269 578 q 156 394 181 465 q 131 250 131 324 q 185 83 131 138 q 331 28 239 28 m 364 797 l 339 819 l 539 1022 l 578 1022 l 706 817 l 678 797 l 558 981 l 553 981 l 364 797 z "},"ğ":{"ha":833,"x_min":36,"x_max":761,"o":"m 272 -325 q 138 -303 197 -325 q 36 -247 78 -281 l 61 -217 q 161 -270 103 -251 q 278 -289 219 -289 q 413 -262 353 -289 q 511 -184 472 -236 q 564 -58 550 -132 l 597 117 l 592 117 q 467 27 536 63 q 328 -8 399 -8 q 157 56 222 -8 q 92 242 92 119 q 119 407 92 328 q 197 548 147 486 q 315 645 247 610 q 464 681 383 681 q 596 650 539 681 q 683 569 653 619 l 689 569 l 714 664 l 747 664 l 600 -72 q 538 -212 583 -156 q 424 -297 492 -268 q 272 -325 356 -325 m 331 28 q 469 67 397 28 q 608 178 542 107 l 681 517 q 579 615 635 586 q 461 644 524 644 q 330 611 390 644 q 225 522 269 578 q 156 394 181 465 q 131 250 131 324 q 185 83 131 138 q 331 28 239 28 m 519 792 q 415 824 451 792 q 367 904 379 857 q 356 994 354 951 l 392 1000 q 401 920 389 960 q 445 854 414 881 q 528 828 476 828 q 619 854 579 828 q 685 920 658 881 q 725 1000 711 960 l 761 994 q 719 904 749 951 q 640 824 689 857 q 519 792 590 792 z "},"ġ":{"ha":833,"x_min":36,"x_max":747,"o":"m 272 -325 q 138 -303 197 -325 q 36 -247 78 -281 l 61 -217 q 161 -270 103 -251 q 278 -289 219 -289 q 413 -262 353 -289 q 511 -184 472 -236 q 564 -58 550 -132 l 597 117 l 592 117 q 467 27 536 63 q 328 -8 399 -8 q 157 56 222 -8 q 92 242 92 119 q 119 407 92 328 q 197 548 147 486 q 315 645 247 610 q 464 681 383 681 q 596 650 539 681 q 683 569 653 619 l 689 569 l 714 664 l 747 664 l 600 -72 q 538 -212 583 -156 q 424 -297 492 -268 q 272 -325 356 -325 m 331 28 q 469 67 397 28 q 608 178 542 107 l 681 517 q 579 615 635 586 q 461 644 524 644 q 330 611 390 644 q 225 522 269 578 q 156 394 181 465 q 131 250 131 324 q 185 83 131 138 q 331 28 239 28 m 528 833 q 493 847 506 833 q 481 881 481 860 q 490 914 481 899 q 513 938 499 929 q 542 947 526 947 q 577 934 565 947 q 589 900 589 921 q 570 853 589 874 q 528 833 551 833 z "},"ģ":{"ha":833,"x_min":36,"x_max":747,"o":"m 272 -325 q 138 -303 197 -325 q 36 -247 78 -281 l 61 -217 q 161 -270 103 -251 q 278 -289 219 -289 q 413 -262 353 -289 q 511 -184 472 -236 q 564 -58 550 -132 l 597 117 l 592 117 q 467 27 536 63 q 328 -8 399 -8 q 157 56 222 -8 q 92 242 92 119 q 119 407 92 328 q 197 548 147 486 q 315 645 247 610 q 464 681 383 681 q 596 650 539 681 q 683 569 653 619 l 689 569 l 714 664 l 747 664 l 600 -72 q 538 -212 583 -156 q 424 -297 492 -268 q 272 -325 356 -325 m 331 28 q 469 67 397 28 q 608 178 542 107 l 681 517 q 579 615 635 586 q 461 644 524 644 q 330 611 390 644 q 225 522 269 578 q 156 394 181 465 q 131 250 131 324 q 185 83 131 138 q 331 28 239 28 m 542 747 q 476 779 503 758 q 450 838 450 800 q 505 921 450 892 q 639 958 560 950 l 640 924 q 536 897 581 918 q 492 842 492 876 q 514 801 492 815 q 563 782 536 788 l 542 747 z "},"ǧ":{"ha":833,"x_min":36,"x_max":747,"o":"m 272 -325 q 138 -303 197 -325 q 36 -247 78 -281 l 61 -217 q 161 -270 103 -251 q 278 -289 219 -289 q 413 -262 353 -289 q 511 -184 472 -236 q 564 -58 550 -132 l 597 117 l 592 117 q 467 27 536 63 q 328 -8 399 -8 q 157 56 222 -8 q 92 242 92 119 q 119 407 92 328 q 197 548 147 486 q 315 645 247 610 q 464 681 383 681 q 596 650 539 681 q 683 569 653 619 l 689 569 l 714 664 l 747 664 l 600 -72 q 538 -212 583 -156 q 424 -297 492 -268 q 272 -325 356 -325 m 331 28 q 469 67 397 28 q 608 178 542 107 l 681 517 q 579 615 635 586 q 461 644 524 644 q 330 611 390 644 q 225 522 269 578 q 156 394 181 465 q 131 250 131 324 q 185 83 131 138 q 331 28 239 28 m 497 794 l 369 1000 l 397 1019 l 517 836 l 522 836 l 711 1019 l 736 997 l 536 794 l 497 794 z "},"ḡ":{"ha":833,"x_min":36,"x_max":747,"o":"m 272 -325 q 138 -303 197 -325 q 36 -247 78 -281 l 61 -217 q 161 -270 103 -251 q 278 -289 219 -289 q 413 -262 353 -289 q 511 -184 472 -236 q 564 -58 550 -132 l 597 117 l 592 117 q 467 27 536 63 q 328 -8 399 -8 q 157 56 222 -8 q 92 242 92 119 q 119 407 92 328 q 197 548 147 486 q 315 645 247 610 q 464 681 383 681 q 596 650 539 681 q 683 569 653 619 l 689 569 l 714 664 l 747 664 l 600 -72 q 538 -212 583 -156 q 424 -297 492 -268 q 272 -325 356 -325 m 331 28 q 469 67 397 28 q 608 178 542 107 l 681 517 q 579 615 635 586 q 461 644 524 644 q 330 611 390 644 q 225 522 269 578 q 156 394 181 465 q 131 250 131 324 q 185 83 131 138 q 331 28 239 28 m 367 844 l 372 881 l 694 881 l 689 844 l 367 844 z "},"ĥ":{"ha":833,"x_min":72,"x_max":719,"o":"m 72 0 l 272 1003 l 311 1003 l 225 575 l 211 511 l 217 511 q 315 594 264 556 q 423 657 365 633 q 550 681 481 681 q 681 635 642 681 q 719 519 719 589 q 716 459 719 486 q 706 403 713 432 l 625 0 l 586 0 l 667 400 q 677 458 674 432 q 681 514 681 485 q 646 610 681 576 q 544 644 611 644 q 373 592 457 644 q 203 450 289 540 l 111 0 l 72 0 m 142 1069 l 122 1092 l 311 1250 l 350 1250 l 483 1092 l 461 1072 l 331 1211 l 325 1211 l 142 1069 z "},"ḧ":{"ha":833,"x_min":72,"x_max":719,"o":"m 72 0 l 272 1003 l 311 1003 l 225 575 l 211 511 l 217 511 q 315 594 264 556 q 423 657 365 633 q 550 681 481 681 q 681 635 642 681 q 719 519 719 589 q 716 459 719 486 q 706 403 713 432 l 625 0 l 586 0 l 667 400 q 677 458 674 432 q 681 514 681 485 q 646 610 681 576 q 544 644 611 644 q 373 592 457 644 q 203 450 289 540 l 111 0 l 72 0 m 194 1092 q 168 1101 178 1092 q 158 1128 158 1111 q 172 1166 158 1151 q 203 1181 186 1181 q 229 1171 219 1181 q 239 1142 239 1161 q 225 1106 239 1121 q 194 1092 211 1092 m 425 1092 q 399 1101 408 1092 q 389 1128 389 1111 q 403 1166 389 1151 q 433 1181 417 1181 q 460 1171 450 1181 q 469 1142 469 1161 q 456 1106 469 1121 q 425 1092 442 1092 z "},"ḥ":{"ha":833,"x_min":72,"x_max":719,"o":"m 72 0 l 272 1003 l 311 1003 l 225 575 l 211 511 l 217 511 q 315 594 264 556 q 423 657 365 633 q 550 681 481 681 q 681 635 642 681 q 719 519 719 589 q 716 459 719 486 q 706 403 713 432 l 625 0 l 586 0 l 667 400 q 677 458 674 432 q 681 514 681 485 q 646 610 681 576 q 544 644 611 644 q 373 592 457 644 q 203 450 289 540 l 111 0 l 72 0 z "},"ẖ":{"ha":833,"x_min":72,"x_max":719,"o":"m 72 0 l 272 1003 l 311 1003 l 225 575 l 211 511 l 217 511 q 315 594 264 556 q 423 657 365 633 q 550 681 481 681 q 681 635 642 681 q 719 519 719 589 q 716 459 719 486 q 706 403 713 432 l 625 0 l 586 0 l 667 400 q 677 458 674 432 q 681 514 681 485 q 646 610 681 576 q 544 644 611 644 q 373 592 457 644 q 203 450 289 540 l 111 0 l 72 0 z "},"ḩ":{"ha":833,"x_min":-86,"x_max":719,"o":"m 72 0 l 272 1003 l 311 1003 l 225 575 l 211 511 l 217 511 q 315 594 264 556 q 423 657 365 633 q 550 681 481 681 q 681 635 642 681 q 719 519 719 589 q 716 459 719 486 q 706 403 713 432 l 625 0 l 586 0 l 667 400 q 677 458 674 432 q 681 514 681 485 q 646 610 681 576 q 544 644 611 644 q 373 592 457 644 q 203 450 289 540 l 111 0 l 72 0 m -83 -300 l -86 -267 q 43 -241 0 -264 q 86 -183 86 -218 q 63 -137 86 -151 q -8 -119 39 -124 l 72 6 l 111 6 l 50 -94 q 113 -125 99 -107 q 128 -172 128 -143 q 69 -265 128 -232 q -83 -300 11 -297 z "},"ḫ":{"ha":833,"x_min":72,"x_max":719,"o":"m 72 0 l 272 1003 l 311 1003 l 225 575 l 211 511 l 217 511 q 315 594 264 556 q 423 657 365 633 q 550 681 481 681 q 681 635 642 681 q 719 519 719 589 q 716 459 719 486 q 706 403 713 432 l 625 0 l 586 0 l 667 400 q 677 458 674 432 q 681 514 681 485 q 646 610 681 576 q 544 644 611 644 q 373 592 457 644 q 203 450 289 540 l 111 0 l 72 0 z "},"ħ":{"ha":833,"x_min":72,"x_max":714,"o":"m 72 0 l 272 1003 l 311 1003 l 219 547 l 206 483 l 211 483 q 309 567 258 528 q 417 629 360 606 q 544 653 475 653 q 675 607 636 653 q 714 492 714 561 q 710 431 714 458 q 700 375 707 404 l 625 0 l 586 0 l 661 372 q 672 431 668 404 q 675 486 675 457 q 640 583 675 549 q 539 617 606 617 q 367 565 451 617 q 197 422 283 513 l 111 0 l 72 0 m 125 814 l 131 844 l 242 850 l 611 850 l 600 814 l 125 814 z "},"ì":{"ha":833,"x_min":172,"x_max":656,"o":"m 488 -17 q 379 19 422 -17 q 336 131 336 54 q 338 163 336 146 q 344 197 340 179 l 436 628 l 172 628 l 181 664 l 481 664 l 381 186 q 376 160 378 172 q 375 136 375 147 q 409 47 375 74 q 494 19 443 19 q 567 31 532 19 q 642 61 603 43 l 656 31 q 575 -3 614 10 q 488 -17 536 -17 m 517 792 l 358 1014 l 394 1039 l 544 811 l 517 792 z "},"í":{"ha":833,"x_min":172,"x_max":656,"o":"m 488 -17 q 379 19 422 -17 q 336 131 336 54 q 338 163 336 146 q 344 197 340 179 l 436 628 l 172 628 l 181 664 l 481 664 l 381 186 q 376 160 378 172 q 375 136 375 147 q 409 47 375 74 q 494 19 443 19 q 567 31 532 19 q 642 61 603 43 l 656 31 q 575 -3 614 10 q 488 -17 536 -17 m 425 806 l 403 831 l 617 1028 l 644 994 l 425 806 z "},"î":{"ha":833,"x_min":172,"x_max":656,"o":"m 488 -17 q 379 19 422 -17 q 336 131 336 54 q 338 163 336 146 q 344 197 340 179 l 436 628 l 172 628 l 181 664 l 481 664 l 381 186 q 376 160 378 172 q 375 136 375 147 q 409 47 375 74 q 494 19 443 19 q 567 31 532 19 q 642 61 603 43 l 656 31 q 575 -3 614 10 q 488 -17 536 -17 m 311 797 l 286 819 l 486 1022 l 525 1022 l 653 817 l 625 797 l 506 981 l 500 981 l 311 797 z "},"ĩ":{"ha":833,"x_min":172,"x_max":725,"o":"m 488 -17 q 379 19 422 -17 q 336 131 336 54 q 338 163 336 146 q 344 197 340 179 l 436 628 l 172 628 l 181 664 l 481 664 l 381 186 q 376 160 378 172 q 375 136 375 147 q 409 47 375 74 q 494 19 443 19 q 567 31 532 19 q 642 61 603 43 l 656 31 q 575 -3 614 10 q 488 -17 536 -17 m 583 806 q 524 827 546 806 q 485 876 501 849 q 450 926 469 904 q 400 947 431 947 q 337 906 361 947 q 300 808 313 865 l 264 811 q 290 890 274 851 q 335 955 307 929 q 406 981 364 981 q 465 959 443 981 q 503 910 488 938 q 539 860 519 882 q 589 839 558 839 q 653 881 629 839 q 689 978 676 922 l 725 975 q 699 897 715 936 q 654 832 682 858 q 583 806 626 806 z "},"ï":{"ha":833,"x_min":172,"x_max":656,"o":"m 488 -17 q 379 19 422 -17 q 336 131 336 54 q 338 163 336 146 q 344 197 340 179 l 436 628 l 172 628 l 181 664 l 481 664 l 381 186 q 376 160 378 172 q 375 136 375 147 q 409 47 375 74 q 494 19 443 19 q 567 31 532 19 q 642 61 603 43 l 656 31 q 575 -3 614 10 q 488 -17 536 -17 m 361 836 q 331 848 343 836 q 319 881 319 860 q 336 926 319 908 q 375 944 353 944 q 406 933 394 944 q 417 900 417 921 q 401 855 417 874 q 361 836 385 836 m 592 836 q 562 848 574 836 q 550 881 550 860 q 567 926 550 908 q 606 944 583 944 q 636 933 625 944 q 647 900 647 921 q 631 855 647 874 q 592 836 615 836 z "},"ī":{"ha":833,"x_min":172,"x_max":656,"o":"m 488 -17 q 379 19 422 -17 q 336 131 336 54 q 338 163 336 146 q 344 197 340 179 l 436 628 l 172 628 l 181 664 l 481 664 l 381 186 q 376 160 378 172 q 375 136 375 147 q 409 47 375 74 q 494 19 443 19 q 567 31 532 19 q 642 61 603 43 l 656 31 q 575 -3 614 10 q 488 -17 536 -17 m 314 844 l 319 881 l 642 881 l 636 844 l 314 844 z "},"ǐ":{"ha":833,"x_min":172,"x_max":683,"o":"m 488 -17 q 379 19 422 -17 q 336 131 336 54 q 338 163 336 146 q 344 197 340 179 l 436 628 l 172 628 l 181 664 l 481 664 l 381 186 q 376 160 378 172 q 375 136 375 147 q 409 47 375 74 q 494 19 443 19 q 567 31 532 19 q 642 61 603 43 l 656 31 q 575 -3 614 10 q 488 -17 536 -17 m 444 794 l 317 1000 l 344 1019 l 464 836 l 469 836 l 658 1019 l 683 997 l 483 794 l 444 794 z "},"į":{"ha":833,"x_min":172,"x_max":656,"o":"m 489 -311 q 407 -288 444 -311 q 369 -211 369 -265 q 407 -105 369 -154 q 503 -17 444 -56 q 496 -17 499 -17 q 488 -17 493 -17 q 379 19 422 -17 q 336 131 336 54 q 338 163 336 146 q 344 197 340 179 l 436 628 l 172 628 l 181 664 l 481 664 l 381 186 q 376 160 378 172 q 375 136 375 147 q 409 47 375 74 q 494 19 443 19 q 567 31 532 19 q 642 61 603 43 l 656 31 q 461 -94 514 -36 q 408 -200 408 -151 q 434 -257 408 -239 q 497 -275 460 -275 q 540 -267 521 -275 q 575 -247 558 -260 l 592 -272 q 548 -300 574 -289 q 489 -311 522 -311 m 475 833 q 440 847 453 833 q 428 881 428 860 q 437 914 428 899 q 460 938 446 929 q 489 947 474 947 q 524 934 513 947 q 536 900 536 921 q 517 853 536 874 q 475 833 499 833 z "},"ỉ":{"ha":833,"x_min":172,"x_max":656,"o":"m 488 -17 q 379 19 422 -17 q 336 131 336 54 q 338 163 336 146 q 344 197 340 179 l 436 628 l 172 628 l 181 664 l 481 664 l 381 186 q 376 160 378 172 q 375 136 375 147 q 409 47 375 74 q 494 19 443 19 q 567 31 532 19 q 642 61 603 43 l 656 31 q 575 -3 614 10 q 488 -17 536 -17 m 439 800 l 433 833 q 505 865 475 846 q 539 914 535 883 q 517 965 546 947 q 433 983 488 982 l 442 1019 q 517 1008 482 1018 q 570 976 551 997 q 583 919 589 954 q 554 862 576 885 q 501 824 532 839 q 439 800 471 810 z "},"ị":{"ha":833,"x_min":172,"x_max":656,"o":"m 488 -17 q 379 19 422 -17 q 336 131 336 54 q 338 163 336 146 q 344 197 340 179 l 436 628 l 172 628 l 181 664 l 481 664 l 381 186 q 376 160 378 172 q 375 136 375 147 q 409 47 375 74 q 494 19 443 19 q 567 31 532 19 q 642 61 603 43 l 656 31 q 575 -3 614 10 q 488 -17 536 -17 m 475 833 q 440 847 453 833 q 428 881 428 860 q 437 914 428 899 q 460 938 446 929 q 489 947 474 947 q 524 934 513 947 q 536 900 536 921 q 517 853 536 874 q 475 833 499 833 z "},"ĭ":{"ha":833,"x_min":172,"x_max":708,"o":"m 488 -17 q 379 19 422 -17 q 336 131 336 54 q 338 163 336 146 q 344 197 340 179 l 436 628 l 172 628 l 181 664 l 481 664 l 381 186 q 376 160 378 172 q 375 136 375 147 q 409 47 375 74 q 494 19 443 19 q 567 31 532 19 q 642 61 603 43 l 656 31 q 575 -3 614 10 q 488 -17 536 -17 m 467 792 q 363 824 399 792 q 314 904 326 857 q 303 994 301 951 l 339 1000 q 349 920 336 960 q 392 854 361 881 q 475 828 424 828 q 566 854 526 828 q 632 920 606 881 q 672 1000 658 960 l 708 994 q 666 904 696 951 q 587 824 636 857 q 467 792 538 792 z "},"ı":{"ha":833,"x_min":172,"x_max":656,"o":"m 488 -17 q 379 19 422 -17 q 336 131 336 54 q 338 163 336 146 q 344 197 340 179 l 436 628 l 172 628 l 181 664 l 481 664 l 381 186 q 376 160 378 172 q 375 136 375 147 q 409 47 375 74 q 494 19 443 19 q 567 31 532 19 q 642 61 603 43 l 656 31 q 575 -3 614 10 q 488 -17 536 -17 z "},"ĵ":{"ha":833,"x_min":-19,"x_max":750,"o":"m 150 -325 q 53 -306 99 -325 q -19 -267 8 -287 l 3 -236 q 70 -274 32 -258 q 158 -289 108 -289 q 320 -228 267 -289 q 392 -75 374 -167 l 533 628 l 200 628 l 208 664 l 581 664 l 433 -67 q 345 -258 408 -192 q 150 -325 282 -325 m 408 797 l 383 819 l 583 1022 l 622 1022 l 750 817 l 722 797 l 603 981 l 597 981 l 408 797 z "},"ķ":{"ha":833,"x_min":100,"x_max":786,"o":"m 100 0 l 300 1003 l 339 1003 l 189 244 l 194 244 l 731 664 l 786 664 l 447 394 l 178 189 l 139 0 l 100 0 m 426 389 l 458 411 l 689 0 l 644 0 l 426 389 m 233 -300 l 231 -267 q 360 -241 317 -264 q 403 -183 403 -218 q 379 -137 403 -151 q 308 -119 356 -124 l 322 -86 q 399 -104 372 -93 q 435 -131 425 -115 q 444 -172 444 -147 q 418 -240 444 -211 q 344 -283 392 -268 q 233 -300 296 -299 z "},"ḳ":{"ha":833,"x_min":100,"x_max":786,"o":"m 100 0 l 300 1003 l 339 1003 l 189 244 l 194 244 l 731 664 l 786 664 l 447 394 l 178 189 l 139 0 l 100 0 m 426 389 l 458 411 l 689 0 l 644 0 l 426 389 z "},"ḵ":{"ha":833,"x_min":100,"x_max":786,"o":"m 100 0 l 300 1003 l 339 1003 l 189 244 l 194 244 l 731 664 l 786 664 l 447 394 l 178 189 l 139 0 l 100 0 m 426 389 l 458 411 l 689 0 l 644 0 l 426 389 z "},"ĸ":{"ha":833,"x_min":100,"x_max":786,"o":"m 100 0 l 233 664 l 272 664 l 189 244 l 194 244 l 731 664 l 786 664 l 447 394 l 178 189 l 139 0 l 100 0 m 426 389 l 458 411 l 689 0 l 644 0 l 426 389 z "},"ĺ":{"ha":833,"x_min":211,"x_max":678,"o":"m 450 -17 q 339 20 383 -17 q 294 133 294 57 q 297 164 294 149 q 303 197 299 179 l 458 967 l 211 967 l 219 1003 l 503 1003 l 344 208 q 338 172 340 190 q 336 139 336 154 q 368 48 336 76 q 456 19 400 19 q 528 30 492 19 q 603 61 564 40 l 618 28 q 537 -5 579 7 q 450 -17 494 -17 m 475 1078 l 458 1100 l 653 1253 l 678 1217 l 475 1078 z "},"ľ":{"ha":833,"x_min":211,"x_max":722,"o":"m 450 -17 q 339 20 383 -17 q 294 133 294 57 q 297 164 294 149 q 303 197 299 179 l 458 967 l 211 967 l 219 1003 l 503 1003 l 344 208 q 338 172 340 190 q 336 139 336 154 q 368 48 336 76 q 456 19 400 19 q 528 30 492 19 q 603 61 564 40 l 618 28 q 537 -5 579 7 q 450 -17 494 -17 m 614 761 l 683 1128 l 722 1128 l 703 1033 l 642 761 l 614 761 z "},"ļ":{"ha":833,"x_min":211,"x_max":618,"o":"m 450 -17 q 339 20 383 -17 q 294 133 294 57 q 297 164 294 149 q 303 197 299 179 l 458 967 l 211 967 l 219 1003 l 503 1003 l 344 208 q 338 172 340 190 q 336 139 336 154 q 368 48 336 76 q 456 19 400 19 q 528 30 492 19 q 603 61 564 40 l 618 28 q 537 -5 579 7 q 450 -17 494 -17 m 297 -300 l 294 -267 q 424 -241 381 -264 q 467 -183 467 -218 q 443 -137 467 -151 q 372 -119 419 -124 l 386 -86 q 463 -104 436 -93 q 499 -131 489 -115 q 508 -172 508 -147 q 482 -240 508 -211 q 408 -283 456 -268 q 297 -300 360 -299 z "},"ḷ":{"ha":833,"x_min":211,"x_max":618,"o":"m 450 -17 q 339 20 383 -17 q 294 133 294 57 q 297 164 294 149 q 303 197 299 179 l 458 967 l 211 967 l 219 1003 l 503 1003 l 344 208 q 338 172 340 190 q 336 139 336 154 q 368 48 336 76 q 456 19 400 19 q 528 30 492 19 q 603 61 564 40 l 618 28 q 537 -5 579 7 q 450 -17 494 -17 z "},"ḹ":{"ha":833,"x_min":211,"x_max":661,"o":"m 450 -17 q 339 20 383 -17 q 294 133 294 57 q 297 164 294 149 q 303 197 299 179 l 458 967 l 211 967 l 219 1003 l 503 1003 l 344 208 q 338 172 340 190 q 336 139 336 154 q 368 48 336 76 q 456 19 400 19 q 528 30 492 19 q 603 61 564 40 l 618 28 q 537 -5 579 7 q 450 -17 494 -17 m 333 1106 l 342 1142 l 661 1142 l 653 1106 l 333 1106 z "},"ḻ":{"ha":833,"x_min":211,"x_max":618,"o":"m 450 -17 q 339 20 383 -17 q 294 133 294 57 q 297 164 294 149 q 303 197 299 179 l 458 967 l 211 967 l 219 1003 l 503 1003 l 344 208 q 338 172 340 190 q 336 139 336 154 q 368 48 336 76 q 456 19 400 19 q 528 30 492 19 q 603 61 564 40 l 618 28 q 537 -5 579 7 q 450 -17 494 -17 z "},"ł":{"ha":833,"x_min":164,"x_max":689,"o":"m 178 425 l 164 456 l 389 575 l 408 583 l 675 722 l 689 692 l 399 539 l 381 531 l 178 425 m 450 -17 q 339 20 383 -17 q 294 133 294 57 q 297 164 294 149 q 303 197 299 179 l 458 967 l 211 967 l 219 1003 l 503 1003 l 344 208 q 338 172 340 190 q 336 139 336 154 q 368 48 336 76 q 456 19 400 19 q 528 30 492 19 q 603 61 564 40 l 618 28 q 537 -5 579 7 q 450 -17 494 -17 z "},"ŀ":{"ha":833,"x_min":171,"x_max":825,"o":"m 410 -17 q 299 20 343 -17 q 254 133 254 57 q 256 164 254 149 q 263 197 258 179 l 418 967 l 171 967 l 179 1003 l 463 1003 l 304 208 q 298 172 300 190 q 296 139 296 154 q 328 48 296 76 q 415 19 360 19 q 488 30 451 19 q 563 61 524 40 l 578 28 q 497 -5 539 7 q 410 -17 454 -17 m 764 417 q 729 430 742 417 q 717 464 717 443 q 726 497 717 482 q 749 522 735 513 q 778 531 763 531 q 813 517 801 531 q 825 483 825 504 q 806 437 825 457 q 764 417 788 417 z "},"ḿ":{"ha":833,"x_min":22,"x_max":767,"o":"m 22 0 l 156 664 l 189 664 l 175 569 l 178 569 q 272 654 226 628 q 364 681 318 681 q 440 653 413 681 q 467 561 467 626 l 450 542 q 567 651 513 621 q 664 681 621 681 q 740 654 713 681 q 767 567 767 628 q 765 532 767 550 q 757 486 763 514 l 661 0 l 622 0 l 719 489 q 726 527 724 510 q 728 558 728 544 q 710 624 728 604 q 657 644 692 644 q 558 609 606 644 q 461 503 511 574 l 361 0 l 322 0 l 419 489 q 426 527 424 510 q 428 558 428 544 q 410 624 428 604 q 356 644 392 644 q 259 609 304 644 q 161 503 214 574 l 61 0 l 22 0 m 467 803 l 444 828 l 658 1025 l 686 992 l 467 803 z "},"ṁ":{"ha":833,"x_min":22,"x_max":767,"o":"m 22 0 l 156 664 l 189 664 l 175 569 l 178 569 q 272 654 226 628 q 364 681 318 681 q 440 653 413 681 q 467 561 467 626 l 450 542 q 567 651 513 621 q 664 681 621 681 q 740 654 713 681 q 767 567 767 628 q 765 532 767 550 q 757 486 763 514 l 661 0 l 622 0 l 719 489 q 726 527 724 510 q 728 558 728 544 q 710 624 728 604 q 657 644 692 644 q 558 609 606 644 q 461 503 511 574 l 361 0 l 322 0 l 419 489 q 426 527 424 510 q 428 558 428 544 q 410 624 428 604 q 356 644 392 644 q 259 609 304 644 q 161 503 214 574 l 61 0 l 22 0 m 517 831 q 482 844 494 831 q 469 878 469 857 q 478 911 469 896 q 501 935 488 926 q 531 944 515 944 q 566 931 554 944 q 578 897 578 918 q 559 851 578 871 q 517 831 540 831 z "},"ṃ":{"ha":833,"x_min":22,"x_max":767,"o":"m 22 0 l 156 664 l 189 664 l 175 569 l 178 569 q 272 654 226 628 q 364 681 318 681 q 440 653 413 681 q 467 561 467 626 l 450 542 q 567 651 513 621 q 664 681 621 681 q 740 654 713 681 q 767 567 767 628 q 765 532 767 550 q 757 486 763 514 l 661 0 l 622 0 l 719 489 q 726 527 724 510 q 728 558 728 544 q 710 624 728 604 q 657 644 692 644 q 558 609 606 644 q 461 503 511 574 l 361 0 l 322 0 l 419 489 q 426 527 424 510 q 428 558 428 544 q 410 624 428 604 q 356 644 392 644 q 259 609 304 644 q 161 503 214 574 l 61 0 l 22 0 z "},"ń":{"ha":833,"x_min":72,"x_max":719,"o":"m 72 0 l 206 664 l 239 664 l 214 511 l 219 511 q 315 594 265 556 q 423 657 365 633 q 550 681 481 681 q 681 635 642 681 q 719 519 719 589 q 716 459 719 486 q 706 403 713 432 l 625 0 l 586 0 l 667 400 q 677 458 674 432 q 681 514 681 485 q 646 610 681 576 q 544 644 611 644 q 373 592 457 644 q 203 450 289 540 l 111 0 l 72 0 m 467 806 l 444 831 l 658 1028 l 686 994 l 467 806 z "},"ǹ":{"ha":833,"x_min":72,"x_max":719,"o":"m 72 0 l 206 664 l 239 664 l 214 511 l 219 511 q 315 594 265 556 q 423 657 365 633 q 550 681 481 681 q 681 635 642 681 q 719 519 719 589 q 716 459 719 486 q 706 403 713 432 l 625 0 l 586 0 l 667 400 q 677 458 674 432 q 681 514 681 485 q 646 610 681 576 q 544 644 611 644 q 373 592 457 644 q 203 450 289 540 l 111 0 l 72 0 m 558 792 l 400 1014 l 436 1039 l 586 811 l 558 792 z "},"ň":{"ha":833,"x_min":72,"x_max":725,"o":"m 72 0 l 206 664 l 239 664 l 214 511 l 219 511 q 315 594 265 556 q 423 657 365 633 q 550 681 481 681 q 681 635 642 681 q 719 519 719 589 q 716 459 719 486 q 706 403 713 432 l 625 0 l 586 0 l 667 400 q 677 458 674 432 q 681 514 681 485 q 646 610 681 576 q 544 644 611 644 q 373 592 457 644 q 203 450 289 540 l 111 0 l 72 0 m 486 794 l 358 1000 l 386 1019 l 506 836 l 511 836 l 700 1019 l 725 997 l 525 794 l 486 794 z "},"ñ":{"ha":833,"x_min":72,"x_max":767,"o":"m 72 0 l 206 664 l 239 664 l 214 511 l 219 511 q 315 594 265 556 q 423 657 365 633 q 550 681 481 681 q 681 635 642 681 q 719 519 719 589 q 716 459 719 486 q 706 403 713 432 l 625 0 l 586 0 l 667 400 q 677 458 674 432 q 681 514 681 485 q 646 610 681 576 q 544 644 611 644 q 373 592 457 644 q 203 450 289 540 l 111 0 l 72 0 m 625 806 q 565 827 588 806 q 527 876 543 849 q 492 926 511 904 q 442 947 472 947 q 378 906 403 947 q 342 808 354 865 l 306 811 q 332 890 315 851 q 377 955 349 929 q 447 981 406 981 q 507 959 485 981 q 545 910 529 938 q 581 860 561 882 q 631 839 600 839 q 694 881 671 839 q 731 978 718 922 l 767 975 q 740 897 757 936 q 696 832 724 858 q 625 806 668 806 z "},"ņ":{"ha":833,"x_min":72,"x_max":719,"o":"m 72 0 l 206 664 l 239 664 l 214 511 l 219 511 q 315 594 265 556 q 423 657 365 633 q 550 681 481 681 q 681 635 642 681 q 719 519 719 589 q 716 459 719 486 q 706 403 713 432 l 625 0 l 586 0 l 667 400 q 677 458 674 432 q 681 514 681 485 q 646 610 681 576 q 544 644 611 644 q 373 592 457 644 q 203 450 289 540 l 111 0 l 72 0 m 197 -300 l 194 -267 q 324 -241 281 -264 q 367 -183 367 -218 q 343 -137 367 -151 q 272 -119 319 -124 l 286 -86 q 363 -104 336 -93 q 399 -131 389 -115 q 408 -172 408 -147 q 382 -240 408 -211 q 308 -283 356 -268 q 197 -300 260 -299 z "},"ṅ":{"ha":833,"x_min":72,"x_max":719,"o":"m 72 0 l 206 664 l 239 664 l 214 511 l 219 511 q 315 594 265 556 q 423 657 365 633 q 550 681 481 681 q 681 635 642 681 q 719 519 719 589 q 716 459 719 486 q 706 403 713 432 l 625 0 l 586 0 l 667 400 q 677 458 674 432 q 681 514 681 485 q 646 610 681 576 q 544 644 611 644 q 373 592 457 644 q 203 450 289 540 l 111 0 l 72 0 m 517 833 q 482 847 494 833 q 469 881 469 860 q 478 914 469 899 q 501 938 488 929 q 531 947 515 947 q 566 934 554 947 q 578 900 578 921 q 559 853 578 874 q 517 833 540 833 z "},"ṇ":{"ha":833,"x_min":72,"x_max":719,"o":"m 72 0 l 206 664 l 239 664 l 214 511 l 219 511 q 315 594 265 556 q 423 657 365 633 q 550 681 481 681 q 681 635 642 681 q 719 519 719 589 q 716 459 719 486 q 706 403 713 432 l 625 0 l 586 0 l 667 400 q 677 458 674 432 q 681 514 681 485 q 646 610 681 576 q 544 644 611 644 q 373 592 457 644 q 203 450 289 540 l 111 0 l 72 0 z "},"ṉ":{"ha":833,"x_min":72,"x_max":719,"o":"m 72 0 l 206 664 l 239 664 l 214 511 l 219 511 q 315 594 265 556 q 423 657 365 633 q 550 681 481 681 q 681 635 642 681 q 719 519 719 589 q 716 459 719 486 q 706 403 713 432 l 625 0 l 586 0 l 667 400 q 677 458 674 432 q 681 514 681 485 q 646 610 681 576 q 544 644 611 644 q 373 592 457 644 q 203 450 289 540 l 111 0 l 72 0 z "},"ŉ":{"ha":833,"x_min":18,"x_max":789,"o":"m 169 0 l 303 664 l 336 664 l 311 511 l 317 511 q 410 594 363 556 q 512 657 457 633 q 633 681 567 681 q 753 635 717 681 q 789 519 789 589 q 785 459 789 486 q 775 403 782 432 l 694 0 l 656 0 l 736 400 q 747 458 743 432 q 750 514 750 485 q 719 610 750 576 q 628 644 689 644 q 465 591 544 644 q 300 450 386 538 l 208 0 l 169 0 m 29 581 l 18 615 q 161 706 107 647 q 222 853 215 765 l 200 940 l 258 858 q 219 826 238 836 q 176 815 201 815 q 135 834 150 815 q 119 879 119 853 q 147 945 119 918 q 210 972 175 972 q 262 951 239 972 q 285 879 285 931 q 255 757 285 815 q 168 653 225 699 q 29 581 111 607 z "},"ò":{"ha":833,"x_min":78,"x_max":719,"o":"m 342 -17 q 199 20 258 -17 q 109 122 140 57 q 78 269 78 186 q 108 430 78 356 q 190 560 138 504 q 310 649 242 617 q 456 681 379 681 q 598 644 539 681 q 688 542 657 607 q 719 394 719 478 q 690 235 719 310 q 608 103 660 160 q 488 15 556 47 q 342 -17 419 -17 m 344 19 q 472 49 411 19 q 579 128 532 78 q 653 246 626 179 q 681 386 681 313 q 621 574 681 503 q 453 644 561 644 q 326 615 386 644 q 218 535 265 586 q 144 418 171 485 q 117 278 117 351 q 176 90 117 161 q 344 19 236 19 m 542 792 l 383 1014 l 419 1039 l 569 811 l 542 792 z "},"ó":{"ha":833,"x_min":78,"x_max":719,"o":"m 342 -17 q 199 20 258 -17 q 109 122 140 57 q 78 269 78 186 q 108 430 78 356 q 190 560 138 504 q 310 649 242 617 q 456 681 379 681 q 598 644 539 681 q 688 542 657 607 q 719 394 719 478 q 690 235 719 310 q 608 103 660 160 q 488 15 556 47 q 342 -17 419 -17 m 344 19 q 472 49 411 19 q 579 128 532 78 q 653 246 626 179 q 681 386 681 313 q 621 574 681 503 q 453 644 561 644 q 326 615 386 644 q 218 535 265 586 q 144 418 171 485 q 117 278 117 351 q 176 90 117 161 q 344 19 236 19 m 450 806 l 428 831 l 642 1028 l 669 994 l 450 806 z "},"ô":{"ha":833,"x_min":78,"x_max":719,"o":"m 342 -17 q 199 20 258 -17 q 109 122 140 57 q 78 269 78 186 q 108 430 78 356 q 190 560 138 504 q 310 649 242 617 q 456 681 379 681 q 598 644 539 681 q 688 542 657 607 q 719 394 719 478 q 690 235 719 310 q 608 103 660 160 q 488 15 556 47 q 342 -17 419 -17 m 344 19 q 472 49 411 19 q 579 128 532 78 q 653 246 626 179 q 681 386 681 313 q 621 574 681 503 q 453 644 561 644 q 326 615 386 644 q 218 535 265 586 q 144 418 171 485 q 117 278 117 351 q 176 90 117 161 q 344 19 236 19 m 336 797 l 311 819 l 511 1022 l 550 1022 l 678 817 l 650 797 l 531 981 l 525 981 l 336 797 z "},"õ":{"ha":833,"x_min":78,"x_max":750,"o":"m 342 -17 q 199 20 258 -17 q 109 122 140 57 q 78 269 78 186 q 108 430 78 356 q 190 560 138 504 q 310 649 242 617 q 456 681 379 681 q 598 644 539 681 q 688 542 657 607 q 719 394 719 478 q 690 235 719 310 q 608 103 660 160 q 488 15 556 47 q 342 -17 419 -17 m 344 19 q 472 49 411 19 q 579 128 532 78 q 653 246 626 179 q 681 386 681 313 q 621 574 681 503 q 453 644 561 644 q 326 615 386 644 q 218 535 265 586 q 144 418 171 485 q 117 278 117 351 q 176 90 117 161 q 344 19 236 19 m 608 806 q 549 827 571 806 q 510 876 526 849 q 475 926 494 904 q 425 947 456 947 q 362 906 386 947 q 325 808 338 865 l 289 811 q 315 890 299 851 q 360 955 332 929 q 431 981 389 981 q 490 959 468 981 q 528 910 513 938 q 564 860 544 882 q 614 839 583 839 q 678 881 654 839 q 714 978 701 922 l 750 975 q 724 897 740 936 q 679 832 707 858 q 608 806 651 806 z "},"ö":{"ha":833,"x_min":78,"x_max":719,"o":"m 342 -17 q 199 20 258 -17 q 109 122 140 57 q 78 269 78 186 q 108 430 78 356 q 190 560 138 504 q 310 649 242 617 q 456 681 379 681 q 598 644 539 681 q 688 542 657 607 q 719 394 719 478 q 690 235 719 310 q 608 103 660 160 q 488 15 556 47 q 342 -17 419 -17 m 344 19 q 472 49 411 19 q 579 128 532 78 q 653 246 626 179 q 681 386 681 313 q 621 574 681 503 q 453 644 561 644 q 326 615 386 644 q 218 535 265 586 q 144 418 171 485 q 117 278 117 351 q 176 90 117 161 q 344 19 236 19 m 386 836 q 356 848 368 836 q 344 881 344 860 q 361 926 344 908 q 400 944 378 944 q 431 933 419 944 q 442 900 442 921 q 426 855 442 874 q 386 836 410 836 m 617 836 q 587 848 599 836 q 575 881 575 860 q 592 926 575 908 q 631 944 608 944 q 661 933 650 944 q 672 900 672 921 q 656 855 672 874 q 617 836 640 836 z "},"ō":{"ha":833,"x_min":78,"x_max":719,"o":"m 342 -17 q 199 20 258 -17 q 109 122 140 57 q 78 269 78 186 q 108 430 78 356 q 190 560 138 504 q 310 649 242 617 q 456 681 379 681 q 598 644 539 681 q 688 542 657 607 q 719 394 719 478 q 690 235 719 310 q 608 103 660 160 q 488 15 556 47 q 342 -17 419 -17 m 344 19 q 472 49 411 19 q 579 128 532 78 q 653 246 626 179 q 681 386 681 313 q 621 574 681 503 q 453 644 561 644 q 326 615 386 644 q 218 535 265 586 q 144 418 171 485 q 117 278 117 351 q 176 90 117 161 q 344 19 236 19 m 339 844 l 344 881 l 667 881 l 661 844 l 339 844 z "},"ő":{"ha":833,"x_min":78,"x_max":764,"o":"m 342 -17 q 199 20 258 -17 q 109 122 140 57 q 78 269 78 186 q 108 430 78 356 q 190 560 138 504 q 310 649 242 617 q 456 681 379 681 q 598 644 539 681 q 688 542 657 607 q 719 394 719 478 q 690 235 719 310 q 608 103 660 160 q 488 15 556 47 q 342 -17 419 -17 m 344 19 q 472 49 411 19 q 579 128 532 78 q 653 246 626 179 q 681 386 681 313 q 621 574 681 503 q 453 644 561 644 q 326 615 386 644 q 218 535 265 586 q 144 418 171 485 q 117 278 117 351 q 176 90 117 161 q 344 19 236 19 m 419 797 l 394 814 l 556 1031 l 586 1006 l 419 797 m 597 797 l 572 814 l 733 1031 l 764 1006 l 597 797 z "},"ǒ":{"ha":833,"x_min":78,"x_max":719,"o":"m 342 -17 q 199 20 258 -17 q 109 122 140 57 q 78 269 78 186 q 108 430 78 356 q 190 560 138 504 q 310 649 242 617 q 456 681 379 681 q 598 644 539 681 q 688 542 657 607 q 719 394 719 478 q 690 235 719 310 q 608 103 660 160 q 488 15 556 47 q 342 -17 419 -17 m 344 19 q 472 49 411 19 q 579 128 532 78 q 653 246 626 179 q 681 386 681 313 q 621 574 681 503 q 453 644 561 644 q 326 615 386 644 q 218 535 265 586 q 144 418 171 485 q 117 278 117 351 q 176 90 117 161 q 344 19 236 19 m 469 794 l 342 1000 l 369 1019 l 489 836 l 494 836 l 683 1019 l 708 997 l 508 794 l 469 794 z "},"ǫ":{"ha":833,"x_min":78,"x_max":719,"o":"m 294 -311 q 213 -288 250 -311 q 175 -211 175 -265 q 194 -135 175 -172 q 245 -66 214 -97 q 311 -14 276 -35 q 144 68 211 -7 q 78 269 78 143 q 108 430 78 356 q 190 560 138 504 q 310 649 242 617 q 456 681 379 681 q 598 644 539 681 q 688 542 657 607 q 719 394 719 478 q 677 201 719 286 q 565 63 635 117 q 417 -8 496 8 q 305 -57 350 -22 q 237 -131 260 -92 q 214 -200 214 -171 q 240 -257 214 -239 q 303 -275 265 -275 q 345 -267 326 -275 q 381 -247 364 -260 l 397 -272 q 353 -300 379 -289 q 294 -311 328 -311 m 344 19 q 472 49 411 19 q 579 128 532 78 q 653 246 626 179 q 681 386 681 313 q 621 574 681 503 q 453 644 561 644 q 326 615 386 644 q 218 535 265 586 q 144 418 171 485 q 117 278 117 351 q 176 90 117 161 q 344 19 236 19 z "},"ọ":{"ha":833,"x_min":78,"x_max":719,"o":"m 342 -17 q 199 20 258 -17 q 109 122 140 57 q 78 269 78 186 q 108 430 78 356 q 190 560 138 504 q 310 649 242 617 q 456 681 379 681 q 598 644 539 681 q 688 542 657 607 q 719 394 719 478 q 690 235 719 310 q 608 103 660 160 q 488 15 556 47 q 342 -17 419 -17 m 344 19 q 472 49 411 19 q 579 128 532 78 q 653 246 626 179 q 681 386 681 313 q 621 574 681 503 q 453 644 561 644 q 326 615 386 644 q 218 535 265 586 q 144 418 171 485 q 117 278 117 351 q 176 90 117 161 q 344 19 236 19 z "},"ỏ":{"ha":833,"x_min":78,"x_max":719,"o":"m 342 -17 q 199 20 258 -17 q 109 122 140 57 q 78 269 78 186 q 108 430 78 356 q 190 560 138 504 q 310 649 242 617 q 456 681 379 681 q 598 644 539 681 q 688 542 657 607 q 719 394 719 478 q 690 235 719 310 q 608 103 660 160 q 488 15 556 47 q 342 -17 419 -17 m 344 19 q 472 49 411 19 q 579 128 532 78 q 653 246 626 179 q 681 386 681 313 q 621 574 681 503 q 453 644 561 644 q 326 615 386 644 q 218 535 265 586 q 144 418 171 485 q 117 278 117 351 q 176 90 117 161 q 344 19 236 19 m 464 800 l 458 833 q 530 865 500 846 q 564 914 560 883 q 542 965 571 947 q 458 983 513 982 l 467 1019 q 542 1008 507 1018 q 595 976 576 997 q 608 919 614 954 q 579 862 601 885 q 526 824 557 839 q 464 800 496 810 z "},"ố":{"ha":833,"x_min":78,"x_max":814,"o":"m 342 -17 q 199 20 258 -17 q 109 122 140 57 q 78 269 78 186 q 108 430 78 356 q 190 560 138 504 q 310 649 242 617 q 456 681 379 681 q 598 644 539 681 q 688 542 657 607 q 719 394 719 478 q 690 235 719 310 q 608 103 660 160 q 488 15 556 47 q 342 -17 419 -17 m 344 19 q 472 49 411 19 q 579 128 532 78 q 653 246 626 179 q 681 386 681 313 q 621 574 681 503 q 453 644 561 644 q 326 615 386 644 q 218 535 265 586 q 144 418 171 485 q 117 278 117 351 q 176 90 117 161 q 344 19 236 19 m 347 797 l 331 822 l 500 950 l 539 950 l 664 819 l 642 797 l 522 908 l 517 908 l 347 797 m 649 889 l 625 914 l 783 1058 l 814 1028 l 649 889 z "}}}
